<svg width="2204" height="740" viewBox="0 0 2204 740" fill="none" xmlns="http://www.w3.org/2000/svg">
<rect x="90.5" y="188.5" width="454" height="183" rx="63.5" stroke="white"/>
<path d="M178.08 298.81C178.447 304.017 180.537 308.197 184.35 311.35C188.163 314.43 193.003 315.97 198.87 315.97C204.15 315.97 208.403 314.833 211.63 312.56C214.93 310.213 216.58 306.987 216.58 302.88C216.58 299.873 215.663 297.49 213.83 295.73C212.07 293.97 209.76 292.687 206.9 291.88C204.113 291 200.3 290.157 195.46 289.35C187.76 288.03 181.637 285.867 177.09 282.86C172.543 279.853 170.27 274.977 170.27 268.23C170.27 263.903 171.37 260.09 173.57 256.79C175.77 253.417 178.85 250.813 182.81 248.98C186.843 247.147 191.427 246.23 196.56 246.23C201.987 246.23 206.79 247.22 210.97 249.2C215.15 251.18 218.45 253.967 220.87 257.56C223.29 261.08 224.647 265.15 224.94 269.77H215.48C214.893 265.297 212.877 261.703 209.43 258.99C205.983 256.277 201.693 254.92 196.56 254.92C191.427 254.92 187.357 256.057 184.35 258.33C181.343 260.53 179.84 263.647 179.84 267.68C179.84 270.613 180.72 272.923 182.48 274.61C184.24 276.223 186.513 277.47 189.3 278.35C192.087 279.157 195.9 279.963 200.74 280.77C208.44 282.09 214.6 284.29 219.22 287.37C223.84 290.377 226.15 295.253 226.15 302C226.15 306.4 224.977 310.323 222.63 313.77C220.357 317.217 217.13 319.893 212.95 321.8C208.843 323.707 204.113 324.66 198.76 324.66C192.747 324.66 187.503 323.597 183.03 321.47C178.557 319.27 175.073 316.227 172.58 312.34C170.16 308.38 168.84 303.87 168.62 298.81H178.08ZM234.996 295.95C234.996 290.23 236.096 285.207 238.296 280.88C240.57 276.553 243.723 273.217 247.756 270.87C251.79 268.45 256.41 267.24 261.616 267.24C266.75 267.24 271.296 268.303 275.256 270.43C279.216 272.557 282.333 275.637 284.606 279.67C286.88 283.703 288.09 288.433 288.236 293.86C288.236 294.667 288.163 295.95 288.016 297.71H244.456V298.48C244.603 303.98 246.29 308.38 249.516 311.68C252.743 314.98 256.96 316.63 262.166 316.63C266.2 316.63 269.61 315.64 272.396 313.66C275.256 311.607 277.163 308.783 278.116 305.19H287.246C286.146 310.91 283.396 315.603 278.996 319.27C274.596 322.863 269.206 324.66 262.826 324.66C257.253 324.66 252.376 323.487 248.196 321.14C244.016 318.72 240.753 315.347 238.406 311.02C236.133 306.62 234.996 301.597 234.996 295.95ZM278.886 290.23C278.446 285.463 276.65 281.76 273.496 279.12C270.416 276.48 266.493 275.16 261.726 275.16C257.473 275.16 253.733 276.553 250.506 279.34C247.28 282.127 245.446 285.757 245.006 290.23H278.886ZM298.529 247H307.549V324H298.529V247ZM317.926 295.95C317.926 290.23 319.026 285.207 321.226 280.88C323.499 276.553 326.653 273.217 330.686 270.87C334.719 268.45 339.339 267.24 344.546 267.24C349.679 267.24 354.226 268.303 358.186 270.43C362.146 272.557 365.263 275.637 367.536 279.67C369.809 283.703 371.019 288.433 371.166 293.86C371.166 294.667 371.093 295.95 370.946 297.71H327.386V298.48C327.533 303.98 329.219 308.38 332.446 311.68C335.673 314.98 339.889 316.63 345.096 316.63C349.129 316.63 352.539 315.64 355.326 313.66C358.186 311.607 360.093 308.783 361.046 305.19H370.176C369.076 310.91 366.326 315.603 361.926 319.27C357.526 322.863 352.136 324.66 345.756 324.66C340.183 324.66 335.306 323.487 331.126 321.14C326.946 318.72 323.683 315.347 321.336 311.02C319.063 306.62 317.926 301.597 317.926 295.95ZM361.816 290.23C361.376 285.463 359.579 281.76 356.426 279.12C353.346 276.48 349.423 275.16 344.656 275.16C340.403 275.16 336.663 276.553 333.436 279.34C330.209 282.127 328.376 285.757 327.936 290.23H361.816ZM431.509 304.64C430.335 310.873 427.585 315.787 423.259 319.38C418.932 322.9 413.432 324.66 406.759 324.66C401.332 324.66 396.565 323.45 392.459 321.03C388.352 318.61 385.162 315.237 382.889 310.91C380.615 306.51 379.479 301.487 379.479 295.84C379.479 290.193 380.615 285.207 382.889 280.88C385.235 276.553 388.499 273.217 392.679 270.87C396.859 268.45 401.662 267.24 407.089 267.24C413.689 267.24 419.115 269 423.369 272.52C427.695 276.04 430.409 280.88 431.509 287.04H422.379C421.499 283.447 419.665 280.587 416.879 278.46C414.092 276.333 410.719 275.27 406.759 275.27C401.405 275.27 397.042 277.177 393.669 280.99C390.369 284.803 388.719 289.753 388.719 295.84C388.719 302 390.369 307.023 393.669 310.91C397.042 314.723 401.405 316.63 406.759 316.63C410.865 316.63 414.312 315.567 417.099 313.44C419.885 311.313 421.682 308.38 422.489 304.64H431.509ZM445.677 276.15H435.557V267.9H445.677V252.17H454.697V267.9H468.887V276.15H454.697V309.26C454.697 311.607 455.137 313.293 456.017 314.32C456.971 315.273 458.584 315.75 460.857 315.75H470.647V324H460.307C455.027 324 451.251 322.827 448.977 320.48C446.777 318.133 445.677 314.43 445.677 309.37V276.15Z" fill="white"/>
<rect x="816.5" y="58.5" width="532" height="183" rx="63.5" stroke="white"/>
<mask id="path-4-outside-1_2671_687" maskUnits="userSpaceOnUse" x="889" y="116" width="383" height="101" fill="black">
<rect fill="white" x="889" y="116" width="383" height="101"/>
<path d="M891.21 194L920.58 117H931.91L961.17 194H950.94L942.8 173.21H909.25L901.11 194H891.21ZM912.11 164.52H939.94L925.97 127.45L912.11 164.52ZM996.062 137.24C1002.88 137.24 1008.35 139.293 1012.45 143.4C1016.63 147.507 1018.72 153.96 1018.72 162.76V194H1009.7V163.31C1009.7 157.517 1008.38 153.117 1005.74 150.11C1003.18 147.03 999.436 145.49 994.522 145.49C989.242 145.49 985.099 147.323 982.092 150.99C979.086 154.657 977.582 159.643 977.582 165.95V194H968.562V137.9H976.372L977.582 145.49C981.836 139.99 987.996 137.24 996.062 137.24ZM1082.69 185.75V194H1077.74C1074.15 194 1071.58 193.267 1070.04 191.8C1068.5 190.333 1067.7 188.17 1067.62 185.31C1063.3 191.543 1057.03 194.66 1048.81 194.66C1042.58 194.66 1037.56 193.193 1033.74 190.26C1030 187.327 1028.13 183.33 1028.13 178.27C1028.13 172.623 1030.04 168.297 1033.85 165.29C1037.74 162.283 1043.35 160.78 1050.68 160.78H1067.18V156.93C1067.18 153.263 1065.94 150.403 1063.44 148.35C1061.02 146.297 1057.61 145.27 1053.21 145.27C1049.33 145.27 1046.1 146.15 1043.53 147.91C1041.04 149.597 1039.5 151.87 1038.91 154.73H1029.89C1030.55 149.23 1032.97 144.94 1037.15 141.86C1041.41 138.78 1046.91 137.24 1053.65 137.24C1060.84 137.24 1066.38 139 1070.26 142.52C1074.22 145.967 1076.2 150.953 1076.2 157.48V181.68C1076.2 184.393 1077.45 185.75 1079.94 185.75H1082.69ZM1067.18 168.37H1049.8C1041.44 168.37 1037.26 171.487 1037.26 177.72C1037.26 180.507 1038.36 182.743 1040.56 184.43C1042.76 186.117 1045.73 186.96 1049.47 186.96C1054.97 186.96 1059.3 185.53 1062.45 182.67C1065.61 179.737 1067.18 175.887 1067.18 171.12V168.37ZM1089.63 117H1098.65V194H1089.63V117ZM1114.96 137.9L1132.23 183.66L1148.95 137.9H1158.52L1132.67 203.46C1131.35 206.833 1130.18 209.363 1129.15 211.05C1128.13 212.737 1126.84 213.983 1125.3 214.79C1123.76 215.597 1121.71 216 1119.14 216H1108.36V207.75H1116.39C1118.15 207.75 1119.47 207.567 1120.35 207.2C1121.23 206.833 1121.93 206.21 1122.44 205.33C1123.03 204.523 1123.73 203.13 1124.53 201.15L1127.39 194.44L1105.39 137.9H1114.96ZM1171.22 175.52C1171.36 178.893 1172.83 181.643 1175.62 183.77C1178.48 185.897 1182.14 186.96 1186.62 186.96C1190.58 186.96 1193.77 186.19 1196.19 184.65C1198.68 183.037 1199.93 180.947 1199.93 178.38C1199.93 176.18 1199.34 174.493 1198.17 173.32C1196.99 172.147 1195.45 171.34 1193.55 170.9C1191.71 170.46 1189.07 170.02 1185.63 169.58C1180.79 168.993 1176.83 168.223 1173.75 167.27C1170.67 166.317 1168.17 164.813 1166.27 162.76C1164.36 160.633 1163.41 157.737 1163.41 154.07C1163.41 150.77 1164.32 147.837 1166.16 145.27C1168.06 142.703 1170.63 140.723 1173.86 139.33C1177.08 137.863 1180.71 137.13 1184.75 137.13C1191.35 137.13 1196.7 138.67 1200.81 141.75C1204.99 144.83 1207.3 149.23 1207.74 154.95H1198.72C1198.35 152.017 1196.92 149.597 1194.43 147.69C1191.93 145.783 1188.82 144.83 1185.08 144.83C1181.26 144.83 1178.18 145.637 1175.84 147.25C1173.49 148.79 1172.32 150.843 1172.32 153.41C1172.32 155.317 1172.87 156.783 1173.97 157.81C1175.07 158.837 1176.46 159.533 1178.15 159.9C1179.91 160.267 1182.55 160.67 1186.07 161.11C1190.98 161.697 1195.01 162.503 1198.17 163.53C1201.39 164.557 1203.96 166.207 1205.87 168.48C1207.85 170.753 1208.84 173.833 1208.84 177.72C1208.84 181.093 1207.85 184.063 1205.87 186.63C1203.89 189.197 1201.21 191.177 1197.84 192.57C1194.46 193.963 1190.72 194.66 1186.62 194.66C1179.28 194.66 1173.38 192.973 1168.91 189.6C1164.51 186.227 1162.27 181.533 1162.2 175.52H1171.22ZM1217.09 165.95C1217.09 160.23 1218.19 155.207 1220.39 150.88C1222.66 146.553 1225.82 143.217 1229.85 140.87C1233.88 138.45 1238.5 137.24 1243.71 137.24C1248.84 137.24 1253.39 138.303 1257.35 140.43C1261.31 142.557 1264.43 145.637 1266.7 149.67C1268.97 153.703 1270.18 158.433 1270.33 163.86C1270.33 164.667 1270.26 165.95 1270.11 167.71H1226.55V168.48C1226.7 173.98 1228.38 178.38 1231.61 181.68C1234.84 184.98 1239.05 186.63 1244.26 186.63C1248.29 186.63 1251.7 185.64 1254.49 183.66C1257.35 181.607 1259.26 178.783 1260.21 175.19H1269.34C1268.24 180.91 1265.49 185.603 1261.09 189.27C1256.69 192.863 1251.3 194.66 1244.92 194.66C1239.35 194.66 1234.47 193.487 1230.29 191.14C1226.11 188.72 1222.85 185.347 1220.5 181.02C1218.23 176.62 1217.09 171.597 1217.09 165.95ZM1260.98 160.23C1260.54 155.463 1258.74 151.76 1255.59 149.12C1252.51 146.48 1248.59 145.16 1243.82 145.16C1239.57 145.16 1235.83 146.553 1232.6 149.34C1229.37 152.127 1227.54 155.757 1227.1 160.23H1260.98Z"/>
</mask>
<path d="M891.21 194L920.58 117H931.91L961.17 194H950.94L942.8 173.21H909.25L901.11 194H891.21ZM912.11 164.52H939.94L925.97 127.45L912.11 164.52ZM996.062 137.24C1002.88 137.24 1008.35 139.293 1012.45 143.4C1016.63 147.507 1018.72 153.96 1018.72 162.76V194H1009.7V163.31C1009.7 157.517 1008.38 153.117 1005.74 150.11C1003.18 147.03 999.436 145.49 994.522 145.49C989.242 145.49 985.099 147.323 982.092 150.99C979.086 154.657 977.582 159.643 977.582 165.95V194H968.562V137.9H976.372L977.582 145.49C981.836 139.99 987.996 137.24 996.062 137.24ZM1082.69 185.75V194H1077.74C1074.15 194 1071.58 193.267 1070.04 191.8C1068.5 190.333 1067.7 188.17 1067.62 185.31C1063.3 191.543 1057.03 194.66 1048.81 194.66C1042.58 194.66 1037.56 193.193 1033.74 190.26C1030 187.327 1028.13 183.33 1028.13 178.27C1028.13 172.623 1030.04 168.297 1033.85 165.29C1037.74 162.283 1043.35 160.78 1050.68 160.78H1067.18V156.93C1067.18 153.263 1065.94 150.403 1063.44 148.35C1061.02 146.297 1057.61 145.27 1053.21 145.27C1049.33 145.27 1046.1 146.15 1043.53 147.91C1041.04 149.597 1039.5 151.87 1038.91 154.73H1029.89C1030.55 149.23 1032.97 144.94 1037.15 141.86C1041.41 138.78 1046.91 137.24 1053.65 137.24C1060.84 137.24 1066.38 139 1070.26 142.52C1074.22 145.967 1076.2 150.953 1076.2 157.48V181.68C1076.2 184.393 1077.45 185.75 1079.94 185.75H1082.69ZM1067.18 168.37H1049.8C1041.44 168.37 1037.26 171.487 1037.26 177.72C1037.26 180.507 1038.36 182.743 1040.56 184.43C1042.76 186.117 1045.73 186.96 1049.47 186.96C1054.97 186.96 1059.3 185.53 1062.45 182.67C1065.61 179.737 1067.18 175.887 1067.18 171.12V168.37ZM1089.63 117H1098.65V194H1089.63V117ZM1114.96 137.9L1132.23 183.66L1148.95 137.9H1158.52L1132.67 203.46C1131.35 206.833 1130.18 209.363 1129.15 211.05C1128.13 212.737 1126.84 213.983 1125.3 214.79C1123.76 215.597 1121.71 216 1119.14 216H1108.36V207.75H1116.39C1118.15 207.75 1119.47 207.567 1120.35 207.2C1121.23 206.833 1121.93 206.21 1122.44 205.33C1123.03 204.523 1123.73 203.13 1124.53 201.15L1127.39 194.44L1105.39 137.9H1114.96ZM1171.22 175.52C1171.36 178.893 1172.83 181.643 1175.62 183.77C1178.48 185.897 1182.14 186.96 1186.62 186.96C1190.58 186.96 1193.77 186.19 1196.19 184.65C1198.68 183.037 1199.93 180.947 1199.93 178.38C1199.93 176.18 1199.34 174.493 1198.17 173.32C1196.99 172.147 1195.45 171.34 1193.55 170.9C1191.71 170.46 1189.07 170.02 1185.63 169.58C1180.79 168.993 1176.83 168.223 1173.75 167.27C1170.67 166.317 1168.17 164.813 1166.27 162.76C1164.36 160.633 1163.41 157.737 1163.41 154.07C1163.41 150.77 1164.32 147.837 1166.16 145.27C1168.06 142.703 1170.63 140.723 1173.86 139.33C1177.08 137.863 1180.71 137.13 1184.75 137.13C1191.35 137.13 1196.7 138.67 1200.81 141.75C1204.99 144.83 1207.3 149.23 1207.74 154.95H1198.72C1198.35 152.017 1196.92 149.597 1194.43 147.69C1191.93 145.783 1188.82 144.83 1185.08 144.83C1181.26 144.83 1178.18 145.637 1175.84 147.25C1173.49 148.79 1172.32 150.843 1172.32 153.41C1172.32 155.317 1172.87 156.783 1173.97 157.81C1175.07 158.837 1176.46 159.533 1178.15 159.9C1179.91 160.267 1182.55 160.67 1186.07 161.11C1190.98 161.697 1195.01 162.503 1198.17 163.53C1201.39 164.557 1203.96 166.207 1205.87 168.48C1207.85 170.753 1208.84 173.833 1208.84 177.72C1208.84 181.093 1207.85 184.063 1205.87 186.63C1203.89 189.197 1201.21 191.177 1197.84 192.57C1194.46 193.963 1190.72 194.66 1186.62 194.66C1179.28 194.66 1173.38 192.973 1168.91 189.6C1164.51 186.227 1162.27 181.533 1162.2 175.52H1171.22ZM1217.09 165.95C1217.09 160.23 1218.19 155.207 1220.39 150.88C1222.66 146.553 1225.82 143.217 1229.85 140.87C1233.88 138.45 1238.5 137.24 1243.71 137.24C1248.84 137.24 1253.39 138.303 1257.35 140.43C1261.31 142.557 1264.43 145.637 1266.7 149.67C1268.97 153.703 1270.18 158.433 1270.33 163.86C1270.33 164.667 1270.26 165.95 1270.11 167.71H1226.55V168.48C1226.7 173.98 1228.38 178.38 1231.61 181.68C1234.84 184.98 1239.05 186.63 1244.26 186.63C1248.29 186.63 1251.7 185.64 1254.49 183.66C1257.35 181.607 1259.26 178.783 1260.21 175.19H1269.34C1268.24 180.91 1265.49 185.603 1261.09 189.27C1256.69 192.863 1251.3 194.66 1244.92 194.66C1239.35 194.66 1234.47 193.487 1230.29 191.14C1226.11 188.72 1222.85 185.347 1220.5 181.02C1218.23 176.62 1217.09 171.597 1217.09 165.95ZM1260.98 160.23C1260.54 155.463 1258.74 151.76 1255.59 149.12C1252.51 146.48 1248.59 145.16 1243.82 145.16C1239.57 145.16 1235.83 146.553 1232.6 149.34C1229.37 152.127 1227.54 155.757 1227.1 160.23H1260.98Z" fill="white"/>
<path d="M891.21 194L890.276 193.644L889.758 195H891.21V194ZM920.58 117V116H919.891L919.646 116.644L920.58 117ZM931.91 117L932.845 116.645L932.6 116H931.91V117ZM961.17 194V195H962.62L962.105 193.645L961.17 194ZM950.94 194L950.009 194.365L950.258 195H950.94V194ZM942.8 173.21L943.731 172.845L943.482 172.21H942.8V173.21ZM909.25 173.21V172.21H908.568L908.319 172.845L909.25 173.21ZM901.11 194V195H901.792L902.041 194.365L901.11 194ZM912.11 164.52L911.173 164.17L910.669 165.52H912.11V164.52ZM939.94 164.52V165.52H941.386L940.876 164.167L939.94 164.52ZM925.97 127.45L926.906 127.097L925.966 124.604L925.033 127.1L925.97 127.45ZM891.21 194L892.144 194.356L921.514 117.356L920.58 117L919.646 116.644L890.276 193.644L891.21 194ZM920.58 117V118H931.91V117V116H920.58V117ZM931.91 117L930.975 117.355L960.235 194.355L961.17 194L962.105 193.645L932.845 116.645L931.91 117ZM961.17 194V193H950.94V194V195H961.17V194ZM950.94 194L951.871 193.635L943.731 172.845L942.8 173.21L941.869 173.575L950.009 194.365L950.94 194ZM942.8 173.21V172.21H909.25V173.21V174.21H942.8V173.21ZM909.25 173.21L908.319 172.845L900.179 193.635L901.11 194L902.041 194.365L910.181 173.575L909.25 173.21ZM901.11 194V193H891.21V194V195H901.11V194ZM912.11 164.52V165.52H939.94V164.52V163.52H912.11V164.52ZM939.94 164.52L940.876 164.167L926.906 127.097L925.97 127.45L925.034 127.803L939.004 164.873L939.94 164.52ZM925.97 127.45L925.033 127.1L911.173 164.17L912.11 164.52L913.047 164.87L926.907 127.8L925.97 127.45ZM1012.45 143.4L1011.75 144.107L1011.75 144.113L1012.45 143.4ZM1018.72 194V195H1019.72V194H1018.72ZM1009.7 194H1008.7V195H1009.7V194ZM1005.74 150.11L1004.97 150.75L1004.98 150.76L1004.99 150.77L1005.74 150.11ZM982.092 150.99L981.319 150.356L981.319 150.356L982.092 150.99ZM977.582 194V195H978.582V194H977.582ZM968.562 194H967.562V195H968.562V194ZM968.562 137.9V136.9H967.562V137.9H968.562ZM976.372 137.9L977.36 137.743L977.226 136.9H976.372V137.9ZM977.582 145.49L976.595 145.647L976.959 147.931L978.373 146.102L977.582 145.49ZM996.062 137.24V138.24C1002.67 138.24 1007.86 140.22 1011.75 144.107L1012.45 143.4L1013.16 142.693C1008.83 138.366 1003.1 136.24 996.062 136.24V137.24ZM1012.45 143.4L1011.75 144.113C1015.66 147.956 1017.72 154.095 1017.72 162.76H1018.72H1019.72C1019.72 153.825 1017.6 147.058 1013.15 142.687L1012.45 143.4ZM1018.72 162.76H1017.72V194H1018.72H1019.72V162.76H1018.72ZM1018.72 194V193H1009.7V194V195H1018.72V194ZM1009.7 194H1010.7V163.31H1009.7H1008.7V194H1009.7ZM1009.7 163.31H1010.7C1010.7 157.381 1009.35 152.706 1006.49 149.45L1005.74 150.11L1004.99 150.77C1007.41 153.527 1008.7 157.653 1008.7 163.31H1009.7ZM1005.74 150.11L1006.51 149.47C1003.71 146.111 999.659 144.49 994.522 144.49V145.49V146.49C999.212 146.49 1002.64 147.949 1004.97 150.75L1005.74 150.11ZM994.522 145.49V144.49C988.981 144.49 984.539 146.429 981.319 150.356L982.092 150.99L982.866 151.624C985.659 148.217 989.503 146.49 994.522 146.49V145.49ZM982.092 150.99L981.319 150.356C978.124 154.253 976.582 159.489 976.582 165.95H977.582H978.582C978.582 159.798 980.048 155.06 982.866 151.624L982.092 150.99ZM977.582 165.95H976.582V194H977.582H978.582V165.95H977.582ZM977.582 194V193H968.562V194V195H977.582V194ZM968.562 194H969.562V137.9H968.562H967.562V194H968.562ZM968.562 137.9V138.9H976.372V137.9V136.9H968.562V137.9ZM976.372 137.9L975.385 138.057L976.595 145.647L977.582 145.49L978.57 145.333L977.36 137.743L976.372 137.9ZM977.582 145.49L978.373 146.102C982.406 140.888 988.249 138.24 996.062 138.24V137.24V136.24C987.742 136.24 981.266 139.092 976.791 144.878L977.582 145.49ZM1082.69 185.75H1083.69V184.75H1082.69V185.75ZM1082.69 194V195H1083.69V194H1082.69ZM1067.62 185.31L1068.62 185.284L1068.54 182.229L1066.8 184.74L1067.62 185.31ZM1033.74 190.26L1033.13 191.047L1033.13 191.053L1033.74 190.26ZM1033.85 165.29L1033.24 164.499L1033.23 164.505L1033.85 165.29ZM1067.18 160.78V161.78H1068.18V160.78H1067.18ZM1063.44 148.35L1062.8 149.113L1062.8 149.117L1062.81 149.122L1063.44 148.35ZM1043.53 147.91L1044.09 148.738L1044.1 148.735L1043.53 147.91ZM1038.91 154.73V155.73H1039.73L1039.89 154.931L1038.91 154.73ZM1029.89 154.73L1028.9 154.611L1028.77 155.73H1029.89V154.73ZM1037.15 141.86L1036.57 141.05L1036.56 141.055L1037.15 141.86ZM1070.26 142.52L1069.59 143.261L1069.6 143.268L1069.61 143.274L1070.26 142.52ZM1067.18 168.37H1068.18V167.37H1067.18V168.37ZM1062.45 182.67L1063.12 183.411L1063.13 183.402L1062.45 182.67ZM1082.69 185.75H1081.69V194H1082.69H1083.69V185.75H1082.69ZM1082.69 194V193H1077.74V194V195H1082.69V194ZM1077.74 194V193C1074.24 193 1071.99 192.277 1070.73 191.076L1070.04 191.8L1069.35 192.524C1071.17 194.256 1074.06 195 1077.74 195V194ZM1070.04 191.8L1070.73 191.076C1069.44 189.848 1068.69 187.974 1068.62 185.284L1067.62 185.31L1066.62 185.336C1066.7 188.366 1067.56 190.819 1069.35 192.524L1070.04 191.8ZM1067.62 185.31L1066.8 184.74C1062.68 190.679 1056.73 193.66 1048.81 193.66V194.66V195.66C1057.32 195.66 1063.91 192.408 1068.44 185.88L1067.62 185.31ZM1048.81 194.66V193.66C1042.73 193.66 1037.95 192.231 1034.35 189.467L1033.74 190.26L1033.13 191.053C1037.17 194.156 1042.42 195.66 1048.81 195.66V194.66ZM1033.74 190.26L1034.36 189.473C1030.88 186.743 1029.13 183.046 1029.13 178.27H1028.13H1027.13C1027.13 183.614 1029.13 187.91 1033.13 191.047L1033.74 190.26ZM1028.13 178.27H1029.13C1029.13 172.874 1030.94 168.86 1034.47 166.075L1033.85 165.29L1033.23 164.505C1029.14 167.733 1027.13 172.373 1027.13 178.27H1028.13ZM1033.85 165.29L1034.46 166.081C1038.11 163.262 1043.47 161.78 1050.68 161.78V160.78V159.78C1043.23 159.78 1037.37 161.305 1033.24 164.499L1033.85 165.29ZM1050.68 160.78V161.78H1067.18V160.78V159.78H1050.68V160.78ZM1067.18 160.78H1068.18V156.93H1067.18H1066.18V160.78H1067.18ZM1067.18 156.93H1068.18C1068.18 153.01 1066.84 149.848 1064.08 147.578L1063.44 148.35L1062.81 149.122C1065.04 150.958 1066.18 153.517 1066.18 156.93H1067.18ZM1063.44 148.35L1064.09 147.587C1061.43 145.331 1057.76 144.27 1053.21 144.27V145.27V146.27C1057.47 146.27 1060.62 147.263 1062.8 149.113L1063.44 148.35ZM1053.21 145.27V144.27C1049.17 144.27 1045.74 145.186 1042.97 147.085L1043.53 147.91L1044.1 148.735C1046.46 147.114 1049.48 146.27 1053.21 146.27V145.27ZM1043.53 147.91L1042.97 147.082C1040.27 148.91 1038.57 151.404 1037.93 154.529L1038.91 154.73L1039.89 154.931C1040.42 152.336 1041.81 150.284 1044.09 148.738L1043.53 147.91ZM1038.91 154.73V153.73H1029.89V154.73V155.73H1038.91V154.73ZM1029.89 154.73L1030.89 154.849C1031.51 149.603 1033.8 145.569 1037.75 142.665L1037.15 141.86L1036.56 141.055C1032.14 144.311 1029.59 148.857 1028.9 154.611L1029.89 154.73ZM1037.15 141.86L1037.74 142.67C1041.78 139.745 1047.06 138.24 1053.65 138.24V137.24V136.24C1046.76 136.24 1041.03 137.815 1036.57 141.05L1037.15 141.86ZM1053.65 137.24V138.24C1060.68 138.24 1065.95 139.961 1069.59 143.261L1070.26 142.52L1070.93 141.779C1066.8 138.039 1060.99 136.24 1053.65 136.24V137.24ZM1070.26 142.52L1069.61 143.274C1073.3 146.486 1075.2 151.166 1075.2 157.48H1076.2H1077.2C1077.2 150.74 1075.15 145.447 1070.92 141.766L1070.26 142.52ZM1076.2 157.48H1075.2V181.68H1076.2H1077.2V157.48H1076.2ZM1076.2 181.68H1075.2C1075.2 183.171 1075.54 184.475 1076.4 185.409C1077.27 186.359 1078.52 186.75 1079.94 186.75V185.75V184.75C1078.87 184.75 1078.25 184.463 1077.87 184.056C1077.49 183.633 1077.2 182.902 1077.2 181.68H1076.2ZM1079.94 185.75V186.75H1082.69V185.75V184.75H1079.94V185.75ZM1067.18 168.37V167.37H1049.8V168.37V169.37H1067.18V168.37ZM1049.8 168.37V167.37C1045.53 167.37 1042.14 168.162 1039.8 169.906C1037.41 171.691 1036.26 174.357 1036.26 177.72H1037.26H1038.26C1038.26 174.85 1039.21 172.841 1041 171.509C1042.84 170.137 1045.72 169.37 1049.8 169.37V168.37ZM1037.26 177.72H1036.26C1036.26 180.816 1037.51 183.347 1039.95 185.224L1040.56 184.43L1041.17 183.636C1039.22 182.14 1038.26 180.198 1038.26 177.72H1037.26ZM1040.56 184.43L1039.95 185.224C1042.38 187.084 1045.59 187.96 1049.47 187.96V186.96V185.96C1045.88 185.96 1043.14 185.149 1041.17 183.636L1040.56 184.43ZM1049.47 186.96V187.96C1055.15 187.96 1059.74 186.482 1063.12 183.411L1062.45 182.67L1061.78 181.929C1058.86 184.578 1054.8 185.96 1049.47 185.96V186.96ZM1062.45 182.67L1063.13 183.402C1066.51 180.258 1068.18 176.132 1068.18 171.12H1067.18H1066.18C1066.18 175.642 1064.7 179.215 1061.77 181.938L1062.45 182.67ZM1067.18 171.12H1068.18V168.37H1067.18H1066.18V171.12H1067.18ZM1089.63 117V116H1088.63V117H1089.63ZM1098.65 117H1099.65V116H1098.65V117ZM1098.65 194V195H1099.65V194H1098.65ZM1089.63 194H1088.63V195H1089.63V194ZM1089.63 117V118H1098.65V117V116H1089.63V117ZM1098.65 117H1097.65V194H1098.65H1099.65V117H1098.65ZM1098.65 194V193H1089.63V194V195H1098.65V194ZM1089.63 194H1090.63V117H1089.63H1088.63V194H1089.63ZM1114.96 137.9L1115.9 137.547L1115.66 136.9H1114.96V137.9ZM1132.23 183.66L1131.3 184.013L1132.25 186.532L1133.17 184.003L1132.23 183.66ZM1148.95 137.9V136.9H1148.25L1148.01 137.557L1148.95 137.9ZM1158.52 137.9L1159.45 138.267L1159.99 136.9H1158.52V137.9ZM1132.67 203.46L1131.74 203.093L1131.74 203.096L1132.67 203.46ZM1125.3 214.79L1125.77 215.676L1125.77 215.676L1125.3 214.79ZM1108.36 216H1107.36V217H1108.36V216ZM1108.36 207.75V206.75H1107.36V207.75H1108.36ZM1120.35 207.2L1120.74 208.123L1120.74 208.123L1120.35 207.2ZM1122.44 205.33L1121.64 204.742L1121.61 204.783L1121.58 204.826L1122.44 205.33ZM1124.53 201.15L1123.61 200.758L1123.61 200.765L1123.61 200.773L1124.53 201.15ZM1127.39 194.44L1128.31 194.832L1128.47 194.457L1128.33 194.077L1127.39 194.44ZM1105.39 137.9V136.9H1103.93L1104.46 138.263L1105.39 137.9ZM1114.96 137.9L1114.03 138.253L1131.3 184.013L1132.23 183.66L1133.17 183.307L1115.9 137.547L1114.96 137.9ZM1132.23 183.66L1133.17 184.003L1149.89 138.243L1148.95 137.9L1148.01 137.557L1131.29 183.317L1132.23 183.66ZM1148.95 137.9V138.9H1158.52V137.9V136.9H1148.95V137.9ZM1158.52 137.9L1157.59 137.533L1131.74 203.093L1132.67 203.46L1133.6 203.827L1159.45 138.267L1158.52 137.9ZM1132.67 203.46L1131.74 203.096C1130.43 206.452 1129.28 208.918 1128.3 210.53L1129.15 211.05L1130.01 211.57C1131.08 209.809 1132.28 207.215 1133.6 203.824L1132.67 203.46ZM1129.15 211.05L1128.3 210.53C1127.35 212.083 1126.2 213.193 1124.84 213.904L1125.3 214.79L1125.77 215.676C1127.49 214.774 1128.9 213.39 1130.01 211.57L1129.15 211.05ZM1125.3 214.79L1124.84 213.904C1123.49 214.609 1121.62 215 1119.14 215V216V217C1121.8 217 1124.03 216.585 1125.77 215.676L1125.3 214.79ZM1119.14 216V215H1108.36V216V217H1119.14V216ZM1108.36 216H1109.36V207.75H1108.36H1107.36V216H1108.36ZM1108.36 207.75V208.75H1116.39V207.75V206.75H1108.36V207.75ZM1116.39 207.75V208.75C1118.19 208.75 1119.67 208.567 1120.74 208.123L1120.35 207.2L1119.97 206.277C1119.27 206.566 1118.11 206.75 1116.39 206.75V207.75ZM1120.35 207.2L1120.74 208.123C1121.83 207.667 1122.69 206.888 1123.31 205.834L1122.44 205.33L1121.58 204.826C1121.17 205.532 1120.63 206 1119.97 206.277L1120.35 207.2ZM1122.44 205.33L1123.25 205.918C1123.92 205.007 1124.65 203.517 1125.46 201.527L1124.53 201.15L1123.61 200.773C1122.8 202.743 1122.15 204.04 1121.64 204.742L1122.44 205.33ZM1124.53 201.15L1125.45 201.542L1128.31 194.832L1127.39 194.44L1126.47 194.048L1123.61 200.758L1124.53 201.15ZM1127.39 194.44L1128.33 194.077L1106.33 137.537L1105.39 137.9L1104.46 138.263L1126.46 194.803L1127.39 194.44ZM1105.39 137.9V138.9H1114.96V137.9V136.9H1105.39V137.9ZM1171.22 175.52L1172.22 175.477L1172.18 174.52H1171.22V175.52ZM1175.62 183.77L1175.01 184.565L1175.02 184.572L1175.62 183.77ZM1196.19 184.65L1196.72 185.494L1196.73 185.49L1196.19 184.65ZM1193.55 170.9L1193.31 171.872L1193.32 171.874L1193.55 170.9ZM1185.63 169.58L1185.75 168.588L1185.75 168.587L1185.63 169.58ZM1173.75 167.27L1174.04 166.315L1174.04 166.315L1173.75 167.27ZM1166.27 162.76L1165.52 163.428L1165.53 163.434L1165.53 163.44L1166.27 162.76ZM1166.16 145.27L1165.35 144.674L1165.35 144.681L1165.34 144.689L1166.16 145.27ZM1173.86 139.33L1174.25 140.248L1174.26 140.244L1174.27 140.24L1173.86 139.33ZM1200.81 141.75L1200.21 142.55L1200.21 142.555L1200.81 141.75ZM1207.74 154.95V155.95H1208.82L1208.73 154.873L1207.74 154.95ZM1198.72 154.95L1197.73 155.074L1197.83 155.95H1198.72V154.95ZM1194.43 147.69L1195.04 146.896L1195.04 146.896L1194.43 147.69ZM1175.84 147.25L1176.39 148.086L1176.4 148.08L1176.4 148.074L1175.84 147.25ZM1178.15 159.9L1177.94 160.877L1177.94 160.879L1178.15 159.9ZM1186.07 161.11L1185.94 162.102L1185.95 162.103L1186.07 161.11ZM1198.17 163.53L1197.86 164.481L1197.86 164.483L1198.17 163.53ZM1205.87 168.48L1205.1 169.123L1205.11 169.13L1205.11 169.137L1205.87 168.48ZM1205.87 186.63L1206.66 187.241L1206.66 187.241L1205.87 186.63ZM1197.84 192.57L1198.22 193.494L1198.22 193.494L1197.84 192.57ZM1168.91 189.6L1168.3 190.394L1168.31 190.398L1168.91 189.6ZM1162.2 175.52V174.52H1161.19L1161.2 175.532L1162.2 175.52ZM1171.22 175.52L1170.22 175.563C1170.38 179.246 1172 182.266 1175.01 184.565L1175.62 183.77L1176.22 182.975C1173.66 181.02 1172.35 178.541 1172.22 175.477L1171.22 175.52ZM1175.62 183.77L1175.02 184.572C1178.09 186.857 1181.98 187.96 1186.62 187.96V186.96V185.96C1182.3 185.96 1178.86 184.936 1176.21 182.968L1175.62 183.77ZM1186.62 186.96V187.96C1190.7 187.96 1194.09 187.168 1196.72 185.494L1196.19 184.65L1195.65 183.806C1193.44 185.212 1190.46 185.96 1186.62 185.96V186.96ZM1196.19 184.65L1196.73 185.49C1199.46 183.726 1200.93 181.344 1200.93 178.38H1199.93H1198.93C1198.93 180.55 1197.91 182.348 1195.64 183.81L1196.19 184.65ZM1199.93 178.38H1200.93C1200.93 176.004 1200.29 174.029 1198.87 172.613L1198.17 173.32L1197.46 174.027C1198.39 174.958 1198.93 176.356 1198.93 178.38H1199.93ZM1198.17 173.32L1198.87 172.613C1197.55 171.285 1195.83 170.4 1193.77 169.926L1193.55 170.9L1193.32 171.874C1195.08 172.28 1196.44 173.008 1197.46 174.027L1198.17 173.32ZM1193.55 170.9L1193.78 169.928C1191.89 169.475 1189.21 169.03 1185.75 168.588L1185.63 169.58L1185.5 170.572C1188.94 171.01 1191.53 171.445 1193.31 171.872L1193.55 170.9ZM1185.63 169.58L1185.75 168.587C1180.94 168.005 1177.04 167.244 1174.04 166.315L1173.75 167.27L1173.45 168.225C1176.61 169.203 1180.63 169.982 1185.51 170.573L1185.63 169.58ZM1173.75 167.27L1174.04 166.315C1171.1 165.405 1168.77 163.986 1167 162.08L1166.27 162.76L1165.53 163.44C1167.58 165.64 1170.23 167.228 1173.45 168.225L1173.75 167.27ZM1166.27 162.76L1167.01 162.092C1165.31 160.197 1164.41 157.562 1164.41 154.07H1163.41H1162.41C1162.41 157.911 1163.41 161.07 1165.52 163.428L1166.27 162.76ZM1163.41 154.07H1164.41C1164.41 150.968 1165.26 148.24 1166.97 145.851L1166.16 145.27L1165.34 144.689C1163.38 147.433 1162.41 150.572 1162.41 154.07H1163.41ZM1166.16 145.27L1166.96 145.866C1168.75 143.454 1171.17 141.579 1174.25 140.248L1173.86 139.33L1173.46 138.412C1170.09 139.868 1167.38 141.952 1165.35 144.674L1166.16 145.27ZM1173.86 139.33L1174.27 140.24C1177.35 138.84 1180.84 138.13 1184.75 138.13V137.13V136.13C1180.59 136.13 1176.82 136.886 1173.44 138.42L1173.86 139.33ZM1184.75 137.13V138.13C1191.19 138.13 1196.32 139.633 1200.21 142.55L1200.81 141.75L1201.41 140.95C1197.08 137.707 1191.5 136.13 1184.75 136.13V137.13ZM1200.81 141.75L1200.21 142.555C1204.13 145.443 1206.32 149.562 1206.74 155.027L1207.74 154.95L1208.73 154.873C1208.27 148.898 1205.84 144.217 1201.4 140.945L1200.81 141.75ZM1207.74 154.95V153.95H1198.72V154.95V155.95H1207.74V154.95ZM1198.72 154.95L1199.71 154.826C1199.31 151.609 1197.73 148.954 1195.04 146.896L1194.43 147.69L1193.82 148.484C1196.12 150.239 1197.39 152.424 1197.73 155.074L1198.72 154.95ZM1194.43 147.69L1195.04 146.896C1192.34 144.831 1188.99 143.83 1185.08 143.83V144.83V145.83C1188.64 145.83 1191.53 146.735 1193.82 148.484L1194.43 147.69ZM1185.08 144.83V143.83C1181.13 143.83 1177.83 144.665 1175.27 146.426L1175.84 147.25L1176.4 148.074C1178.54 146.608 1181.4 145.83 1185.08 145.83V144.83ZM1175.84 147.25L1175.29 146.414C1172.69 148.118 1171.32 150.471 1171.32 153.41H1172.32H1173.32C1173.32 151.216 1174.29 149.462 1176.39 148.086L1175.84 147.25ZM1172.32 153.41H1171.32C1171.32 155.515 1171.93 157.278 1173.29 158.541L1173.97 157.81L1174.65 157.079C1173.8 156.289 1173.32 155.118 1173.32 153.41H1172.32ZM1173.97 157.81L1173.29 158.541C1174.54 159.708 1176.1 160.478 1177.94 160.877L1178.15 159.9L1178.36 158.923C1176.82 158.589 1175.6 157.966 1174.65 157.079L1173.97 157.81ZM1178.15 159.9L1177.94 160.879C1179.74 161.254 1182.42 161.661 1185.94 162.102L1186.07 161.11L1186.19 160.118C1182.68 159.679 1180.07 159.279 1178.35 158.921L1178.15 159.9ZM1186.07 161.11L1185.95 162.103C1190.83 162.685 1194.79 163.482 1197.86 164.481L1198.17 163.53L1198.48 162.579C1195.24 161.525 1191.14 160.708 1186.19 160.117L1186.07 161.11ZM1198.17 163.53L1197.86 164.483C1200.94 165.46 1203.33 167.014 1205.1 169.123L1205.87 168.48L1206.63 167.837C1204.59 165.399 1201.85 163.653 1198.47 162.577L1198.17 163.53ZM1205.87 168.48L1205.11 169.137C1206.89 171.181 1207.84 174.003 1207.84 177.72H1208.84H1209.84C1209.84 173.663 1208.8 170.326 1206.62 167.823L1205.87 168.48ZM1208.84 177.72H1207.84C1207.84 180.882 1206.92 183.635 1205.08 186.019L1205.87 186.63L1206.66 187.241C1208.78 184.492 1209.84 181.305 1209.84 177.72H1208.84ZM1205.87 186.63L1205.08 186.019C1203.22 188.431 1200.69 190.311 1197.46 191.646L1197.84 192.57L1198.22 193.494C1201.73 192.043 1204.56 189.963 1206.66 187.241L1205.87 186.63ZM1197.84 192.57L1197.46 191.646C1194.22 192.983 1190.61 193.66 1186.62 193.66V194.66V195.66C1190.84 195.66 1194.71 194.943 1198.22 193.494L1197.84 192.57ZM1186.62 194.66V193.66C1179.43 193.66 1173.76 192.009 1169.51 188.802L1168.91 189.6L1168.31 190.398C1173 193.938 1179.13 195.66 1186.62 195.66V194.66ZM1168.91 189.6L1169.52 188.806C1165.38 185.637 1163.27 181.244 1163.2 175.508L1162.2 175.52L1161.2 175.532C1161.27 181.822 1163.63 186.816 1168.3 190.394L1168.91 189.6ZM1162.2 175.52V176.52H1171.22V175.52V174.52H1162.2V175.52ZM1220.39 150.88L1219.5 150.415L1219.5 150.427L1220.39 150.88ZM1229.85 140.87L1230.35 141.734L1230.36 141.727L1229.85 140.87ZM1257.35 140.43L1256.88 141.311L1256.88 141.311L1257.35 140.43ZM1266.7 149.67L1265.83 150.161L1265.83 150.161L1266.7 149.67ZM1270.33 163.86H1271.33V163.846L1271.33 163.833L1270.33 163.86ZM1270.11 167.71V168.71H1271.03L1271.11 167.793L1270.11 167.71ZM1226.55 167.71V166.71H1225.55V167.71H1226.55ZM1226.55 168.48H1225.55V168.493L1225.55 168.507L1226.55 168.48ZM1231.61 181.68L1230.9 182.379L1230.9 182.379L1231.61 181.68ZM1254.49 183.66L1255.07 184.475L1255.07 184.472L1254.49 183.66ZM1260.21 175.19V174.19H1259.44L1259.24 174.934L1260.21 175.19ZM1269.34 175.19L1270.32 175.379L1270.55 174.19H1269.34V175.19ZM1261.09 189.27L1261.72 190.045L1261.73 190.038L1261.09 189.27ZM1230.29 191.14L1229.79 192.006L1229.8 192.012L1230.29 191.14ZM1220.5 181.02L1219.61 181.479L1219.62 181.488L1219.62 181.497L1220.5 181.02ZM1260.98 160.23V161.23H1262.08L1261.98 160.138L1260.98 160.23ZM1255.59 149.12L1254.94 149.879L1254.95 149.887L1255.59 149.12ZM1232.6 149.34L1233.25 150.097L1233.25 150.097L1232.6 149.34ZM1227.1 160.23L1226.1 160.132L1226 161.23H1227.1V160.23ZM1217.09 165.95H1218.09C1218.09 160.36 1219.16 155.496 1221.28 151.333L1220.39 150.88L1219.5 150.427C1217.22 154.917 1216.09 160.1 1216.09 165.95H1217.09ZM1220.39 150.88L1221.28 151.345C1223.47 147.177 1226.49 143.982 1230.35 141.734L1229.85 140.87L1229.35 140.006C1225.14 142.451 1221.86 145.93 1219.5 150.415L1220.39 150.88ZM1229.85 140.87L1230.36 141.727C1234.23 139.41 1238.66 138.24 1243.71 138.24V137.24V136.24C1238.34 136.24 1233.54 137.49 1229.34 140.013L1229.85 140.87ZM1243.71 137.24V138.24C1248.7 138.24 1253.08 139.273 1256.88 141.311L1257.35 140.43L1257.82 139.549C1253.7 137.334 1248.98 136.24 1243.71 136.24V137.24ZM1257.35 140.43L1256.88 141.311C1260.66 143.345 1263.65 146.288 1265.83 150.161L1266.7 149.67L1267.57 149.179C1265.21 144.986 1261.96 141.768 1257.82 139.549L1257.35 140.43ZM1266.7 149.67L1265.83 150.161C1268.01 154.03 1269.19 158.595 1269.33 163.887L1270.33 163.86L1271.33 163.833C1271.18 158.272 1269.94 153.377 1267.57 149.179L1266.7 149.67ZM1270.33 163.86H1269.33C1269.33 164.622 1269.26 165.87 1269.11 167.627L1270.11 167.71L1271.11 167.793C1271.25 166.03 1271.33 164.711 1271.33 163.86H1270.33ZM1270.11 167.71V166.71H1226.55V167.71V168.71H1270.11V167.71ZM1226.55 167.71H1225.55V168.48H1226.55H1227.55V167.71H1226.55ZM1226.55 168.48L1225.55 168.507C1225.7 174.207 1227.46 178.865 1230.9 182.379L1231.61 181.68L1232.33 180.981C1229.31 177.895 1227.69 173.753 1227.55 168.453L1226.55 168.48ZM1231.61 181.68L1230.9 182.379C1234.33 185.897 1238.82 187.63 1244.26 187.63V186.63V185.63C1239.28 185.63 1235.34 184.063 1232.33 180.981L1231.61 181.68ZM1244.26 186.63V187.63C1248.46 187.63 1252.08 186.596 1255.07 184.475L1254.49 183.66L1253.91 182.845C1251.32 184.684 1248.12 185.63 1244.26 185.63V186.63ZM1254.49 183.66L1255.07 184.472C1258.13 182.276 1260.17 179.25 1261.18 175.446L1260.21 175.19L1259.24 174.934C1258.35 178.316 1256.57 180.938 1253.91 182.848L1254.49 183.66ZM1260.21 175.19V176.19H1269.34V175.19V174.19H1260.21V175.19ZM1269.34 175.19L1268.36 175.001C1267.3 180.499 1264.67 184.986 1260.45 188.502L1261.09 189.27L1261.73 190.038C1266.31 186.221 1269.18 181.321 1270.32 175.379L1269.34 175.19ZM1261.09 189.27L1260.46 188.495C1256.26 191.925 1251.1 193.66 1244.92 193.66V194.66V195.66C1251.5 195.66 1257.12 193.802 1261.72 190.045L1261.09 189.27ZM1244.92 194.66V193.66C1239.49 193.66 1234.79 192.518 1230.78 190.268L1230.29 191.14L1229.8 192.012C1234.15 194.455 1239.2 195.66 1244.92 195.66V194.66ZM1230.29 191.14L1230.79 190.275C1226.77 187.949 1223.64 184.711 1221.38 180.543L1220.5 181.02L1219.62 181.497C1222.05 185.982 1225.45 189.491 1229.79 192.005L1230.29 191.14ZM1220.5 181.02L1221.39 180.561C1219.2 176.322 1218.09 171.459 1218.09 165.95H1217.09H1216.09C1216.09 171.734 1217.26 176.918 1219.61 181.479L1220.5 181.02ZM1260.98 160.23L1261.98 160.138C1261.52 155.155 1259.62 151.19 1256.23 148.353L1255.59 149.12L1254.95 149.887C1257.87 152.33 1259.56 155.772 1259.98 160.322L1260.98 160.23ZM1255.59 149.12L1256.24 148.361C1252.95 145.539 1248.78 144.16 1243.82 144.16V145.16V146.16C1248.39 146.16 1252.07 147.421 1254.94 149.879L1255.59 149.12ZM1243.82 145.16V144.16C1239.33 144.16 1235.35 145.64 1231.95 148.583L1232.6 149.34L1233.25 150.097C1236.3 147.467 1239.81 146.16 1243.82 146.16V145.16ZM1232.6 149.34L1231.95 148.583C1228.51 151.547 1226.57 155.419 1226.1 160.132L1227.1 160.23L1228.1 160.328C1228.51 156.095 1230.23 152.706 1233.25 150.097L1232.6 149.34ZM1227.1 160.23V161.23H1260.98V160.23V159.23H1227.1V160.23Z" fill="white" mask="url(#path-4-outside-1_2671_687)"/>
<rect x="1200.5" y="498.5" width="456" height="183" rx="63.5" stroke="white"/>
<path d="M1281.48 557H1291.05V634H1281.48V557ZM1308.39 586.15H1298.27V577.9H1308.39V562.17H1317.41V577.9H1331.6V586.15H1317.41V619.26C1317.41 621.607 1317.85 623.293 1318.73 624.32C1319.69 625.273 1321.3 625.75 1323.57 625.75H1333.36V634H1323.02C1317.74 634 1313.97 632.827 1311.69 630.48C1309.49 628.133 1308.39 624.43 1308.39 619.37V586.15ZM1336.4 605.95C1336.4 600.23 1337.5 595.207 1339.7 590.88C1341.98 586.553 1345.13 583.217 1349.16 580.87C1353.2 578.45 1357.82 577.24 1363.02 577.24C1368.16 577.24 1372.7 578.303 1376.66 580.43C1380.62 582.557 1383.74 585.637 1386.01 589.67C1388.29 593.703 1389.5 598.433 1389.64 603.86C1389.64 604.667 1389.57 605.95 1389.42 607.71H1345.86V608.48C1346.01 613.98 1347.7 618.38 1350.92 621.68C1354.15 624.98 1358.37 626.63 1363.57 626.63C1367.61 626.63 1371.02 625.64 1373.8 623.66C1376.66 621.607 1378.57 618.783 1379.52 615.19H1388.65C1387.55 620.91 1384.8 625.603 1380.4 629.27C1376 632.863 1370.61 634.66 1364.23 634.66C1358.66 634.66 1353.78 633.487 1349.6 631.14C1345.42 628.72 1342.16 625.347 1339.81 621.02C1337.54 616.62 1336.4 611.597 1336.4 605.95ZM1380.29 600.23C1379.85 595.463 1378.06 591.76 1374.9 589.12C1371.82 586.48 1367.9 585.16 1363.13 585.16C1358.88 585.16 1355.14 586.553 1351.91 589.34C1348.69 592.127 1346.85 595.757 1346.41 600.23H1380.29ZM1428.43 577.9V586.7H1423.92C1418.56 586.7 1414.71 588.497 1412.37 592.09C1410.09 595.683 1408.96 600.12 1408.96 605.4V634H1399.94V577.9H1407.75L1408.96 586.37C1410.57 583.803 1412.66 581.75 1415.23 580.21C1417.79 578.67 1421.35 577.9 1425.9 577.9H1428.43ZM1486.46 625.75V634H1481.51C1477.91 634 1475.35 633.267 1473.81 631.8C1472.27 630.333 1471.46 628.17 1471.39 625.31C1467.06 631.543 1460.79 634.66 1452.58 634.66C1446.34 634.66 1441.32 633.193 1437.51 630.26C1433.77 627.327 1431.9 623.33 1431.9 618.27C1431.9 612.623 1433.8 608.297 1437.62 605.29C1441.5 602.283 1447.11 600.78 1454.45 600.78H1470.95V596.93C1470.95 593.263 1469.7 590.403 1467.21 588.35C1464.79 586.297 1461.38 585.27 1456.98 585.27C1453.09 585.27 1449.86 586.15 1447.3 587.91C1444.8 589.597 1443.26 591.87 1442.68 594.73H1433.66C1434.32 589.23 1436.74 584.94 1440.92 581.86C1445.17 578.78 1450.67 577.24 1457.42 577.24C1464.6 577.24 1470.14 579 1474.03 582.52C1477.99 585.967 1479.97 590.953 1479.97 597.48V621.68C1479.97 624.393 1481.21 625.75 1483.71 625.75H1486.46ZM1470.95 608.37H1453.57C1445.21 608.37 1441.03 611.487 1441.03 617.72C1441.03 620.507 1442.13 622.743 1444.33 624.43C1446.53 626.117 1449.5 626.96 1453.24 626.96C1458.74 626.96 1463.06 625.53 1466.22 622.67C1469.37 619.737 1470.95 615.887 1470.95 611.12V608.37ZM1497.13 586.15H1487.01V577.9H1497.13V562.17H1506.15V577.9H1520.34V586.15H1506.15V619.26C1506.15 621.607 1506.59 623.293 1507.47 624.32C1508.43 625.273 1510.04 625.75 1512.31 625.75H1522.1V634H1511.76C1506.48 634 1502.71 632.827 1500.43 630.48C1498.23 628.133 1497.13 624.43 1497.13 619.37V586.15ZM1525.14 605.95C1525.14 600.23 1526.24 595.207 1528.44 590.88C1530.72 586.553 1533.87 583.217 1537.9 580.87C1541.94 578.45 1546.56 577.24 1551.76 577.24C1556.9 577.24 1561.44 578.303 1565.4 580.43C1569.36 582.557 1572.48 585.637 1574.75 589.67C1577.03 593.703 1578.24 598.433 1578.38 603.86C1578.38 604.667 1578.31 605.95 1578.16 607.71H1534.6V608.48C1534.75 613.98 1536.44 618.38 1539.66 621.68C1542.89 624.98 1547.11 626.63 1552.31 626.63C1556.35 626.63 1559.76 625.64 1562.54 623.66C1565.4 621.607 1567.31 618.783 1568.26 615.19H1577.39C1576.29 620.91 1573.54 625.603 1569.14 629.27C1564.74 632.863 1559.35 634.66 1552.97 634.66C1547.4 634.66 1542.52 633.487 1538.34 631.14C1534.16 628.72 1530.9 625.347 1528.55 621.02C1526.28 616.62 1525.14 611.597 1525.14 605.95ZM1569.03 600.23C1568.59 595.463 1566.8 591.76 1563.64 589.12C1560.56 586.48 1556.64 585.16 1551.87 585.16C1547.62 585.16 1543.88 586.553 1540.65 589.34C1537.43 592.127 1535.59 595.757 1535.15 600.23H1569.03Z" fill="white"/>
<rect x="1620.5" y="188.5" width="493" height="183" rx="63.5" stroke="white"/>
<mask id="path-9-outside-2_2671_687" maskUnits="userSpaceOnUse" x="1700" y="245" width="340" height="81" fill="black">
<rect fill="white" x="1700" y="245" width="340" height="81"/>
<path d="M1730.96 247C1736.02 247 1740.49 247.99 1744.38 249.97C1748.27 251.877 1751.27 254.627 1753.4 258.22C1755.53 261.74 1756.59 265.883 1756.59 270.65C1756.59 276.003 1755.09 280.66 1752.08 284.62C1749.15 288.507 1745.19 291.147 1740.2 292.54L1757.47 324H1746.69L1730.74 294.41H1711.05V324H1701.48V247H1730.96ZM1711.05 285.61H1730.19C1735.25 285.61 1739.28 284.253 1742.29 281.54C1745.3 278.827 1746.8 275.197 1746.8 270.65C1746.8 266.177 1745.3 262.583 1742.29 259.87C1739.28 257.157 1735.29 255.8 1730.3 255.8H1711.05V285.61ZM1762.53 295.95C1762.53 290.23 1763.63 285.207 1765.83 280.88C1768.1 276.553 1771.25 273.217 1775.29 270.87C1779.32 268.45 1783.94 267.24 1789.15 267.24C1794.28 267.24 1798.83 268.303 1802.79 270.43C1806.75 272.557 1809.86 275.637 1812.14 279.67C1814.41 283.703 1815.62 288.433 1815.77 293.86C1815.77 294.667 1815.69 295.95 1815.55 297.71H1771.99V298.48C1772.13 303.98 1773.82 308.38 1777.05 311.68C1780.27 314.98 1784.49 316.63 1789.7 316.63C1793.73 316.63 1797.14 315.64 1799.93 313.66C1802.79 311.607 1804.69 308.783 1805.65 305.19H1814.78C1813.68 310.91 1810.93 315.603 1806.53 319.27C1802.13 322.863 1796.74 324.66 1790.36 324.66C1784.78 324.66 1779.91 323.487 1775.73 321.14C1771.55 318.72 1768.28 315.347 1765.94 311.02C1763.66 306.62 1762.53 301.597 1762.53 295.95ZM1806.42 290.23C1805.98 285.463 1804.18 281.76 1801.03 279.12C1797.95 276.48 1794.02 275.16 1789.26 275.16C1785 275.16 1781.26 276.553 1778.04 279.34C1774.81 282.127 1772.98 285.757 1772.54 290.23H1806.42ZM1818.3 267.9H1827.98L1844.92 313.77L1861.75 267.9H1871.21L1850.2 324H1839.31L1818.3 267.9ZM1882.45 246.23C1884.14 246.23 1885.53 246.78 1886.63 247.88C1887.73 248.98 1888.28 250.373 1888.28 252.06C1888.28 253.747 1887.73 255.14 1886.63 256.24C1885.53 257.34 1884.14 257.89 1882.45 257.89C1880.77 257.89 1879.37 257.34 1878.27 256.24C1877.17 255.14 1876.62 253.747 1876.62 252.06C1876.62 250.373 1877.17 248.98 1878.27 247.88C1879.37 246.78 1880.77 246.23 1882.45 246.23ZM1877.94 267.9H1886.96V324H1877.94V267.9ZM1897.34 295.95C1897.34 290.23 1898.44 285.207 1900.64 280.88C1902.91 276.553 1906.07 273.217 1910.1 270.87C1914.13 268.45 1918.75 267.24 1923.96 267.24C1929.09 267.24 1933.64 268.303 1937.6 270.43C1941.56 272.557 1944.68 275.637 1946.95 279.67C1949.22 283.703 1950.43 288.433 1950.58 293.86C1950.58 294.667 1950.51 295.95 1950.36 297.71H1906.8V298.48C1906.95 303.98 1908.63 308.38 1911.86 311.68C1915.09 314.98 1919.3 316.63 1924.51 316.63C1928.54 316.63 1931.95 315.64 1934.74 313.66C1937.6 311.607 1939.51 308.783 1940.46 305.19H1949.59C1948.49 310.91 1945.74 315.603 1941.34 319.27C1936.94 322.863 1931.55 324.66 1925.17 324.66C1919.6 324.66 1914.72 323.487 1910.54 321.14C1906.36 318.72 1903.1 315.347 1900.75 311.02C1898.48 306.62 1897.34 301.597 1897.34 295.95ZM1941.23 290.23C1940.79 285.463 1938.99 281.76 1935.84 279.12C1932.76 276.48 1928.84 275.16 1924.07 275.16C1919.82 275.16 1916.08 276.553 1912.85 279.34C1909.62 282.127 1907.79 285.757 1907.35 290.23H1941.23ZM1953.98 267.9H1963.44L1977.41 313.55L1992.15 267.9H2000.51L2014.48 313.55L2029.11 267.9H2038.24L2019.54 324H2009.64L1996.11 282.31L1982.03 324L1972.13 324.11L1953.98 267.9Z"/>
</mask>
<path d="M1730.96 247C1736.02 247 1740.49 247.99 1744.38 249.97C1748.27 251.877 1751.27 254.627 1753.4 258.22C1755.53 261.74 1756.59 265.883 1756.59 270.65C1756.59 276.003 1755.09 280.66 1752.08 284.62C1749.15 288.507 1745.19 291.147 1740.2 292.54L1757.47 324H1746.69L1730.74 294.41H1711.05V324H1701.48V247H1730.96ZM1711.05 285.61H1730.19C1735.25 285.61 1739.28 284.253 1742.29 281.54C1745.3 278.827 1746.8 275.197 1746.8 270.65C1746.8 266.177 1745.3 262.583 1742.29 259.87C1739.28 257.157 1735.29 255.8 1730.3 255.8H1711.05V285.61ZM1762.53 295.95C1762.53 290.23 1763.63 285.207 1765.83 280.88C1768.1 276.553 1771.25 273.217 1775.29 270.87C1779.32 268.45 1783.94 267.24 1789.15 267.24C1794.28 267.24 1798.83 268.303 1802.79 270.43C1806.75 272.557 1809.86 275.637 1812.14 279.67C1814.41 283.703 1815.62 288.433 1815.77 293.86C1815.77 294.667 1815.69 295.95 1815.55 297.71H1771.99V298.48C1772.13 303.98 1773.82 308.38 1777.05 311.68C1780.27 314.98 1784.49 316.63 1789.7 316.63C1793.73 316.63 1797.14 315.64 1799.93 313.66C1802.79 311.607 1804.69 308.783 1805.65 305.19H1814.78C1813.68 310.91 1810.93 315.603 1806.53 319.27C1802.13 322.863 1796.74 324.66 1790.36 324.66C1784.78 324.66 1779.91 323.487 1775.73 321.14C1771.55 318.72 1768.28 315.347 1765.94 311.02C1763.66 306.62 1762.53 301.597 1762.53 295.95ZM1806.42 290.23C1805.98 285.463 1804.18 281.76 1801.03 279.12C1797.95 276.48 1794.02 275.16 1789.26 275.16C1785 275.16 1781.26 276.553 1778.04 279.34C1774.81 282.127 1772.98 285.757 1772.54 290.23H1806.42ZM1818.3 267.9H1827.98L1844.92 313.77L1861.75 267.9H1871.21L1850.2 324H1839.31L1818.3 267.9ZM1882.45 246.23C1884.14 246.23 1885.53 246.78 1886.63 247.88C1887.73 248.98 1888.28 250.373 1888.28 252.06C1888.28 253.747 1887.73 255.14 1886.63 256.24C1885.53 257.34 1884.14 257.89 1882.45 257.89C1880.77 257.89 1879.37 257.34 1878.27 256.24C1877.17 255.14 1876.62 253.747 1876.62 252.06C1876.62 250.373 1877.17 248.98 1878.27 247.88C1879.37 246.78 1880.77 246.23 1882.45 246.23ZM1877.94 267.9H1886.96V324H1877.94V267.9ZM1897.34 295.95C1897.34 290.23 1898.44 285.207 1900.64 280.88C1902.91 276.553 1906.07 273.217 1910.1 270.87C1914.13 268.45 1918.75 267.24 1923.96 267.24C1929.09 267.24 1933.64 268.303 1937.6 270.43C1941.56 272.557 1944.68 275.637 1946.95 279.67C1949.22 283.703 1950.43 288.433 1950.58 293.86C1950.58 294.667 1950.51 295.95 1950.36 297.71H1906.8V298.48C1906.95 303.98 1908.63 308.38 1911.86 311.68C1915.09 314.98 1919.3 316.63 1924.51 316.63C1928.54 316.63 1931.95 315.64 1934.74 313.66C1937.6 311.607 1939.51 308.783 1940.46 305.19H1949.59C1948.49 310.91 1945.74 315.603 1941.34 319.27C1936.94 322.863 1931.55 324.66 1925.17 324.66C1919.6 324.66 1914.72 323.487 1910.54 321.14C1906.36 318.72 1903.1 315.347 1900.75 311.02C1898.48 306.62 1897.34 301.597 1897.34 295.95ZM1941.23 290.23C1940.79 285.463 1938.99 281.76 1935.84 279.12C1932.76 276.48 1928.84 275.16 1924.07 275.16C1919.82 275.16 1916.08 276.553 1912.85 279.34C1909.62 282.127 1907.79 285.757 1907.35 290.23H1941.23ZM1953.98 267.9H1963.44L1977.41 313.55L1992.15 267.9H2000.51L2014.48 313.55L2029.11 267.9H2038.24L2019.54 324H2009.64L1996.11 282.31L1982.03 324L1972.13 324.11L1953.98 267.9Z" fill="white"/>
<path d="M1744.38 249.97L1743.93 250.861L1743.93 250.864L1743.94 250.868L1744.38 249.97ZM1753.4 258.22L1752.54 258.729L1752.54 258.737L1753.4 258.22ZM1752.08 284.62L1751.28 284.015L1751.28 284.018L1752.08 284.62ZM1740.2 292.54L1739.93 291.577L1738.72 291.916L1739.32 293.021L1740.2 292.54ZM1757.47 324V325H1759.16L1758.35 323.519L1757.47 324ZM1746.69 324L1745.81 324.474L1746.09 325H1746.69V324ZM1730.74 294.41L1731.62 293.936L1731.34 293.41H1730.74V294.41ZM1711.05 294.41V293.41H1710.05V294.41H1711.05ZM1711.05 324V325H1712.05V324H1711.05ZM1701.48 324H1700.48V325H1701.48V324ZM1701.48 247V246H1700.48V247H1701.48ZM1711.05 285.61H1710.05V286.61H1711.05V285.61ZM1742.29 281.54L1741.62 280.798L1741.62 280.798L1742.29 281.54ZM1742.29 259.87L1741.62 260.612L1741.62 260.612L1742.29 259.87ZM1711.05 255.8V254.8H1710.05V255.8H1711.05ZM1730.96 247V248C1735.89 248 1740.2 248.963 1743.93 250.861L1744.38 249.97L1744.83 249.079C1740.79 247.017 1736.15 246 1730.96 246V247ZM1744.38 249.97L1743.94 250.868C1747.66 252.692 1750.52 255.31 1752.54 258.729L1753.4 258.22L1754.26 257.711C1752.03 253.943 1748.88 251.061 1744.82 249.072L1744.38 249.97ZM1753.4 258.22L1752.54 258.737C1754.56 262.078 1755.59 266.036 1755.59 270.65H1756.59H1757.59C1757.59 265.731 1756.49 261.402 1754.26 257.703L1753.4 258.22ZM1756.59 270.65H1755.59C1755.59 275.803 1754.15 280.243 1751.28 284.015L1752.08 284.62L1752.88 285.225C1756.03 281.077 1757.59 276.204 1757.59 270.65H1756.59ZM1752.08 284.62L1751.28 284.018C1748.49 287.718 1744.72 290.239 1739.93 291.577L1740.2 292.54L1740.47 293.503C1745.65 292.055 1749.8 289.296 1752.88 285.222L1752.08 284.62ZM1740.2 292.54L1739.32 293.021L1756.59 324.481L1757.47 324L1758.35 323.519L1741.08 292.059L1740.2 292.54ZM1757.47 324V323H1746.69V324V325H1757.47V324ZM1746.69 324L1747.57 323.526L1731.62 293.936L1730.74 294.41L1729.86 294.884L1745.81 324.474L1746.69 324ZM1730.74 294.41V293.41H1711.05V294.41V295.41H1730.74V294.41ZM1711.05 294.41H1710.05V324H1711.05H1712.05V294.41H1711.05ZM1711.05 324V323H1701.48V324V325H1711.05V324ZM1701.48 324H1702.48V247H1701.48H1700.48V324H1701.48ZM1701.48 247V248H1730.96V247V246H1701.48V247ZM1711.05 285.61V286.61H1730.19V285.61V284.61H1711.05V285.61ZM1730.19 285.61V286.61C1735.43 286.61 1739.73 285.2 1742.96 282.282L1742.29 281.54L1741.62 280.798C1738.84 283.307 1735.07 284.61 1730.19 284.61V285.61ZM1742.29 281.54L1742.96 282.282C1746.2 279.355 1747.8 275.441 1747.8 270.65H1746.8H1745.8C1745.8 274.952 1744.39 278.298 1741.62 280.798L1742.29 281.54ZM1746.8 270.65H1747.8C1747.8 265.927 1746.2 262.052 1742.96 259.128L1742.29 259.87L1741.62 260.612C1744.39 263.115 1745.8 266.427 1745.8 270.65H1746.8ZM1742.29 259.87L1742.96 259.128C1739.73 256.212 1735.47 254.8 1730.3 254.8V255.8V256.8C1735.1 256.8 1738.84 258.101 1741.62 260.612L1742.29 259.87ZM1730.3 255.8V254.8H1711.05V255.8V256.8H1730.3V255.8ZM1711.05 255.8H1710.05V285.61H1711.05H1712.05V255.8H1711.05ZM1765.83 280.88L1764.94 280.415L1764.93 280.427L1765.83 280.88ZM1775.29 270.87L1775.79 271.734L1775.8 271.727L1775.29 270.87ZM1802.79 270.43L1802.31 271.311L1802.31 271.311L1802.79 270.43ZM1812.14 279.67L1811.26 280.161L1811.26 280.161L1812.14 279.67ZM1815.77 293.86H1816.77V293.846L1816.77 293.833L1815.77 293.86ZM1815.55 297.71V298.71H1816.47L1816.54 297.793L1815.55 297.71ZM1771.99 297.71V296.71H1770.99V297.71H1771.99ZM1771.99 298.48H1770.99V298.493L1770.99 298.507L1771.99 298.48ZM1777.05 311.68L1776.33 312.379L1776.33 312.379L1777.05 311.68ZM1799.93 313.66L1800.5 314.475L1800.51 314.472L1799.93 313.66ZM1805.65 305.19V304.19H1804.88L1804.68 304.934L1805.65 305.19ZM1814.78 305.19L1815.76 305.379L1815.99 304.19H1814.78V305.19ZM1806.53 319.27L1807.16 320.045L1807.17 320.038L1806.53 319.27ZM1775.73 321.14L1775.22 322.006L1775.24 322.012L1775.73 321.14ZM1765.94 311.02L1765.05 311.479L1765.05 311.488L1765.06 311.497L1765.94 311.02ZM1806.42 290.23V291.23H1807.51L1807.41 290.138L1806.42 290.23ZM1801.03 279.12L1800.37 279.879L1800.38 279.887L1801.03 279.12ZM1778.04 279.34L1778.69 280.097L1778.69 280.097L1778.04 279.34ZM1772.54 290.23L1771.54 290.132L1771.43 291.23H1772.54V290.23ZM1762.53 295.95H1763.53C1763.53 290.36 1764.6 285.496 1766.72 281.333L1765.83 280.88L1764.93 280.427C1762.65 284.917 1761.53 290.1 1761.53 295.95H1762.53ZM1765.83 280.88L1766.71 281.345C1768.9 277.177 1771.93 273.982 1775.79 271.734L1775.29 270.87L1774.78 270.006C1770.58 272.451 1767.3 275.93 1764.94 280.415L1765.83 280.88ZM1775.29 270.87L1775.8 271.727C1779.66 269.41 1784.1 268.24 1789.15 268.24V267.24V266.24C1783.78 266.24 1778.98 267.49 1774.77 270.013L1775.29 270.87ZM1789.15 267.24V268.24C1794.14 268.24 1798.52 269.273 1802.31 271.311L1802.79 270.43L1803.26 269.549C1799.13 267.334 1794.42 266.24 1789.15 266.24V267.24ZM1802.79 270.43L1802.31 271.311C1806.1 273.345 1809.08 276.288 1811.26 280.161L1812.14 279.67L1813.01 279.179C1810.64 274.986 1807.39 271.768 1803.26 269.549L1802.79 270.43ZM1812.14 279.67L1811.26 280.161C1813.45 284.03 1814.62 288.595 1814.77 293.887L1815.77 293.86L1816.77 293.833C1816.62 288.272 1815.37 283.377 1813.01 279.179L1812.14 279.67ZM1815.77 293.86H1814.77C1814.77 294.622 1814.7 295.87 1814.55 297.627L1815.55 297.71L1816.54 297.793C1816.69 296.03 1816.77 294.711 1816.77 293.86H1815.77ZM1815.55 297.71V296.71H1771.99V297.71V298.71H1815.55V297.71ZM1771.99 297.71H1770.99V298.48H1771.99H1772.99V297.71H1771.99ZM1771.99 298.48L1770.99 298.507C1771.14 304.207 1772.89 308.865 1776.33 312.379L1777.05 311.68L1777.76 310.981C1774.74 307.895 1773.13 303.753 1772.99 298.453L1771.99 298.48ZM1777.05 311.68L1776.33 312.379C1779.77 315.897 1784.26 317.63 1789.7 317.63V316.63V315.63C1784.72 315.63 1780.77 314.063 1777.76 310.981L1777.05 311.68ZM1789.7 316.63V317.63C1793.9 317.63 1797.52 316.596 1800.5 314.475L1799.93 313.66L1799.35 312.845C1796.76 314.684 1793.56 315.63 1789.7 315.63V316.63ZM1799.93 313.66L1800.51 314.472C1803.57 312.276 1805.6 309.25 1806.61 305.446L1805.65 305.19L1804.68 304.934C1803.78 308.316 1802 310.938 1799.34 312.848L1799.93 313.66ZM1805.65 305.19V306.19H1814.78V305.19V304.19H1805.65V305.19ZM1814.78 305.19L1813.79 305.001C1812.74 310.499 1810.1 314.986 1805.89 318.502L1806.53 319.27L1807.17 320.038C1811.75 316.221 1814.61 311.321 1815.76 305.379L1814.78 305.19ZM1806.53 319.27L1805.89 318.495C1801.69 321.925 1796.54 323.66 1790.36 323.66V324.66V325.66C1796.94 325.66 1802.56 323.802 1807.16 320.045L1806.53 319.27ZM1790.36 324.66V323.66C1784.93 323.66 1780.22 322.518 1776.22 320.268L1775.73 321.14L1775.24 322.012C1779.59 324.455 1784.64 325.66 1790.36 325.66V324.66ZM1775.73 321.14L1776.23 320.275C1772.21 317.949 1769.08 314.711 1766.81 310.543L1765.94 311.02L1765.06 311.497C1767.49 315.982 1770.88 319.491 1775.22 322.005L1775.73 321.14ZM1765.94 311.02L1766.82 310.561C1764.63 306.322 1763.53 301.459 1763.53 295.95H1762.53H1761.53C1761.53 301.734 1762.69 306.918 1765.05 311.479L1765.94 311.02ZM1806.42 290.23L1807.41 290.138C1806.95 285.155 1805.06 281.19 1801.67 278.353L1801.03 279.12L1800.38 279.887C1803.3 282.33 1805 285.772 1805.42 290.322L1806.42 290.23ZM1801.03 279.12L1801.68 278.361C1798.38 275.539 1794.22 274.16 1789.26 274.16V275.16V276.16C1793.83 276.16 1797.51 277.421 1800.37 279.879L1801.03 279.12ZM1789.26 275.16V274.16C1784.76 274.16 1780.79 275.64 1777.38 278.583L1778.04 279.34L1778.69 280.097C1781.73 277.467 1785.24 276.16 1789.26 276.16V275.16ZM1778.04 279.34L1777.38 278.583C1773.95 281.547 1772 285.419 1771.54 290.132L1772.54 290.23L1773.53 290.328C1773.95 286.095 1775.67 282.706 1778.69 280.097L1778.04 279.34ZM1772.54 290.23V291.23H1806.42V290.23V289.23H1772.54V290.23ZM1818.3 267.9V266.9H1816.86L1817.36 268.251L1818.3 267.9ZM1827.98 267.9L1828.92 267.554L1828.68 266.9H1827.98V267.9ZM1844.92 313.77L1843.98 314.116L1844.92 316.665L1845.86 314.114L1844.92 313.77ZM1861.75 267.9V266.9H1861.05L1860.81 267.556L1861.75 267.9ZM1871.21 267.9L1872.15 268.251L1872.65 266.9H1871.21V267.9ZM1850.2 324V325H1850.89L1851.14 324.351L1850.2 324ZM1839.31 324L1838.37 324.351L1838.62 325H1839.31V324ZM1818.3 267.9V268.9H1827.98V267.9V266.9H1818.3V267.9ZM1827.98 267.9L1827.04 268.246L1843.98 314.116L1844.92 313.77L1845.86 313.424L1828.92 267.554L1827.98 267.9ZM1844.92 313.77L1845.86 314.114L1862.69 268.244L1861.75 267.9L1860.81 267.556L1843.98 313.426L1844.92 313.77ZM1861.75 267.9V268.9H1871.21V267.9V266.9H1861.75V267.9ZM1871.21 267.9L1870.27 267.549L1849.26 323.649L1850.2 324L1851.14 324.351L1872.15 268.251L1871.21 267.9ZM1850.2 324V323H1839.31V324V325H1850.2V324ZM1839.31 324L1840.25 323.649L1819.24 267.549L1818.3 267.9L1817.36 268.251L1838.37 324.351L1839.31 324ZM1886.63 256.24L1885.93 255.533L1885.93 255.533L1886.63 256.24ZM1878.27 256.24L1878.98 255.533L1878.98 255.533L1878.27 256.24ZM1878.27 247.88L1878.98 248.587L1878.98 248.587L1878.27 247.88ZM1877.94 267.9V266.9H1876.94V267.9H1877.94ZM1886.96 267.9H1887.96V266.9H1886.96V267.9ZM1886.96 324V325H1887.96V324H1886.96ZM1877.94 324H1876.94V325H1877.94V324ZM1882.45 246.23V247.23C1883.9 247.23 1885.03 247.691 1885.93 248.587L1886.63 247.88L1887.34 247.173C1886.04 245.869 1884.38 245.23 1882.45 245.23V246.23ZM1886.63 247.88L1885.93 248.587C1886.82 249.483 1887.28 250.614 1887.28 252.06H1888.28H1889.28C1889.28 250.133 1888.64 248.477 1887.34 247.173L1886.63 247.88ZM1888.28 252.06H1887.28C1887.28 253.506 1886.82 254.637 1885.93 255.533L1886.63 256.24L1887.34 256.947C1888.64 255.643 1889.28 253.987 1889.28 252.06H1888.28ZM1886.63 256.24L1885.93 255.533C1885.03 256.429 1883.9 256.89 1882.45 256.89V257.89V258.89C1884.38 258.89 1886.04 258.251 1887.34 256.947L1886.63 256.24ZM1882.45 257.89V256.89C1881.01 256.89 1879.88 256.429 1878.98 255.533L1878.27 256.24L1877.57 256.947C1878.87 258.251 1880.53 258.89 1882.45 258.89V257.89ZM1878.27 256.24L1878.98 255.533C1878.08 254.637 1877.62 253.506 1877.62 252.06H1876.62H1875.62C1875.62 253.987 1876.26 255.643 1877.57 256.947L1878.27 256.24ZM1876.62 252.06H1877.62C1877.62 250.614 1878.08 249.483 1878.98 248.587L1878.27 247.88L1877.57 247.173C1876.26 248.477 1875.62 250.133 1875.62 252.06H1876.62ZM1878.27 247.88L1878.98 248.587C1879.88 247.691 1881.01 247.23 1882.45 247.23V246.23V245.23C1880.53 245.23 1878.87 245.869 1877.57 247.173L1878.27 247.88ZM1877.94 267.9V268.9H1886.96V267.9V266.9H1877.94V267.9ZM1886.96 267.9H1885.96V324H1886.96H1887.96V267.9H1886.96ZM1886.96 324V323H1877.94V324V325H1886.96V324ZM1877.94 324H1878.94V267.9H1877.94H1876.94V324H1877.94ZM1900.64 280.88L1899.75 280.415L1899.75 280.427L1900.64 280.88ZM1910.1 270.87L1910.6 271.734L1910.61 271.727L1910.1 270.87ZM1937.6 270.43L1937.13 271.311L1937.13 271.311L1937.6 270.43ZM1946.95 279.67L1946.08 280.161L1946.08 280.161L1946.95 279.67ZM1950.58 293.86H1951.58V293.846L1951.58 293.833L1950.58 293.86ZM1950.36 297.71V298.71H1951.28L1951.36 297.793L1950.36 297.71ZM1906.8 297.71V296.71H1905.8V297.71H1906.8ZM1906.8 298.48H1905.8V298.493L1905.8 298.507L1906.8 298.48ZM1911.86 311.68L1911.15 312.379L1911.15 312.379L1911.86 311.68ZM1934.74 313.66L1935.32 314.475L1935.32 314.472L1934.74 313.66ZM1940.46 305.19V304.19H1939.69L1939.49 304.934L1940.46 305.19ZM1949.59 305.19L1950.57 305.379L1950.8 304.19H1949.59V305.19ZM1941.34 319.27L1941.97 320.045L1941.98 320.038L1941.34 319.27ZM1910.54 321.14L1910.04 322.006L1910.05 322.012L1910.54 321.14ZM1900.75 311.02L1899.86 311.479L1899.87 311.488L1899.87 311.497L1900.75 311.02ZM1941.23 290.23V291.23H1942.33L1942.23 290.138L1941.23 290.23ZM1935.84 279.12L1935.19 279.879L1935.2 279.887L1935.84 279.12ZM1912.85 279.34L1913.5 280.097L1913.5 280.097L1912.85 279.34ZM1907.35 290.23L1906.35 290.132L1906.25 291.23H1907.35V290.23ZM1897.34 295.95H1898.34C1898.34 290.36 1899.41 285.496 1901.53 281.333L1900.64 280.88L1899.75 280.427C1897.47 284.917 1896.34 290.1 1896.34 295.95H1897.34ZM1900.64 280.88L1901.53 281.345C1903.72 277.177 1906.74 273.982 1910.6 271.734L1910.1 270.87L1909.6 270.006C1905.39 272.451 1902.11 275.93 1899.75 280.415L1900.64 280.88ZM1910.1 270.87L1910.61 271.727C1914.48 269.41 1918.91 268.24 1923.96 268.24V267.24V266.24C1918.59 266.24 1913.79 267.49 1909.59 270.013L1910.1 270.87ZM1923.96 267.24V268.24C1928.95 268.24 1933.33 269.273 1937.13 271.311L1937.6 270.43L1938.07 269.549C1933.95 267.334 1929.23 266.24 1923.96 266.24V267.24ZM1937.6 270.43L1937.13 271.311C1940.91 273.345 1943.9 276.288 1946.08 280.161L1946.95 279.67L1947.82 279.179C1945.46 274.986 1942.21 271.768 1938.07 269.549L1937.6 270.43ZM1946.95 279.67L1946.08 280.161C1948.26 284.03 1949.44 288.595 1949.58 293.887L1950.58 293.86L1951.58 293.833C1951.43 288.272 1950.19 283.377 1947.82 279.179L1946.95 279.67ZM1950.58 293.86H1949.58C1949.58 294.622 1949.51 295.87 1949.36 297.627L1950.36 297.71L1951.36 297.793C1951.5 296.03 1951.58 294.711 1951.58 293.86H1950.58ZM1950.36 297.71V296.71H1906.8V297.71V298.71H1950.36V297.71ZM1906.8 297.71H1905.8V298.48H1906.8H1907.8V297.71H1906.8ZM1906.8 298.48L1905.8 298.507C1905.95 304.207 1907.71 308.865 1911.15 312.379L1911.86 311.68L1912.58 310.981C1909.56 307.895 1907.94 303.753 1907.8 298.453L1906.8 298.48ZM1911.86 311.68L1911.15 312.379C1914.58 315.897 1919.07 317.63 1924.51 317.63V316.63V315.63C1919.53 315.63 1915.59 314.063 1912.58 310.981L1911.86 311.68ZM1924.51 316.63V317.63C1928.71 317.63 1932.33 316.596 1935.32 314.475L1934.74 313.66L1934.16 312.845C1931.57 314.684 1928.37 315.63 1924.51 315.63V316.63ZM1934.74 313.66L1935.32 314.472C1938.38 312.276 1940.42 309.25 1941.43 305.446L1940.46 305.19L1939.49 304.934C1938.6 308.316 1936.82 310.938 1934.16 312.848L1934.74 313.66ZM1940.46 305.19V306.19H1949.59V305.19V304.19H1940.46V305.19ZM1949.59 305.19L1948.61 305.001C1947.55 310.499 1944.92 314.986 1940.7 318.502L1941.34 319.27L1941.98 320.038C1946.56 316.221 1949.43 311.321 1950.57 305.379L1949.59 305.19ZM1941.34 319.27L1940.71 318.495C1936.51 321.925 1931.35 323.66 1925.17 323.66V324.66V325.66C1931.75 325.66 1937.37 323.802 1941.97 320.045L1941.34 319.27ZM1925.17 324.66V323.66C1919.74 323.66 1915.04 322.518 1911.03 320.268L1910.54 321.14L1910.05 322.012C1914.4 324.455 1919.45 325.66 1925.17 325.66V324.66ZM1910.54 321.14L1911.04 320.275C1907.02 317.949 1903.89 314.711 1901.63 310.543L1900.75 311.02L1899.87 311.497C1902.3 315.982 1905.7 319.491 1910.04 322.005L1910.54 321.14ZM1900.75 311.02L1901.64 310.561C1899.45 306.322 1898.34 301.459 1898.34 295.95H1897.34H1896.34C1896.34 301.734 1897.51 306.918 1899.86 311.479L1900.75 311.02ZM1941.23 290.23L1942.23 290.138C1941.77 285.155 1939.87 281.19 1936.48 278.353L1935.84 279.12L1935.2 279.887C1938.12 282.33 1939.81 285.772 1940.23 290.322L1941.23 290.23ZM1935.84 279.12L1936.49 278.361C1933.2 275.539 1929.03 274.16 1924.07 274.16V275.16V276.16C1928.64 276.16 1932.32 277.421 1935.19 279.879L1935.84 279.12ZM1924.07 275.16V274.16C1919.58 274.16 1915.6 275.64 1912.2 278.583L1912.85 279.34L1913.5 280.097C1916.55 277.467 1920.06 276.16 1924.07 276.16V275.16ZM1912.85 279.34L1912.2 278.583C1908.76 281.547 1906.82 285.419 1906.35 290.132L1907.35 290.23L1908.35 290.328C1908.76 286.095 1910.48 282.706 1913.5 280.097L1912.85 279.34ZM1907.35 290.23V291.23H1941.23V290.23V289.23H1907.35V290.23ZM1953.98 267.9V266.9H1952.61L1953.03 268.207L1953.98 267.9ZM1963.44 267.9L1964.4 267.607L1964.18 266.9H1963.44V267.9ZM1977.41 313.55L1976.46 313.843L1977.39 316.884L1978.36 313.857L1977.41 313.55ZM1992.15 267.9V266.9H1991.42L1991.2 267.593L1992.15 267.9ZM2000.51 267.9L2001.47 267.607L2001.25 266.9H2000.51V267.9ZM2014.48 313.55L2013.53 313.843L2014.46 316.895L2015.43 313.855L2014.48 313.55ZM2029.11 267.9V266.9H2028.38L2028.16 267.595L2029.11 267.9ZM2038.24 267.9L2039.19 268.216L2039.63 266.9H2038.24V267.9ZM2019.54 324V325H2020.26L2020.49 324.316L2019.54 324ZM2009.64 324L2008.69 324.309L2008.91 325H2009.64V324ZM1996.11 282.31L1997.06 282.001L1996.13 279.129L1995.16 281.99L1996.11 282.31ZM1982.03 324L1982.04 325L1982.75 324.992L1982.98 324.32L1982.03 324ZM1972.13 324.11L1971.18 324.417L1971.41 325.118L1972.14 325.11L1972.13 324.11ZM1953.98 267.9V268.9H1963.44V267.9V266.9H1953.98V267.9ZM1963.44 267.9L1962.49 268.193L1976.46 313.843L1977.41 313.55L1978.37 313.257L1964.4 267.607L1963.44 267.9ZM1977.41 313.55L1978.36 313.857L1993.1 268.207L1992.15 267.9L1991.2 267.593L1976.46 313.243L1977.41 313.55ZM1992.15 267.9V268.9H2000.51V267.9V266.9H1992.15V267.9ZM2000.51 267.9L1999.56 268.193L2013.53 313.843L2014.48 313.55L2015.44 313.257L2001.47 267.607L2000.51 267.9ZM2014.48 313.55L2015.43 313.855L2030.06 268.205L2029.11 267.9L2028.16 267.595L2013.53 313.245L2014.48 313.55ZM2029.11 267.9V268.9H2038.24V267.9V266.9H2029.11V267.9ZM2038.24 267.9L2037.29 267.584L2018.59 323.684L2019.54 324L2020.49 324.316L2039.19 268.216L2038.24 267.9ZM2019.54 324V323H2009.64V324V325H2019.54V324ZM2009.64 324L2010.59 323.691L1997.06 282.001L1996.11 282.31L1995.16 282.619L2008.69 324.309L2009.64 324ZM1996.11 282.31L1995.16 281.99L1981.08 323.68L1982.03 324L1982.98 324.32L1997.06 282.63L1996.11 282.31ZM1982.03 324L1982.02 323L1972.12 323.11L1972.13 324.11L1972.14 325.11L1982.04 325L1982.03 324ZM1972.13 324.11L1973.08 323.803L1954.93 267.593L1953.98 267.9L1953.03 268.207L1971.18 324.417L1972.13 324.11Z" fill="white" mask="url(#path-9-outside-2_2671_687)"/>
<rect x="434.5" y="498.5" width="418" height="183" rx="63.5" stroke="white"/>
<path d="M510.75 557H570.26V565.8H545.29V634H535.72V565.8H510.75V557ZM602.054 577.9V586.7H597.544C592.191 586.7 588.341 588.497 585.994 592.09C583.721 595.683 582.584 600.12 582.584 605.4V634H573.564V577.9H581.374L582.584 586.37C584.198 583.803 586.288 581.75 588.854 580.21C591.421 578.67 594.978 577.9 599.524 577.9H602.054ZM660.087 625.75V634H655.137C651.544 634 648.977 633.267 647.437 631.8C645.897 630.333 645.09 628.17 645.017 625.31C640.69 631.543 634.42 634.66 626.207 634.66C619.974 634.66 614.95 633.193 611.137 630.26C607.397 627.327 605.527 623.33 605.527 618.27C605.527 612.623 607.434 608.297 611.247 605.29C615.134 602.283 620.744 600.78 628.077 600.78H644.577V596.93C644.577 593.263 643.33 590.403 640.837 588.35C638.417 586.297 635.007 585.27 630.607 585.27C626.72 585.27 623.494 586.15 620.927 587.91C618.434 589.597 616.894 591.87 616.307 594.73H607.287C607.947 589.23 610.367 584.94 614.547 581.86C618.8 578.78 624.3 577.24 631.047 577.24C638.234 577.24 643.77 579 647.657 582.52C651.617 585.967 653.597 590.953 653.597 597.48V621.68C653.597 624.393 654.844 625.75 657.337 625.75H660.087ZM644.577 608.37H627.197C618.837 608.37 614.657 611.487 614.657 617.72C614.657 620.507 615.757 622.743 617.957 624.43C620.157 626.117 623.127 626.96 626.867 626.96C632.367 626.96 636.694 625.53 639.847 622.67C643 619.737 644.577 615.887 644.577 611.12V608.37ZM717.071 614.64C715.898 620.873 713.148 625.787 708.821 629.38C704.495 632.9 698.995 634.66 692.321 634.66C686.895 634.66 682.128 633.45 678.021 631.03C673.915 628.61 670.725 625.237 668.451 620.91C666.178 616.51 665.041 611.487 665.041 605.84C665.041 600.193 666.178 595.207 668.451 590.88C670.798 586.553 674.061 583.217 678.241 580.87C682.421 578.45 687.225 577.24 692.651 577.24C699.251 577.24 704.678 579 708.931 582.52C713.258 586.04 715.971 590.88 717.071 597.04H707.941C707.061 593.447 705.228 590.587 702.441 588.46C699.655 586.333 696.281 585.27 692.321 585.27C686.968 585.27 682.605 587.177 679.231 590.99C675.931 594.803 674.281 599.753 674.281 605.84C674.281 612 675.931 617.023 679.231 620.91C682.605 624.723 686.968 626.63 692.321 626.63C696.428 626.63 699.875 625.567 702.661 623.44C705.448 621.313 707.245 618.38 708.051 614.64H717.071ZM727.5 557H736.52V608.04L765.01 577.9H775.79L754.23 600.89L777.33 634H766.44L747.74 607.38L736.52 619.15V634H727.5V557Z" fill="white"/>
<path d="M787.571 144.86L742.966 108.203L733.523 165.161L787.571 144.86ZM560.393 219.096L564.319 222.193C589.136 190.73 655.722 137.493 742.896 142.493L743.183 137.501L743.469 132.509C652.004 127.263 582.567 182.911 556.467 215.999L560.393 219.096Z" fill="white"/>
<path d="M907 597L938.013 645.698L964.68 594.491L907 597ZM1146 597L1143.23 592.837C1109.87 615.035 1030.04 644.956 948.73 613.126L946.907 617.782L945.085 622.438C1030.4 655.835 1113.68 624.507 1148.77 601.163L1146 597Z" fill="white"/>
<path d="M1697 570.893L1752.8 585.709L1737.73 529.975L1697 570.893ZM1872.82 409L1867.96 407.814C1858.45 446.742 1820 522.827 1738.62 554.489L1740.43 559.149L1742.25 563.808C1827.63 530.588 1867.68 451.126 1877.67 410.186L1872.82 409Z" fill="white"/>
<path d="M1589.29 306.205L1542.65 340.23L1536.5 282.823L1589.29 306.205ZM1366.77 219L1370.87 216.135C1393.83 248.975 1457.24 305.961 1544.56 305.993L1544.55 310.993L1544.55 315.993C1452.94 315.959 1386.82 256.402 1362.67 221.865L1366.77 219Z" fill="white"/>
</svg>
