<svg width="128" height="128" viewBox="0 0 128 128" fill="none" xmlns="http://www.w3.org/2000/svg">
<g clip-path="url(#clip0_2529_530)">
<rect width="128" height="128" rx="25.6" fill="#4F46E5"/>
<rect opacity="0.2" x="12.7998" y="12.8" width="128" height="128" rx="25.6" fill="black"/>
<path d="M33.3911 35.7778C33.3911 34.4598 34.4596 33.3914 35.7775 33.3914H60.0892C61.4072 33.3914 62.4757 34.4598 62.4757 35.7778V65.5242C62.4757 80.7839 50.7239 93.2987 35.777 94.5123C34.4633 94.619 33.3911 93.5403 33.3911 92.2223V35.7778Z" fill="white"/>
<path d="M65.5239 35.7778C65.5239 34.4598 66.5924 33.3914 67.9104 33.3914H92.2221C93.54 33.3914 94.6187 34.4636 94.512 35.7772C93.3623 49.9373 82.0699 61.2298 67.9098 62.3795C66.5961 62.4861 65.5239 61.4075 65.5239 60.0895V35.7778Z" fill="white"/>
<path d="M65.5239 92.2222C65.5239 93.5402 66.5924 94.6086 67.9104 94.6086H92.2221C93.54 94.6086 94.6187 93.5364 94.512 92.2228C93.3623 78.0627 82.0699 66.7702 67.9098 65.6205C66.5961 65.5139 65.5239 66.5925 65.5239 67.9105V92.2222Z" fill="white"/>
</g>
<defs>
<clipPath id="clip0_2529_530">
<rect width="128" height="128" rx="25.6" fill="white"/>
</clipPath>
</defs>
</svg>
