<?xml version="1.0" encoding="UTF-8"?>
<svg width="600" height="400" viewBox="0 0 600 400" fill="none" xmlns="http://www.w3.org/2000/svg">
  <!-- Background -->
  <rect width="600" height="400" fill="none"/>
  
  <!-- Search/Discovery Interface -->
  <rect x="150" y="100" width="300" height="200" rx="12" fill="#4F46E5" opacity="0.1" stroke="#4F46E5" stroke-width="2"/>
  
  <!-- Search Bar -->
  <rect x="170" y="120" width="260" height="40" rx="20" fill="#4F46E5" opacity="0.2" stroke="#4F46E5" stroke-width="2"/>
  <circle cx="200" cy="140" r="12" fill="none" stroke="#4F46E5" stroke-width="2"/>
  <line x1="209" y1="149" x2="215" y2="155" stroke="#4F46E5" stroke-width="2"/>
  
  <!-- Content Cards -->
  <rect x="170" y="180" width="80" height="100" rx="8" fill="#FF6B6B" opacity="0.2" stroke="#FF6B6B" stroke-width="2">
    <animate attributeName="opacity" values="0.2;0.4;0.2" dur="2s" repeatCount="indefinite"/>
  </rect>
  
  <rect x="260" y="180" width="80" height="100" rx="8" fill="#FF6B6B" opacity="0.2" stroke="#FF6B6B" stroke-width="2">
    <animate attributeName="opacity" values="0.2;0.4;0.2" dur="2s" begin="0.5s" repeatCount="indefinite"/>
  </rect>
  
  <rect x="350" y="180" width="80" height="100" rx="8" fill="#FF6B6B" opacity="0.2" stroke="#FF6B6B" stroke-width="2">
    <animate attributeName="opacity" values="0.2;0.4;0.2" dur="2s" begin="1s" repeatCount="indefinite"/>
  </rect>
  
  <!-- Magnifying Glass Highlight -->
  <circle cx="380" cy="120" r="40" fill="#4F46E5" opacity="0.1">
    <animate attributeName="r" values="40;45;40" dur="2s" repeatCount="indefinite"/>
  </circle>
  
  <!-- Decorative Elements -->
  <circle cx="150" cy="80" r="5" fill="#FF6B6B" opacity="0.5"/>
  <circle cx="450" cy="320" r="5" fill="#FF6B6B" opacity="0.5"/>
  <circle cx="480" cy="100" r="5" fill="#FF6B6B" opacity="0.5"/>
  
  <!-- Connecting Lines -->
  <path d="M155 85 L 170 100" stroke="#FF6B6B" stroke-width="1" opacity="0.5"/>
  <path d="M445 315 L 430 300" stroke="#FF6B6B" stroke-width="1" opacity="0.5"/>
  <path d="M475 105 L 460 120" stroke="#FF6B6B" stroke-width="1" opacity="0.5"/>
</svg>
