<?xml version="1.0" encoding="UTF-8"?>
<svg width="400" height="300" viewBox="0 0 400 300" fill="none" xmlns="http://www.w3.org/2000/svg">
  <!-- Background Elements -->
  <rect width="400" height="300" fill="none"/>
  
  <!-- Documents -->
  <g transform="translate(50, 50)">
    <rect x="0" y="0" width="80" height="100" rx="4" fill="#FF6B6B" opacity="0.2"/>
    <rect x="10" y="20" width="60" height="8" rx="2" fill="#FF6B6B"/>
    <rect x="10" y="40" width="40" height="8" rx="2" fill="#FF6B6B"/>
  </g>
  
  <g transform="translate(200, 100)">
    <rect x="0" y="0" width="80" height="100" rx="4" fill="#FF6B6B" opacity="0.2"/>
    <rect x="10" y="20" width="60" height="8" rx="2" fill="#FF6B6B"/>
    <rect x="10" y="40" width="40" height="8" rx="2" fill="#FF6B6B"/>
  </g>
  
  <g transform="translate(150, 180)">
    <rect x="0" y="0" width="80" height="100" rx="4" fill="#FF6B6B" opacity="0.2"/>
    <rect x="10" y="20" width="60" height="8" rx="2" fill="#FF6B6B"/>
    <rect x="10" y="40" width="40" height="8" rx="2" fill="#FF6B6B"/>
  </g>
  
  <!-- Connecting Lines -->
  <path d="M140 100 L 190 150" stroke="#FF6B6B" stroke-width="2" stroke-dasharray="4 4"/>
  <path d="M240 150 L 290 200" stroke="#FF6B6B" stroke-width="2" stroke-dasharray="4 4"/>
</svg>
