<svg width="32" height="32" viewBox="0 0 32 32" fill="none" xmlns="http://www.w3.org/2000/svg">
<rect x="12.5791" y="17.5449" width="18.0966" height="3.67816" fill="#FF6200"/>
<rect x="2.94238" y="17.5449" width="4.48736" height="3.67816" fill="#FF6200"/>
<path fill-rule="evenodd" clip-rule="evenodd" d="M20.2665 24.1287V21.8851H23.9447V24.1287C23.9447 28.4759 20.4206 32 16.0734 32C11.7262 32 8.20215 28.4759 8.20215 24.1287L8.20215 14.0138H11.8803L11.8803 24.1287C11.8803 26.4445 13.7576 28.3218 16.0734 28.3218C18.3892 28.3218 20.2665 26.4445 20.2665 24.1287ZM11.8803 13.3517L11.8803 9.67356H8.20215L8.20215 13.3517L11.8803 13.3517ZM23.9447 21.223H20.2665V17.5448H23.9447V21.223ZM11.8803 9.01149V7.87126C11.8803 5.55548 13.7576 3.67816 16.0734 3.67816C18.3892 3.67816 20.2665 5.55548 20.2665 7.87126V16.8828H23.9447L23.9447 7.87126C23.9447 3.52408 20.4206 0 16.0734 0C11.7262 0 8.20215 3.52408 8.20215 7.87126L8.20215 9.01149L11.8803 9.01149Z" fill="#FF6200"/>
<path fill-rule="evenodd" clip-rule="evenodd" d="M20.2667 13.3149H23.1724C23.4349 13.3149 23.6929 13.3345 23.9448 13.3724V9.67005C23.6903 9.64798 23.4327 9.63672 23.1724 9.63672H20.2667V13.3149ZM19.6046 9.63672H8.82759C3.95224 9.63672 0 13.589 0 18.4643V22.2896H3.67816V18.4643C3.67816 15.6204 5.98364 13.3149 8.82759 13.3149H19.6046V9.63672ZM28.3218 18.4643C28.3218 16.1182 26.7528 14.1385 24.6069 13.5173V9.75268C28.8 10.4379 32 14.0774 32 18.4643V22.2896H28.3218V18.4643Z" fill="#FF6200"/>
</svg>
