<svg width="183" height="32" viewBox="0 0 183 32" fill="none" xmlns="http://www.w3.org/2000/svg">
<g clip-path="url(#clip0_24521_251308)">
<path d="M12.5794 17.5449H30.6764V21.2229H12.5794V17.5449ZM2.94238 17.5449H7.42938V21.2229H2.94238V17.5449Z" fill="#FF6200"/>
<path fill-rule="evenodd" clip-rule="evenodd" d="M20.2671 24.129V21.885H23.9451V24.129C23.9451 25.1627 23.7415 26.1863 23.346 27.1413C22.9504 28.0963 22.3706 28.9641 21.6396 29.695C20.9087 30.426 20.041 31.0058 19.0859 31.4014C18.1309 31.7969 17.1073 32.0005 16.0736 32.0005C15.0399 32.0005 14.0164 31.7969 13.0614 31.4014C12.1063 31.0058 11.2386 30.426 10.5077 29.695C9.77672 28.9641 9.19691 28.0963 8.80133 27.1413C8.40575 26.1863 8.20215 25.1627 8.20215 24.129V14.014H11.8801V24.129C11.8801 24.6797 11.9886 25.225 12.1994 25.7338C12.4101 26.2426 12.719 26.7049 13.1084 27.0943C13.4978 27.4837 13.9601 27.7926 14.4689 28.0033C14.9776 28.2141 15.523 28.3225 16.0736 28.3225C16.6243 28.3225 17.1697 28.2141 17.6784 28.0033C18.1872 27.7926 18.6495 27.4837 19.0389 27.0943C19.4283 26.7049 19.7372 26.2426 19.9479 25.7338C20.1587 25.225 20.2671 24.6797 20.2671 24.129ZM11.8801 13.352V9.67404H8.20215V13.352H11.8801ZM23.9451 21.223H20.2671V17.545H23.9451V21.223ZM11.8801 9.01103V7.87103C11.8801 6.75885 12.322 5.69222 13.1084 4.90578C13.8948 4.11935 14.9615 3.67754 16.0736 3.67754C17.1858 3.67754 18.2525 4.11935 19.0389 4.90578C19.8253 5.69222 20.2671 6.75885 20.2671 7.87103V16.883H23.9451V7.87003C23.9451 5.78238 23.1158 3.78024 21.6396 2.30404C20.1634 0.827851 18.1613 -0.00146484 16.0736 -0.00146484C13.986 -0.00146484 11.9839 0.827851 10.5077 2.30404C9.03147 3.78024 8.20215 5.78238 8.20215 7.87003V9.01004L11.8801 9.01103Z" fill="#FF6200"/>
<path fill-rule="evenodd" clip-rule="evenodd" d="M20.267 13.3152H23.172C23.4347 13.3152 23.6923 13.3342 23.945 13.3722V9.67021C23.6879 9.64813 23.43 9.63712 23.172 9.63721H20.267V13.3152ZM19.605 9.63721H8.828C6.487 9.63774 4.24203 10.5679 2.5866 12.2231C0.931173 13.8783 0.000795295 16.1232 0 18.4642L0 22.2902H3.678V18.4642C3.678 17.0983 4.22059 15.7884 5.1864 14.8226C6.15221 13.8568 7.46214 13.3142 8.828 13.3142H19.605V9.63721ZM28.322 18.4642C28.3222 17.3485 27.9601 16.2629 27.2901 15.3707C26.6201 14.4786 25.6785 13.8281 24.607 13.5172V9.75321C26.6716 10.0937 28.5482 11.1564 29.9023 12.7519C31.2563 14.3473 31.9997 16.3717 32 18.4642V22.2902H28.322V18.4642Z" fill="#FF6200"/>
<path d="M43.9303 23.625C40.6763 23.625 38.4863 21.435 38.4863 18.16C38.4863 14.906 40.6763 12.695 43.9303 12.695C47.1843 12.695 49.3743 14.906 49.3743 18.16C49.3743 21.435 47.1843 23.625 43.9303 23.625ZM43.9303 21.706C45.8283 21.706 47.0803 20.226 47.0803 18.16C47.0803 16.094 45.8283 14.614 43.9303 14.614C42.0323 14.614 40.8003 16.095 40.8003 18.16C40.8003 20.225 42.0323 21.706 43.9303 21.706ZM56.3803 12.695C59.3013 12.695 61.4293 14.739 61.4293 18.16C61.4293 21.456 59.3013 23.625 56.3813 23.625C54.7333 23.625 53.5863 22.958 52.9183 21.998V27.672H50.6653V12.82H52.6263L52.8973 14.405C53.6073 13.467 54.7113 12.695 56.3803 12.695ZM56.0063 21.727C57.8843 21.727 59.1363 20.246 59.1363 18.16C59.1363 16.053 57.8843 14.614 56.0063 14.614C54.1283 14.614 52.8983 16.054 52.8983 18.118C52.8983 20.246 54.1293 21.727 56.0063 21.727ZM67.7833 23.625C64.4253 23.625 62.3183 21.455 62.3183 18.181C62.3183 14.885 64.4253 12.695 67.5753 12.695C70.6623 12.695 72.7273 14.655 72.7903 17.785C72.7903 18.055 72.7693 18.348 72.7273 18.64H64.6753V18.786C64.7383 20.601 65.8853 21.789 67.6583 21.789C69.0353 21.789 70.0363 21.101 70.3493 19.912H72.6023C72.2263 22.019 70.4313 23.625 67.7833 23.625ZM64.7603 16.992H70.4553C70.2673 15.407 69.1613 14.51 67.5973 14.51C66.1573 14.51 64.9273 15.47 64.7603 16.992ZM76.6903 23.562L72.5403 12.82H74.9383L77.9213 20.934L80.8213 12.82H83.2193L78.3793 25.169C77.7123 26.9 77.2533 27.672 75.6893 27.672H73.2693V25.69H74.8553C75.7313 25.69 75.9393 25.482 76.2733 24.605L76.6903 23.562ZM88.4183 23.625C85.0603 23.625 82.9533 21.455 82.9533 18.181C82.9533 14.885 85.0603 12.695 88.2103 12.695C91.2973 12.695 93.3623 14.655 93.4253 17.785C93.4253 18.055 93.4043 18.348 93.3623 18.64H85.3103V18.786C85.3733 20.601 86.5203 21.789 88.2933 21.789C89.6703 21.789 90.6713 21.101 90.9833 19.912H93.2373C92.8613 22.019 91.0673 23.625 88.4183 23.625ZM85.3943 16.992H91.0883C90.9013 15.407 89.7953 14.51 88.2303 14.51C86.7913 14.51 85.5603 15.47 85.3943 16.992ZM107.012 12.695C109.223 12.695 111.017 13.967 111.017 17.346V23.5H108.764V17.493C108.764 15.615 107.992 14.635 106.532 14.635C104.988 14.635 104.008 15.803 104.008 17.722V23.5H101.734V17.493C101.734 15.615 100.963 14.635 99.4823 14.635C97.9383 14.635 96.9783 15.886 96.9783 17.785V23.5H94.7263V12.82H96.6863L96.9363 14.218C97.5423 13.425 98.4593 12.716 100.066 12.695C101.463 12.695 102.715 13.258 103.361 14.635C104.05 13.467 105.259 12.695 107.012 12.695ZM113.686 11.318C112.914 11.318 112.309 10.755 112.309 9.96196C112.309 9.16996 112.914 8.60696 113.686 8.60696C114.458 8.60696 115.063 9.16996 115.063 9.96196C115.063 10.755 114.458 11.318 113.686 11.318ZM112.537 23.5V12.82H114.79V23.5H112.537ZM131.057 21.54H131.516V23.5H130.327C128.866 23.5 128.366 22.853 128.366 21.79C127.657 22.874 126.572 23.625 124.841 23.625C122.504 23.625 120.877 22.478 120.877 20.496C120.877 18.306 122.463 17.076 125.446 17.076H128.136V16.429C128.136 15.239 127.281 14.509 125.8 14.509C124.465 14.509 123.568 15.136 123.401 16.074H121.19C121.42 13.988 123.214 12.694 125.904 12.694C128.741 12.694 130.368 14.051 130.368 16.574V20.851C130.368 21.393 130.598 21.539 131.057 21.539M128.136 19.119V18.743H125.341C123.944 18.743 123.172 19.265 123.172 20.349C123.172 21.246 123.923 21.872 125.154 21.872C127.031 21.872 128.116 20.766 128.136 19.119ZM133.474 11.317C132.702 11.317 132.097 10.754 132.097 9.96096C132.097 9.16896 132.702 8.60596 133.474 8.60596C134.246 8.60596 134.851 9.16896 134.851 9.96096C134.851 10.754 134.246 11.317 133.474 11.317ZM130.011 27.671V25.69H131.221C132.014 25.69 132.348 25.336 132.348 24.522V12.82H134.601V24.69C134.601 26.609 133.683 27.673 131.68 27.673L130.011 27.671ZM146.048 21.538H146.507V23.5H145.318C143.858 23.5 143.357 22.853 143.357 21.79C142.648 22.874 141.563 23.625 139.832 23.625C137.496 23.625 135.869 22.478 135.869 20.496C135.869 18.306 137.454 17.076 140.437 17.076H143.128V16.429C143.128 15.239 142.272 14.509 140.791 14.509C139.456 14.509 138.559 15.136 138.393 16.074H136.181C136.411 13.988 138.205 12.694 140.896 12.694C143.732 12.694 145.359 14.051 145.359 16.574V20.851C145.359 21.393 145.589 21.538 146.048 21.538ZM143.128 19.119V18.744H140.332C138.935 18.744 138.163 19.266 138.163 20.35C138.163 21.247 138.914 21.873 140.145 21.873C142.022 21.873 143.107 20.767 143.128 19.12M155.37 14.49L155.62 12.821H157.581V23.063C157.581 25.963 155.954 27.798 152.116 27.798C149.279 27.798 147.297 26.484 147.089 24.085H149.383C149.654 25.274 150.697 25.962 152.282 25.962C154.243 25.962 155.349 25.024 155.349 22.98V21.79C154.64 22.854 153.534 23.543 151.865 23.543C148.966 23.543 146.817 21.519 146.817 18.119C146.817 14.844 148.966 12.696 151.865 12.696C153.534 12.696 154.681 13.426 155.37 14.49ZM152.241 21.644C154.118 21.644 155.349 20.205 155.349 18.161C155.349 16.054 154.118 14.594 152.241 14.594C150.364 14.594 149.133 16.054 149.133 18.119C149.133 20.205 150.363 21.645 152.241 21.645M164.977 12.697C167.898 12.697 170.025 14.72 170.025 18.162C170.025 21.437 167.898 23.627 164.977 23.627C163.309 23.627 162.161 22.917 161.494 21.958L161.223 23.502H159.262V8.89896H161.515V14.405C162.224 13.445 163.33 12.695 164.977 12.695M164.602 21.727C166.479 21.727 167.731 20.267 167.731 18.16C167.731 16.074 166.479 14.614 164.602 14.614C162.725 14.614 161.494 16.074 161.494 18.139C161.494 20.246 162.725 21.727 164.602 21.727ZM176.379 23.625C173.021 23.625 170.914 21.455 170.914 18.181C170.914 14.885 173.021 12.695 176.171 12.695C179.258 12.695 181.323 14.655 181.385 17.785C181.385 18.055 181.365 18.348 181.323 18.64H173.271V18.786C173.334 20.601 174.481 21.789 176.254 21.789C177.631 21.789 178.632 21.101 178.945 19.912H181.198C180.822 22.019 179.028 23.625 176.379 23.625ZM173.355 16.992H179.049C178.861 15.407 177.756 14.51 176.191 14.51C174.752 14.51 173.521 15.47 173.355 16.992Z" fill="black"/>
</g>
<defs>
<clipPath id="clip0_24521_251308">
<rect width="183" height="32" fill="white"/>
</clipPath>
</defs>
</svg>
