<svg width="97" height="32" viewBox="0 0 97 32" fill="none" xmlns="http://www.w3.org/2000/svg">
<path d="M0.662125 20.0382C0.220302 19.5963 0 19.0032 0 18.2563V3.6532C0 3.1218 0.389772 2.66908 0.915116 2.59161C0.918748 2.59161 0.923587 2.59161 0.927218 2.5904C1.32909 2.53109 1.72734 2.50204 2.11953 2.50204C3.00317 2.50204 3.64109 2.64973 4.03329 2.94388C4.42548 3.23802 4.62279 3.81782 4.62279 4.68089V16.9599H11.6895C11.8069 17.156 11.9195 17.4114 12.0285 17.7261C12.1362 18.0409 12.1907 18.3834 12.1907 18.7563C12.1907 19.4039 12.0478 19.8893 11.7634 20.2137C11.4789 20.5381 11.0903 20.6991 10.6001 20.6991H2.44394C1.69829 20.6991 1.10395 20.4788 0.662125 20.0369" fill="#57595B"/>
<path d="M12.7485 2.41489C12.7485 1.74792 12.9785 1.1778 13.4409 0.706926C13.9021 0.236053 14.5061 0 15.2518 0C15.9974 0 16.6015 0.236053 17.0627 0.706926C17.5238 1.1778 17.7551 1.74792 17.7551 2.41489C17.7551 3.08186 17.5238 3.68105 17.0627 4.15192C16.6015 4.6228 15.9974 4.85882 15.2518 4.85882C14.5061 4.85882 13.9021 4.6228 13.4409 4.15192C12.9797 3.68105 12.7485 3.10243 12.7485 2.41489Z" fill="#57595B"/>
<path d="M17.4903 19.83C17.4903 20.302 17.1441 20.7075 16.6768 20.7729C16.6732 20.7729 16.6696 20.7729 16.6659 20.7741C16.3125 20.8225 15.9203 20.848 15.4881 20.848C14.6045 20.848 13.9714 20.7051 13.5889 20.4207C13.2064 20.1362 13.0151 19.5818 13.0151 18.7575V7.44803C13.0151 6.97111 13.3577 6.55955 13.8286 6.48087C13.8322 6.48087 13.8358 6.47966 13.8395 6.47845C14.1929 6.41913 14.5851 6.39008 15.0173 6.39008C15.9009 6.39008 16.534 6.53775 16.9165 6.83189C17.299 7.12604 17.4903 7.68529 17.4903 8.51083V19.8312V19.83Z" fill="#57595B"/>
<path d="M27.7079 10.0699C27.2951 9.73576 26.7455 9.56873 26.0592 9.56873C25.5883 9.56873 25.1562 9.62804 24.764 9.74545C24.3706 9.86287 24.0087 10.0105 23.6746 10.1873V19.8287C23.6746 20.3008 23.3284 20.7063 22.8611 20.7717C22.8575 20.7717 22.8539 20.7716 22.8502 20.7728C22.4968 20.8213 22.1034 20.8467 21.6725 20.8467C20.7888 20.8467 20.1509 20.7038 19.7587 20.4194C19.3653 20.1349 19.1704 19.5805 19.1704 18.7562V9.65709C19.1704 9.14627 19.2781 8.73472 19.4948 8.41999C19.7103 8.10648 20.0141 7.81112 20.4075 7.53634C21.0357 7.08484 21.8456 6.72169 22.8369 6.44692C23.8283 6.17214 24.9226 6.03534 26.1197 6.03534C28.2586 6.03534 29.9134 6.50623 31.0815 7.44919C32.2496 8.39094 32.833 9.73696 32.833 11.4837V19.796C32.833 20.2862 32.4747 20.7039 31.9893 20.7717C31.9857 20.7717 31.982 20.7716 31.9784 20.7728C31.6249 20.8213 31.2328 20.8467 30.8006 20.8467C29.917 20.8467 29.2839 20.7038 28.9014 20.4194C28.5189 20.1349 28.3276 19.5805 28.3276 18.7562V11.6011C28.3276 10.9136 28.1218 10.4039 27.7091 10.0699" fill="#57595B"/>
<path d="M43.2838 19.4934C42.8904 19.6701 42.4486 19.813 41.9584 19.9207C41.4669 20.0284 40.9077 20.0829 40.2795 20.0829C39.3958 20.0829 38.557 19.9606 37.7617 19.7149C36.9664 19.4692 36.274 19.0722 35.6857 18.5226C35.0974 17.9731 34.6253 17.2565 34.2719 16.3728C33.9184 15.4892 33.7417 14.4094 33.7417 13.1336C33.7417 11.9752 33.9184 10.9547 34.2719 10.0711C34.6253 9.18744 35.1301 8.44665 35.7886 7.84747C36.4459 7.24828 37.2315 6.79796 38.1442 6.49293C39.0569 6.1891 40.0725 6.03658 41.1921 6.03658C42.3118 6.03658 43.2972 6.17941 44.2099 6.46388C45.1226 6.74834 45.8343 7.05824 46.3451 7.39112C46.718 7.64653 47.0121 7.93582 47.2288 8.26023C47.4442 8.58463 47.5532 8.99136 47.5532 9.48281V20.584C47.5532 21.6045 47.3668 22.4881 46.9939 23.2338C46.6211 23.9794 46.1055 24.5931 45.4482 25.0737C44.7897 25.5542 44.0198 25.9125 43.1362 26.1486C42.2525 26.3846 41.2999 26.502 40.2795 26.502C39.259 26.502 38.3015 26.4137 37.5268 26.2369C36.7509 26.0602 36.1384 25.8338 35.6869 25.5591C35.0187 25.0882 34.6859 24.46 34.6859 23.6744C34.6859 23.2616 34.7742 22.8839 34.951 22.5402C34.9534 22.5365 34.9546 22.5329 34.9558 22.5305C35.187 22.085 35.7341 21.9131 36.1893 22.1226C36.573 22.2993 36.9894 22.4578 37.4385 22.5995C38.1551 22.8246 38.9153 22.9384 39.7202 22.9384C40.8193 22.9384 41.6884 22.7472 42.3264 22.3646C42.9643 21.9821 43.2838 21.3491 43.2838 20.4654V19.4934ZM41.0759 16.696C41.5468 16.696 41.9547 16.6367 42.2973 16.5193C42.6411 16.4019 42.9498 16.2445 43.2245 16.0484V10.0118C42.9885 9.91373 42.7282 9.81569 42.4438 9.71764C42.1593 9.61959 41.801 9.56997 41.3689 9.56997C40.4259 9.56997 39.6657 9.86047 39.0871 10.4391C38.5073 11.0177 38.218 11.9255 38.218 13.1626C38.218 13.8296 38.2919 14.39 38.4383 14.8415C38.586 15.2931 38.7869 15.6562 39.0423 15.931C39.2978 16.2057 39.5967 16.4019 39.9405 16.5205C40.2843 16.6379 40.662 16.6972 41.0747 16.6972" fill="#57595B"/>
<path d="M54.8273 6.03658C55.8478 6.03658 56.775 6.13947 57.6102 6.34525C58.4442 6.55103 59.156 6.87062 59.7455 7.30275C60.3338 7.73489 60.7913 8.28443 61.1145 8.9514C61.4377 9.61837 61.5999 10.404 61.5999 11.307V17.9621C61.5999 18.473 61.468 18.8797 61.2029 19.1847C60.9378 19.4898 60.6182 19.7488 60.2454 19.9655C59.6365 20.3383 58.8909 20.6228 58.0072 20.8189C57.1236 21.015 56.1225 21.113 55.0041 21.113C52.9814 21.113 51.3714 20.7257 50.1743 19.9498C48.9771 19.1751 48.3779 17.9912 48.3779 16.4019C48.3779 15.0473 48.7798 14.0172 49.5848 13.3103C50.3897 12.6034 51.6256 12.1616 53.2949 11.9849L57.2108 11.5721V11.2489C57.2108 10.6206 56.9553 10.1595 56.4457 9.86531C55.9349 9.57117 55.1989 9.4235 54.2378 9.4235C53.491 9.4235 52.7598 9.51186 52.0445 9.68859C51.5796 9.80358 51.1451 9.93067 50.742 10.0699C50.2747 10.2321 49.7458 10.0348 49.517 9.59538C49.5158 9.59175 49.5134 9.58932 49.5122 9.58569C49.3451 9.26128 49.2616 8.91389 49.2616 8.53985C49.2616 7.67679 49.7131 7.05823 50.6161 6.68419C51.185 6.46873 51.8484 6.30652 52.6037 6.19879C53.359 6.09106 54.0998 6.03658 54.8273 6.03658ZM54.9508 17.7854C55.3841 17.7891 55.8187 17.7479 56.2436 17.662C56.6866 17.5724 57.0195 17.4562 57.2422 17.3146V14.6055L54.8273 14.8113C54.1991 14.8706 53.6943 15.0134 53.3106 15.2386C52.9281 15.4649 52.7368 15.8027 52.7368 16.2542C52.7368 16.7057 52.9136 17.0979 53.267 17.3727C53.612 17.6414 54.1737 17.7782 54.9508 17.7842" fill="#57595B"/>
<path d="M86.5986 22.5995C85.399 22.5995 84.1897 22.2327 83.116 21.5137C81.2616 20.2706 79.9882 17.0459 81.1284 14.407C81.6453 13.2087 82.857 11.6459 85.6943 11.0008C86.8358 10.7417 88.1673 10.6534 89.6792 10.7357C89.3827 9.87865 88.8815 9.07247 88.1649 8.55439C87.2062 7.86079 85.9812 7.84264 84.5238 8.49872C83.5772 8.92601 82.4624 8.50355 82.0363 7.55697C81.609 6.61038 82.0302 5.49553 82.978 5.06944C85.675 3.85292 88.2993 4.00787 90.3692 5.50522C92.111 6.76532 93.3252 8.95629 93.6665 11.2634C94.0333 11.3361 94.4085 11.416 94.7898 11.5031C95.803 11.7343 96.4361 12.7426 96.2049 13.7558C95.9737 14.769 94.9653 15.4021 93.9522 15.1709C93.7984 15.1357 93.6447 15.1018 93.4886 15.0679C92.6703 19.4656 90.673 21.2958 89.0534 22.0524C88.2739 22.4167 87.4386 22.5971 86.5986 22.5971M88.5389 14.4796C86.5949 14.4796 85.0274 14.8634 84.5819 15.8959C84.1655 16.8619 84.8301 18.1316 85.2102 18.3871C85.4801 18.5686 86.4412 19.1218 87.4592 18.6461C88.5232 18.1486 89.3342 16.6767 89.7603 14.5257C89.3415 14.4966 88.9324 14.4809 88.5389 14.4809" fill="#57595B"/>
<path d="M74.1787 21.8103C73.0167 21.8103 72.2396 21.274 71.8328 20.8891C71.3438 20.4267 70.9758 19.8251 70.7253 19.0637C69.28 20.8383 68.544 21.7074 66.8614 21.6614C65.2793 21.6214 64.2347 20.929 63.5447 19.6956C62.4589 17.754 62.8499 14.723 64.7734 10.1583C66.0371 7.15871 67.509 4.61431 67.572 4.50658C68.0937 3.60841 69.2448 3.30338 70.143 3.8251C71.0412 4.34681 71.3462 5.49797 70.8257 6.39614C70.8257 6.39614 69.3259 8.99137 68.1409 11.8602C66.2344 16.4721 66.7585 17.3993 67.5211 17.5192C69.2279 17.7879 71.293 9.81933 71.3002 9.79633C71.644 8.86548 72.3703 8.27841 73.3556 8.53503C74.3409 8.79044 74.9438 9.78424 74.7162 10.7768C74.7126 10.7926 71.9938 17.806 73.7587 17.8593C74.4559 17.8811 75.0442 16.6222 75.2609 15.8063C75.7511 13.9628 76.4242 11.439 78.3282 8.48299C78.8911 7.60903 80.0544 7.35844 80.9283 7.9201C81.8011 8.48297 82.0541 9.64623 81.4912 10.5202C79.9067 12.9787 79.3462 15.0837 78.8959 16.7747C78.3512 18.8192 77.7884 20.9339 75.4061 21.6275C74.9583 21.7582 74.5491 21.8115 74.1799 21.8115" fill="#57595B"/>
<path d="M78.0935 32C70.907 32 67.0383 26.6243 66.87 26.3858C66.2721 25.5361 66.4754 24.3632 67.3252 23.7652C68.1725 23.1696 69.3418 23.3706 69.941 24.2131C70.0778 24.4031 73.156 28.5708 78.7799 28.2161C81.2238 28.0624 83.3627 27.4111 85.1361 26.2793C85.5004 26.0469 85.8103 25.8181 86.0681 25.6075C86.7254 25.0737 87.6587 25.0471 88.3462 25.5421C89.3473 26.2612 89.4006 27.7404 88.4443 28.5175C86.7411 29.9023 83.6908 31.6756 79.0159 31.9697C78.7024 31.9891 78.395 31.9988 78.0935 31.9988" fill="#57595B"/>
</svg>
