<svg width="126" height="32" viewBox="0 0 126 32" fill="none" xmlns="http://www.w3.org/2000/svg">
<path d="M125.42 5.34517C125.42 6.01503 125.308 6.61512 125.071 7.17334C124.834 7.71761 124.513 8.19209 124.122 8.58285C123.717 8.9736 123.257 9.28062 122.727 9.48996C122.196 9.69929 121.638 9.81093 121.066 9.81093C120.424 9.81093 119.838 9.69929 119.294 9.476C118.763 9.25271 118.289 8.93174 117.912 8.54098C117.521 8.15023 117.228 7.67574 117.005 7.13148C116.782 6.58721 116.67 6.00108 116.67 5.35912C116.67 4.68926 116.782 4.08917 117.019 3.53095C117.256 2.98668 117.577 2.5122 117.968 2.12145C118.372 1.73069 118.833 1.42367 119.363 1.21434C119.894 1.005 120.452 0.893358 121.052 0.893358C121.638 0.893358 122.182 1.005 122.713 1.21434C123.243 1.42367 123.703 1.73069 124.108 2.12145C124.513 2.5122 124.834 2.98668 125.057 3.53095C125.308 4.07522 125.42 4.68926 125.42 5.34517ZM124.471 5.34517C124.471 4.8009 124.387 4.31246 124.206 3.85193C124.024 3.40535 123.787 3.0146 123.48 2.67967C123.173 2.35869 122.81 2.10749 122.392 1.92607C121.973 1.74464 121.526 1.66091 121.052 1.66091C120.563 1.66091 120.117 1.74464 119.698 1.92607C119.28 2.10749 118.917 2.35869 118.61 2.67967C118.303 3.00064 118.052 3.3914 117.884 3.85193C117.703 4.29851 117.619 4.8009 117.619 5.34517C117.619 5.84757 117.703 6.33601 117.856 6.78259C118.01 7.22916 118.247 7.61992 118.54 7.95485C118.833 8.28978 119.196 8.55494 119.615 8.75032C120.033 8.94569 120.508 9.04338 121.052 9.04338C121.526 9.04338 121.973 8.95965 122.392 8.77823C122.81 8.5968 123.173 8.34561 123.48 8.02463C123.787 7.70365 124.038 7.3129 124.206 6.86632C124.387 6.39183 124.471 5.90339 124.471 5.34517ZM120.243 7.74552H119.489V3.1402H121.233C121.792 3.1402 122.21 3.23789 122.489 3.44722C122.768 3.65655 122.908 3.99148 122.908 4.46597C122.908 4.88464 122.796 5.19166 122.559 5.37308C122.322 5.56846 122.043 5.6801 121.708 5.72197L123.006 7.74552H122.154L120.968 5.77779H120.256V7.74552H120.243ZM121.094 5.12188C121.233 5.12188 121.373 5.12188 121.498 5.10793C121.624 5.09397 121.736 5.06606 121.833 5.01024C121.931 4.95441 122.001 4.88464 122.071 4.78695C122.126 4.68926 122.154 4.56366 122.154 4.39619C122.154 4.25664 122.126 4.145 122.057 4.06126C121.987 3.97753 121.917 3.92171 121.819 3.86589C121.722 3.82402 121.61 3.79611 121.498 3.78215C121.373 3.7682 121.261 3.7682 121.15 3.7682H120.243V5.12188H121.094Z" fill="#57595B"/>
<path d="M52.4178 18.9653C52.4458 20.6819 53.7297 21.7285 55.5857 21.7285H55.8927C57.4697 21.7285 58.4885 20.9889 58.4885 19.7747C58.4885 18.7979 57.9163 18.1978 56.4649 17.8907L54.2181 17.3465C50.8269 16.5371 49.1662 15.0578 49.1662 12.3644C49.1662 9.3081 51.8178 7.25664 55.7532 7.25664C60.0654 7.25664 62.4518 9.47557 62.5076 13.0482H58.642C58.4745 11.3317 57.4278 10.285 55.7811 10.285H55.4741C54.0227 10.285 53.0179 11.1223 53.0179 12.2388C53.0179 13.2156 53.7576 13.7878 55.3764 14.1507L57.693 14.7228C60.819 15.4904 62.2983 16.9418 62.3402 19.5933C62.3402 22.5519 59.884 24.7429 55.6136 24.7429C51.106 24.7429 48.4824 22.524 48.4824 18.9514H52.4178V18.9653Z" fill="#57595B"/>
<path d="M71.7186 7.25664C74.1748 7.25664 76.0867 8.4289 76.8961 10.0198V7.59157H80.7617V24.408H76.8961V21.9797C76.0587 23.4869 74.1329 24.7429 71.7186 24.7429C68.0204 24.7429 64.4199 21.575 64.4199 15.9928C64.4199 10.3827 67.7553 7.25664 71.7186 7.25664ZM72.7234 21.6169C75.1516 21.6169 76.8961 19.3282 76.8961 15.9928C76.8961 12.6574 75.1516 10.3687 72.7234 10.3687H72.4582C70.0719 10.3687 68.2856 12.8249 68.2856 15.9928C68.2856 19.1188 70.0719 21.6169 72.4582 21.6169H72.7234Z" fill="#57595B"/>
<path d="M88.1444 9.88069C88.9538 8.54096 90.9355 7.25705 93.1963 7.25705C97.8713 7.25705 100.662 11.1925 100.662 16.0072C100.662 20.8218 97.8713 24.7573 93.1963 24.7573C90.9494 24.7573 88.9538 23.4734 88.1444 22.1336V24.4223H84.3066V0.865429H88.1444V9.88069ZM92.345 10.3831C89.9865 10.3831 88.1444 12.7695 88.1444 16.0072C88.1444 19.2309 90.0005 21.6312 92.345 21.6312H92.6101C95.0663 21.6312 96.7828 19.2448 96.7828 16.0072C96.7828 12.6718 95.0942 10.3831 92.6101 10.3831H92.345Z" fill="#57595B"/>
<path d="M116.642 21.2824V24.4084H102.17V21.2824H107.473V10.718H102.198V7.59201H111.353V21.2824H116.642ZM111.339 4.87068H107.487V0.89336H111.339V4.87068Z" fill="#57595B"/>
<path d="M37.8632 16.0209L21.9121 0V10.676L27.2291 16.0209L21.9121 21.3799V32L37.8632 16.0209Z" fill="#57595B"/>
<path d="M21.91 10.676L11.248 0V32L21.91 21.3799V10.676Z" fill="#57595B"/>
<path d="M5.90462 10.6764L0.601562 16.0213L5.90462 21.3803V10.6764Z" fill="#57595B"/>
</svg>
