<svg xmlns="http://www.w3.org/2000/svg" width="97" height="32" fill="none" viewBox="0 0 97 32"><path fill="#57595B" d="M.662 20.038Q0 19.376 0 18.256V3.653c0-.531.39-.984.915-1.061q.007 0 .012-.002.603-.088 1.193-.088 1.325 0 1.913.442t.59 1.737V16.96h7.067q.176.294.338.766.163.471.163 1.03 0 .971-.428 1.458-.427.485-1.163.485H2.444q-1.119 0-1.782-.662M12.749 2.415q0-1.001.692-1.708T15.25 0q1.119 0 1.812.707.691.705.692 1.708a2.42 2.42 0 0 1-.692 1.737q-.692.706-1.811.707-1.12 0-1.811-.707-.692-.707-.693-1.737M17.49 19.83a.95.95 0 0 1-.813.943l-.011.001a9 9 0 0 1-1.178.074q-1.325 0-1.9-.427-.573-.428-.573-1.663V7.448a.98.98 0 0 1 .814-.967q.005 0 .01-.003.53-.088 1.178-.088 1.326 0 1.9.442.573.44.573 1.679v11.32zm10.218-9.76q-.619-.501-1.649-.501-.706 0-1.295.176a6 6 0 0 0-1.09.442v9.642a.95.95 0 0 1-.813.943h-.01a9 9 0 0 1-1.178.075q-1.326 0-1.914-.428-.59-.426-.589-1.663V9.657q0-.765.325-1.237.323-.471.912-.884.944-.676 2.43-1.09 1.487-.41 3.283-.41 3.209 0 4.961 1.413t1.752 4.035v8.312c0 .49-.358.908-.844.976h-.01a9 9 0 0 1-1.178.075q-1.326 0-1.9-.428-.573-.426-.573-1.663v-7.155q0-1.03-.619-1.531m15.575 9.423q-.59.266-1.326.428a8 8 0 0 1-1.678.162 8.5 8.5 0 0 1-2.518-.368 5.3 5.3 0 0 1-2.076-1.192q-.883-.825-1.414-2.15-.53-1.326-.53-3.24 0-1.737.53-3.062a5.9 5.9 0 0 1 1.517-2.224q.986-.898 2.355-1.354t3.048-.456c1.12 0 2.105.142 3.018.427q1.369.427 2.135.927.559.383.884.87.323.485.324 1.222v11.101q0 1.53-.56 2.65a5 5 0 0 1-1.545 1.84q-.986.72-2.312 1.075-1.326.354-2.857.353c-1.02 0-1.978-.088-2.752-.265q-1.164-.265-1.84-.678-1.001-.705-1.001-1.885 0-.618.265-1.134l.005-.01a.943.943 0 0 1 1.233-.407q.575.264 1.25.476a7.6 7.6 0 0 0 2.281.34q1.65 0 2.606-.574.957-.574.958-1.9zm-2.208-2.797q.706 0 1.221-.177a3.6 3.6 0 0 0 .928-.47v-6.037a14 14 0 0 0-.781-.294q-.427-.148-1.075-.148-1.414 0-2.282.87-.87.867-.869 2.723 0 1.001.22 1.678.222.678.604 1.09.384.411.898.59a3.5 3.5 0 0 0 1.135.176m13.752-10.66q1.53 0 2.783.308 1.251.31 2.136.958a4.4 4.4 0 0 1 1.368 1.648q.486 1.001.486 2.356v6.655q0 .766-.397 1.223a3.8 3.8 0 0 1-.958.78q-.912.56-2.238.854-1.325.294-3.003.294-3.035 0-4.83-1.163-1.796-1.163-1.796-3.548 0-2.032 1.207-3.092 1.206-1.06 3.71-1.325l3.916-.413v-.323q0-.942-.765-1.384-.767-.441-2.208-.441a9 9 0 0 0-2.193.265q-.698.173-1.303.38a1.01 1.01 0 0 1-1.225-.474l-.005-.01a2.25 2.25 0 0 1-.25-1.045q0-1.295 1.354-1.856a9.4 9.4 0 0 1 1.988-.485 16 16 0 0 1 2.223-.162m.124 11.748a6.2 6.2 0 0 0 1.293-.123q.665-.135.998-.347v-2.71l-2.415.206q-.942.09-1.516.428-.574.339-.574 1.015c0 .452.177.844.53 1.119q.518.402 1.684.411M86.599 22.6c-1.2 0-2.41-.367-3.483-1.086-1.854-1.243-3.128-4.468-1.988-7.107.517-1.198 1.729-2.761 4.566-3.406q1.715-.39 3.985-.265c-.296-.857-.797-1.664-1.514-2.182-.959-.693-2.184-.711-3.641-.055a1.88 1.88 0 1 1-1.546-3.43c2.697-1.216 5.321-1.061 7.391.436 1.742 1.26 2.956 3.451 3.297 5.758q.552.11 1.124.24a1.88 1.88 0 1 1-.838 3.668q-.23-.053-.463-.103c-.819 4.398-2.816 6.228-4.436 6.984a5.8 5.8 0 0 1-2.454.545m1.94-8.117c-1.944 0-3.512.383-3.957 1.416-.416.966.248 2.236.628 2.491.27.182 1.231.735 2.25.26 1.063-.498 1.874-1.97 2.3-4.121q-.63-.045-1.221-.045"/><path fill="#57595B" d="M74.179 21.81a3.37 3.37 0 0 1-2.346-.92c-.49-.463-.857-1.065-1.108-1.826-1.445 1.774-2.181 2.643-3.864 2.597-1.582-.04-2.626-.732-3.316-1.965-1.086-1.942-.695-4.973 1.228-9.538a55 55 0 0 1 2.799-5.651 1.88 1.88 0 0 1 3.254 1.89s-1.5 2.594-2.685 5.463c-1.907 4.612-1.383 5.54-.62 5.66 1.707.268 3.772-7.7 3.78-7.724.343-.93 1.07-1.518 2.055-1.261a1.88 1.88 0 0 1 1.36 2.242c-.003.016-2.722 7.029-.957 7.082.697.022 1.285-1.237 1.502-2.053.49-1.843 1.163-4.367 3.067-7.323a1.881 1.881 0 0 1 3.163 2.037c-1.584 2.459-2.145 4.564-2.595 6.255-.545 2.044-1.108 4.159-3.49 4.853-.448.13-.857.183-1.226.183M78.094 32c-7.187 0-11.056-5.376-11.224-5.614a1.88 1.88 0 0 1 3.071-2.173c.137.19 3.215 4.358 8.839 4.003 2.444-.154 4.583-.805 6.356-1.937.364-.232.674-.46.932-.671a1.875 1.875 0 0 1 2.278-.066c1.001.72 1.055 2.198.098 2.975-1.703 1.385-4.753 3.159-9.428 3.453q-.47.03-.922.029"/></svg>