<svg width="89" height="32" viewBox="0 0 89 32" fill="none" xmlns="http://www.w3.org/2000/svg">
<path d="M11.5664 27.3663V4.63373H15.6583V27.3663H11.5664Z" fill="#57595B"/>
<path d="M24.9772 27.8209C23.3751 27.8209 21.9353 27.4962 20.658 26.8467C19.3806 26.1972 18.3739 25.2554 17.6378 24.0213C16.9017 22.7873 16.5337 21.3043 16.5337 19.5723V19.0527C16.5337 17.3207 16.9017 15.8376 17.6378 14.6036C18.3739 13.3695 19.3806 12.4277 20.658 11.7782C21.9353 11.1287 23.3751 10.804 24.9772 10.804C26.5793 10.804 28.019 11.1287 29.2964 11.7782C30.5737 12.4277 31.5804 13.3695 32.3165 14.6036C33.0526 15.8376 33.4207 17.3207 33.4207 19.0527V19.5723C33.4207 21.3043 33.0526 22.7873 32.3165 24.0213C31.5804 25.2554 30.5737 26.1972 29.2964 26.8467C28.019 27.4962 26.5793 27.8209 24.9772 27.8209ZM24.9772 24.1837C26.2329 24.1837 27.2721 23.7832 28.0948 22.9821C28.9175 22.1594 29.3288 20.9903 29.3288 19.4748V19.1501C29.3288 17.6346 28.9175 16.4763 28.0948 15.6752C27.2937 14.8525 26.2545 14.4412 24.9772 14.4412C23.7215 14.4412 22.6823 14.8525 21.8596 15.6752C21.0369 16.4763 20.6255 17.6346 20.6255 19.1501V19.4748C20.6255 20.9903 21.0369 22.1594 21.8596 22.9821C22.6823 23.7832 23.7215 24.1837 24.9772 24.1837Z" fill="#57595B"/>
<path d="M40.4884 27.3663C39.4275 27.3663 38.5615 27.0415 37.8904 26.392C37.2409 25.7209 36.9161 24.8332 36.9161 23.7291V14.636H32.8892V11.2586H36.9161V6.25748H41.008V11.2586H44.4504V14.636H41.008V23.0146C41.008 23.6641 41.3111 23.9889 41.9173 23.9889H45.0349V27.3663H40.4884ZM51.0753 27.3663C50.0144 27.3663 49.1484 27.0415 48.4773 26.392C47.8278 25.7209 47.503 24.8332 47.503 23.7291V14.636H44.4504V11.2586H47.503V6.25748H51.5949V11.2586H56.0115V14.636H51.5949V23.0146C51.5949 23.6641 51.898 23.9889 52.5042 23.9889H55.6218V27.3663H51.0753Z" fill="#57595B"/>
<path d="M56.8414 27.3663V11.2586H60.9333V27.3663H56.8414ZM58.8874 9.37509C58.1513 9.37509 57.5234 9.13694 57.0038 8.66064C56.5059 8.18433 56.2569 7.55648 56.2569 6.77708C56.2569 5.99768 56.5059 5.36983 57.0038 4.89353C57.5234 4.41723 58.1513 4.17908 58.8874 4.17908C59.6451 4.17908 60.273 4.41723 60.7709 4.89353C61.2689 5.36983 61.5178 5.99768 61.5178 6.77708C61.5178 7.55648 61.2689 8.18433 60.7709 8.66064C60.273 9.13694 59.6451 9.37509 58.8874 9.37509Z" fill="#57595B"/>
<path d="M68.9859 27.5633C68.8404 26.7037 68.4569 25.778 67.8353 24.7862C67.2138 23.7811 66.3277 22.8488 65.1772 21.9892C64.0398 21.1295 62.9025 20.5807 61.7652 20.3427V19.5095C62.8893 19.245 63.9671 18.7557 64.9986 18.0416C66.0434 17.3142 66.9162 16.4414 67.6171 15.4231C68.3312 14.3784 68.7875 13.3468 68.9859 12.3285H69.819C69.938 12.9898 70.1761 13.6708 70.5331 14.3717C70.8902 15.0594 71.3465 15.7207 71.9019 16.3554C72.4706 16.977 73.1053 17.5391 73.8062 18.0416C74.851 18.7822 75.9156 19.2715 77 19.5095V20.3427C76.2726 20.4882 75.5188 20.7857 74.7386 21.2353C73.9716 21.685 73.2574 22.2206 72.5962 22.8421C71.935 23.4505 71.3927 24.0919 70.9696 24.7663C70.348 25.7582 69.9645 26.6905 69.819 27.5633H68.9859Z" fill="#57595B"/>
</svg>
