<svg xmlns="http://www.w3.org/2000/svg" width="126" height="32" fill="none" viewBox="0 0 126 32"><path fill="#57595B" d="M125.42 5.345c0 .67-.112 1.27-.349 1.828a4.6 4.6 0 0 1-.949 1.41c-.405.39-.865.698-1.395.907a4.5 4.5 0 0 1-1.661.32 4.6 4.6 0 0 1-1.772-.334 4.2 4.2 0 0 1-1.382-.935c-.391-.39-.684-.865-.907-1.41a4.6 4.6 0 0 1-.335-1.772c0-.67.112-1.27.349-1.828a4.6 4.6 0 0 1 .949-1.41c.404-.39.865-.697 1.395-.907a4.6 4.6 0 0 1 1.689-.32c.586 0 1.13.111 1.661.32.53.21.99.517 1.395.907.405.391.726.866.949 1.41.251.544.363 1.158.363 1.814m-.949 0a4 4 0 0 0-.265-1.493 3.9 3.9 0 0 0-.726-1.172 3.3 3.3 0 0 0-1.088-.754 3.3 3.3 0 0 0-1.34-.265c-.489 0-.935.084-1.354.265a3.32 3.32 0 0 0-1.814 1.926c-.181.447-.265.949-.265 1.493 0 .503.084.991.237 1.438.154.446.391.837.684 1.172s.656.6 1.075.795.893.293 1.437.293c.474 0 .921-.083 1.34-.265a3.3 3.3 0 0 0 1.088-.753 3.4 3.4 0 0 0 .726-1.159c.181-.474.265-.963.265-1.52m-4.228 2.4h-.754V3.14h1.744c.559 0 .977.098 1.256.307.279.21.419.544.419 1.019 0 .419-.112.726-.349.907a1.6 1.6 0 0 1-.851.349l1.298 2.024h-.852l-1.186-1.968h-.712v1.968zm.851-2.623c.139 0 .279 0 .404-.014a.85.85 0 0 0 .335-.098.7.7 0 0 0 .238-.223.8.8 0 0 0 .083-.39.5.5 0 0 0-.097-.336.8.8 0 0 0-.238-.195 1.2 1.2 0 0 0-.321-.084c-.125-.014-.237-.014-.348-.014h-.907v1.354zM52.418 18.965c.028 1.717 1.312 2.764 3.168 2.764h.307c1.577 0 2.596-.74 2.596-1.954 0-.977-.573-1.577-2.024-1.884l-2.247-.544c-3.391-.81-5.052-2.29-5.052-4.983 0-3.056 2.652-5.107 6.587-5.107 4.312 0 6.699 2.219 6.755 5.791h-3.866c-.168-1.716-1.214-2.763-2.86-2.763h-.308c-1.451 0-2.456.837-2.456 1.954 0 .977.74 1.549 2.358 1.912l2.317.572c3.126.767 4.605 2.219 4.647 4.87 0 2.959-2.456 5.15-6.726 5.15-4.508 0-7.132-2.219-7.132-5.792h3.936zM71.719 7.257c2.456 0 4.368 1.172 5.177 2.763V7.592h3.866v16.816h-3.866V21.98c-.837 1.507-2.763 2.763-5.177 2.763-3.699 0-7.3-3.168-7.3-8.75 0-5.61 3.336-8.736 7.3-8.736m1.004 14.36c2.429 0 4.173-2.289 4.173-5.624 0-3.336-1.744-5.624-4.173-5.624h-.265c-2.386 0-4.172 2.456-4.172 5.624 0 3.126 1.786 5.624 4.172 5.624zM88.144 9.88c.81-1.339 2.791-2.623 5.052-2.623 4.675 0 7.466 3.936 7.466 8.75 0 4.815-2.79 8.75-7.466 8.75-2.247 0-4.242-1.284-5.052-2.623v2.288h-3.837V.865h3.837zm4.201.503c-2.358 0-4.2 2.387-4.2 5.624 0 3.224 1.856 5.624 4.2 5.624h.265c2.456 0 4.173-2.386 4.173-5.624 0-3.335-1.689-5.624-4.173-5.624zm24.297 10.899v3.126H102.17v-3.126h5.303V10.718h-5.275V7.592h9.155v13.69zm-5.303-16.411h-3.852V.893h3.852zM37.863 16.02 21.913 0v10.676l5.316 5.345-5.317 5.359V32zM21.91 10.676 11.248 0v32L21.91 21.38zm-16.005 0L.602 16.021l5.303 5.36z"/></svg>