<svg width="1484" height="474" viewBox="0 0 1484 474" fill="none" xmlns="http://www.w3.org/2000/svg">
<path d="M1447 184H39C30.1634 184 23 191.163 23 200V274C23 282.837 30.1634 290 39 290H1447C1455.84 290 1463 282.837 1463 274V200C1463 191.163 1455.84 184 1447 184Z" fill="#2A2A2A"/>
<path d="M1447 184H39C30.1634 184 23 191.163 23 200V274C23 282.837 30.1634 290 39 290H1447C1455.84 290 1463 282.837 1463 274V200C1463 191.163 1455.84 184 1447 184Z" fill="#2A2A2A"/>
<path d="M253 184H188V290H253V184Z" fill="white" fill-opacity="0.1"/>
<path d="M348 184H283V290H348V184Z" fill="white" fill-opacity="0.1"/>
<path d="M443 184H378V290H443V184Z" fill="white" fill-opacity="0.1"/>
<path d="M538 184H473V290H538V184Z" fill="white" fill-opacity="0.1"/>
<path d="M633 184H568V290H633V184Z" fill="white" fill-opacity="0.1"/>
<path d="M728 184H663V290H728V184Z" fill="white" fill-opacity="0.1"/>
<path d="M823 184H758V290H823V184Z" fill="white" fill-opacity="0.1"/>
<path d="M918 184H853V290H918V184Z" fill="white" fill-opacity="0.1"/>
<path d="M1013 184H948V290H1013V184Z" fill="white" fill-opacity="0.1"/>
<path d="M1108 184H1043V290H1108V184Z" fill="white" fill-opacity="0.1"/>
<path d="M1203 184H1138V290H1203V184Z" fill="white" fill-opacity="0.1"/>
<path d="M1298 184H1233V290H1298V184Z" fill="white" fill-opacity="0.1"/>
<mask id="mask0_1780_593" style="mask-type:luminance" maskUnits="userSpaceOnUse" x="23" y="231" width="166" height="15">
<path d="M189 231H23V246H189V231Z" fill="white"/>
</mask>
<g mask="url(#mask0_1780_593)">
<path d="M23.5 246V231" stroke="#E8178A"/>
<path d="M23 238.5H189" stroke="#E8178A"/>
<path d="M188.5 246V231" stroke="#E8178A"/>
</g>
<path d="M98.5079 224H96.8604V216.07L94.3105 217.007V215.564L98.4053 214.047H98.5079V224ZM107.234 213.999V215.387H107.125C106.583 215.387 106.111 215.462 105.71 215.612C105.314 215.758 104.979 215.963 104.705 216.228C104.427 216.492 104.211 216.809 104.056 217.178C103.905 217.547 103.812 217.943 103.775 218.367C103.885 218.244 104.012 218.126 104.158 218.012C104.304 217.893 104.466 217.788 104.644 217.697C104.812 217.611 104.999 217.542 105.204 217.492C105.409 217.438 105.626 217.41 105.854 217.41C106.337 217.41 106.756 217.501 107.111 217.684C107.471 217.866 107.768 218.112 108 218.422C108.237 218.732 108.41 219.087 108.52 219.488C108.633 219.889 108.69 220.306 108.69 220.739C108.69 221.213 108.618 221.658 108.472 222.072C108.33 222.482 108.123 222.84 107.85 223.146C107.572 223.455 107.232 223.699 106.831 223.877C106.435 224.05 105.981 224.137 105.471 224.137C104.947 224.137 104.48 224.036 104.069 223.836C103.659 223.635 103.313 223.364 103.03 223.022C102.73 222.667 102.502 222.25 102.347 221.771C102.192 221.288 102.114 220.78 102.114 220.247V219.57C102.114 218.768 102.217 218.005 102.422 217.28C102.632 216.551 102.978 215.924 103.461 215.4C103.871 214.949 104.377 214.603 104.979 214.361C105.58 214.12 106.268 213.999 107.043 213.999H107.234ZM105.45 218.736C105.254 218.736 105.067 218.766 104.89 218.825C104.712 218.884 104.548 218.966 104.397 219.071C104.261 219.176 104.138 219.297 104.028 219.434C103.919 219.57 103.828 219.723 103.755 219.892V220.397C103.755 220.794 103.798 221.143 103.885 221.443C103.976 221.744 104.099 221.995 104.254 222.195C104.409 222.396 104.589 222.549 104.794 222.653C104.999 222.758 105.218 222.811 105.45 222.811C105.705 222.811 105.933 222.76 106.134 222.66C106.334 222.555 106.505 222.414 106.647 222.236C106.788 222.054 106.895 221.84 106.968 221.594C107.041 221.343 107.077 221.072 107.077 220.78C107.077 220.502 107.041 220.24 106.968 219.994C106.899 219.743 106.797 219.525 106.66 219.338C106.523 219.151 106.353 219.005 106.147 218.9C105.947 218.791 105.715 218.736 105.45 218.736ZM115.995 220.452H117.246V221.778H115.995V224H114.361V221.778H110.054L110.013 220.773L114.313 214.047H115.995V220.452ZM111.681 220.452H114.361V216.234L114.17 216.59L111.681 220.452Z" fill="#E8178A"/>
<mask id="mask1_1780_593" style="mask-type:luminance" maskUnits="userSpaceOnUse" x="188" y="231" width="65" height="15">
<path d="M253 231H188V246H253V231Z" fill="white"/>
</mask>
<g mask="url(#mask1_1780_593)">
<path d="M188.5 246V231" stroke="#E8178A"/>
<path d="M188 238.5H253" stroke="#E8178A"/>
<path d="M252.5 246V231" stroke="#E8178A"/>
</g>
<path d="M208.852 221.71H205.728L205.051 224H203.342L206.583 214.047H208.039L211.224 224H209.522L208.852 221.71ZM206.145 220.302H208.449L207.307 216.364L206.145 220.302ZM217.175 224L217.079 222.968C216.829 223.337 216.523 223.626 216.163 223.836C215.803 224.041 215.4 224.144 214.953 224.144C214.571 224.144 214.22 224.084 213.901 223.966C213.586 223.843 213.315 223.654 213.087 223.398C212.864 223.143 212.691 222.817 212.568 222.421C212.445 222.02 212.383 221.541 212.383 220.985V216.604H214.017V220.999C214.017 221.341 214.042 221.628 214.092 221.86C214.142 222.088 214.222 222.271 214.331 222.407C214.441 222.549 214.58 222.649 214.748 222.708C214.917 222.767 215.115 222.797 215.343 222.797C215.58 222.797 215.792 222.772 215.979 222.722C216.166 222.667 216.33 222.594 216.471 222.503C216.589 222.421 216.694 222.325 216.785 222.216C216.877 222.102 216.954 221.977 217.018 221.84V216.604H218.658V224H217.175ZM223.878 214.799V216.604H226.66V217.827H223.878V221.361C223.878 221.635 223.91 221.865 223.973 222.052C224.042 222.234 224.135 222.378 224.254 222.482C224.372 222.592 224.514 222.669 224.678 222.715C224.842 222.76 225.022 222.783 225.218 222.783C225.359 222.783 225.505 222.776 225.655 222.763C225.806 222.749 225.951 222.731 226.093 222.708C226.229 222.69 226.357 222.669 226.475 222.646C226.598 222.619 226.701 222.596 226.783 222.578L226.961 223.706C226.842 223.779 226.699 223.843 226.53 223.897C226.366 223.948 226.188 223.991 225.997 224.027C225.806 224.064 225.605 224.091 225.395 224.109C225.19 224.132 224.985 224.144 224.78 224.144C224.406 224.144 224.062 224.093 223.748 223.993C223.438 223.888 223.171 223.727 222.948 223.508C222.725 223.294 222.549 223.018 222.422 222.681C222.299 222.343 222.237 221.938 222.237 221.464V217.827H220.446V216.604H222.237V214.799H223.878ZM228.564 220.233C228.564 219.696 228.641 219.199 228.796 218.743C228.951 218.283 229.177 217.884 229.473 217.547C229.765 217.21 230.123 216.945 230.546 216.754C230.97 216.562 231.453 216.467 231.996 216.467C232.538 216.467 233.021 216.562 233.445 216.754C233.873 216.945 234.235 217.21 234.532 217.547C234.823 217.884 235.047 218.283 235.202 218.743C235.357 219.199 235.434 219.696 235.434 220.233V220.377C235.434 220.919 235.357 221.418 235.202 221.874C235.047 222.33 234.823 222.726 234.532 223.063C234.24 223.401 233.88 223.665 233.452 223.856C233.028 224.048 232.547 224.144 232.009 224.144C231.467 224.144 230.982 224.048 230.553 223.856C230.125 223.665 229.765 223.401 229.473 223.063C229.177 222.726 228.951 222.33 228.796 221.874C228.641 221.418 228.564 220.919 228.564 220.377V220.233ZM230.198 220.377C230.198 220.71 230.232 221.024 230.3 221.32C230.373 221.617 230.485 221.876 230.635 222.1C230.781 222.323 230.968 222.501 231.196 222.633C231.424 222.76 231.695 222.824 232.009 222.824C232.315 222.824 232.581 222.76 232.809 222.633C233.037 222.501 233.224 222.323 233.37 222.1C233.515 221.876 233.623 221.617 233.691 221.32C233.764 221.024 233.8 220.71 233.8 220.377V220.233C233.8 219.91 233.764 219.6 233.691 219.304C233.618 219.007 233.511 218.748 233.37 218.524C233.219 218.301 233.03 218.123 232.802 217.991C232.579 217.859 232.31 217.793 231.996 217.793C231.686 217.793 231.417 217.859 231.189 217.991C230.966 218.123 230.781 218.301 230.635 218.524C230.485 218.748 230.373 219.007 230.3 219.304C230.232 219.6 230.198 219.91 230.198 220.233V220.377Z" fill="#E8178A"/>
<mask id="mask2_1780_593" style="mask-type:luminance" maskUnits="userSpaceOnUse" x="348" y="231" width="30" height="15">
<path d="M378 231H348V246H378V231Z" fill="white"/>
</mask>
<g mask="url(#mask2_1780_593)">
<path d="M348.5 246V231" stroke="#E8178A"/>
<path d="M348 238.5H378" stroke="#E8178A"/>
<path d="M377.5 246V231" stroke="#E8178A"/>
</g>
<path d="M356.951 217.285H357.928C358.22 217.285 358.475 217.246 358.694 217.169C358.913 217.087 359.093 216.973 359.234 216.827C359.366 216.7 359.466 216.542 359.535 216.355C359.608 216.164 359.644 215.959 359.644 215.74C359.644 215.503 359.61 215.291 359.542 215.104C359.478 214.918 359.382 214.758 359.255 214.626C359.127 214.503 358.965 214.407 358.769 214.339C358.578 214.271 358.357 214.236 358.106 214.236C357.883 214.236 357.675 214.271 357.484 214.339C357.297 214.403 357.135 214.496 356.999 214.619C356.857 214.742 356.746 214.89 356.664 215.063C356.586 215.237 356.548 215.43 356.548 215.645H354.914C354.914 215.248 354.994 214.883 355.153 214.551C355.313 214.218 355.534 213.929 355.816 213.683C356.099 213.441 356.431 213.252 356.814 213.115C357.202 212.979 357.625 212.91 358.086 212.91C358.555 212.91 358.986 212.972 359.378 213.095C359.774 213.213 360.111 213.391 360.389 213.628C360.672 213.869 360.891 214.166 361.046 214.517C361.201 214.868 361.278 215.275 361.278 215.74C361.278 215.945 361.246 216.15 361.182 216.355C361.123 216.561 361.032 216.759 360.909 216.95C360.786 217.137 360.631 217.312 360.444 217.477C360.257 217.641 360.038 217.78 359.788 217.894C360.084 217.994 360.335 218.126 360.54 218.29C360.749 218.45 360.92 218.63 361.052 218.83C361.185 219.035 361.28 219.256 361.34 219.493C361.399 219.726 361.428 219.967 361.428 220.218C361.428 220.683 361.342 221.097 361.169 221.462C361 221.822 360.768 222.125 360.471 222.371C360.171 222.622 359.815 222.813 359.405 222.945C358.999 223.073 358.56 223.137 358.086 223.137C357.657 223.137 357.245 223.077 356.848 222.959C356.452 222.84 356.103 222.663 355.802 222.426C355.502 222.189 355.26 221.897 355.078 221.551C354.9 221.2 354.811 220.792 354.811 220.327H356.445C356.445 220.546 356.484 220.749 356.561 220.936C356.643 221.118 356.759 221.273 356.91 221.4C357.056 221.533 357.229 221.635 357.429 221.708C357.634 221.781 357.86 221.817 358.106 221.817C358.37 221.817 358.607 221.783 358.817 221.715C359.031 221.642 359.211 221.535 359.357 221.394C359.498 221.261 359.605 221.097 359.678 220.901C359.756 220.701 359.795 220.473 359.795 220.218C359.795 219.931 359.751 219.685 359.665 219.479C359.578 219.274 359.453 219.104 359.289 218.967C359.125 218.835 358.926 218.737 358.694 218.673C358.466 218.604 358.211 218.57 357.928 218.57H356.951V217.285ZM369.826 223H363.148V221.865L366.388 218.338C366.657 218.042 366.882 217.777 367.065 217.545C367.247 217.308 367.395 217.091 367.509 216.896C367.618 216.7 367.696 216.517 367.742 216.349C367.792 216.175 367.817 216.002 367.817 215.829C367.817 215.597 367.783 215.385 367.714 215.193C367.646 215.002 367.546 214.838 367.413 214.701C367.281 214.564 367.122 214.457 366.935 214.38C366.753 214.302 366.548 214.264 366.32 214.264C366.028 214.264 365.775 214.305 365.561 214.387C365.347 214.469 365.169 214.585 365.028 214.735C364.882 214.895 364.772 215.089 364.7 215.316C364.627 215.54 364.59 215.795 364.59 216.082H362.95C362.95 215.649 363.029 215.241 363.189 214.858C363.348 214.471 363.576 214.134 363.872 213.847C364.164 213.56 364.52 213.332 364.939 213.163C365.363 212.994 365.834 212.91 366.354 212.91C366.841 212.91 367.277 212.981 367.659 213.122C368.047 213.263 368.373 213.459 368.637 213.71C368.897 213.961 369.095 214.261 369.232 214.612C369.368 214.959 369.437 215.341 369.437 215.761C369.437 216.075 369.384 216.381 369.28 216.677C369.179 216.968 369.04 217.258 368.863 217.545C368.68 217.832 368.464 218.121 368.213 218.413C367.967 218.705 367.698 219.006 367.407 219.315L365.192 221.681H369.826V223Z" fill="#E8178A"/>
<path d="M446 330H39C30.1634 330 23 337.163 23 346V420C23 428.837 30.1634 436 39 436H446C454.837 436 462 428.837 462 420V346C462 337.163 454.837 330 446 330Z" fill="#2A2A2A"/>
<path d="M134.75 330H39V436H134.75V330Z" fill="white" fill-opacity="0.1"/>
<path d="M238.5 330H142.75V436H238.5V330Z" fill="white" fill-opacity="0.1"/>
<path d="M342.25 330H246.5V436H342.25V330Z" fill="white" fill-opacity="0.1"/>
<path d="M446 330H350.25V436H446V330Z" fill="white" fill-opacity="0.1"/>
<mask id="mask3_1780_593" style="mask-type:luminance" maskUnits="userSpaceOnUse" x="342" y="367" width="8" height="15">
<path d="M350 367H342V382H350V367Z" fill="white"/>
</mask>
<g mask="url(#mask3_1780_593)">
<path d="M342.5 382V367" stroke="#E8178A"/>
<path d="M342 374.5H350" stroke="#E8178A"/>
<path d="M349.5 382V367" stroke="#E8178A"/>
</g>
<path d="M349.182 352.672C349.182 352.973 349.132 353.253 349.032 353.513C348.936 353.772 348.799 354.005 348.622 354.21C348.512 354.342 348.387 354.465 348.246 354.579C348.104 354.693 347.947 354.793 347.774 354.88C347.979 354.976 348.168 355.087 348.341 355.215C348.519 355.338 348.674 355.481 348.806 355.646C348.993 355.864 349.139 356.113 349.244 356.391C349.349 356.669 349.401 356.969 349.401 357.293C349.401 357.753 349.317 358.161 349.148 358.517C348.979 358.872 348.749 359.168 348.458 359.405C348.161 359.647 347.815 359.829 347.419 359.952C347.027 360.075 346.603 360.137 346.147 360.137C345.682 360.137 345.249 360.075 344.848 359.952C344.452 359.829 344.108 359.647 343.816 359.405C343.52 359.168 343.287 358.874 343.119 358.523C342.955 358.168 342.873 357.758 342.873 357.293C342.873 357.02 342.909 356.76 342.982 356.514C343.059 356.268 343.169 356.04 343.31 355.83C343.451 355.63 343.62 355.45 343.816 355.29C344.017 355.126 344.24 354.987 344.486 354.873C344.276 354.768 344.085 354.641 343.912 354.49C343.743 354.34 343.6 354.174 343.481 353.991C343.358 353.804 343.262 353.599 343.194 353.376C343.126 353.153 343.091 352.918 343.091 352.672C343.091 352.23 343.167 351.838 343.317 351.496C343.472 351.154 343.684 350.865 343.953 350.628C344.217 350.391 344.534 350.213 344.903 350.095C345.277 349.972 345.684 349.91 346.127 349.91C346.564 349.91 346.967 349.972 347.336 350.095C347.71 350.213 348.036 350.391 348.314 350.628C348.583 350.86 348.795 351.15 348.95 351.496C349.105 351.838 349.182 352.23 349.182 352.672ZM347.767 357.204C347.767 356.958 347.726 356.735 347.644 356.534C347.567 356.329 347.457 356.151 347.316 356.001C347.17 355.86 346.997 355.75 346.796 355.673C346.596 355.595 346.375 355.557 346.133 355.557C345.883 355.557 345.657 355.595 345.457 355.673C345.261 355.75 345.092 355.86 344.951 356.001C344.809 356.151 344.7 356.329 344.623 356.534C344.55 356.735 344.513 356.96 344.513 357.211C344.513 357.466 344.552 357.696 344.629 357.901C344.707 358.102 344.819 358.271 344.964 358.407C345.106 358.539 345.274 358.642 345.47 358.715C345.671 358.783 345.896 358.817 346.147 358.817C346.384 358.817 346.6 358.781 346.796 358.708C346.997 358.635 347.17 358.53 347.316 358.394C347.453 358.252 347.562 358.084 347.644 357.888C347.726 357.687 347.767 357.459 347.767 357.204ZM347.555 352.733C347.555 352.51 347.519 352.307 347.446 352.125C347.378 351.943 347.282 351.783 347.159 351.646C347.031 351.519 346.881 351.419 346.708 351.346C346.534 351.273 346.338 351.236 346.12 351.236C345.906 351.236 345.712 351.273 345.539 351.346C345.37 351.414 345.224 351.512 345.101 351.64C344.983 351.767 344.892 351.924 344.828 352.111C344.764 352.298 344.732 352.506 344.732 352.733C344.732 352.957 344.764 353.162 344.828 353.349C344.892 353.531 344.987 353.686 345.115 353.813C345.238 353.946 345.386 354.048 345.559 354.121C345.732 354.194 345.926 354.23 346.14 354.23C346.354 354.23 346.548 354.194 346.721 354.121C346.894 354.048 347.043 353.946 347.166 353.813C347.289 353.686 347.384 353.531 347.453 353.349C347.521 353.162 347.555 352.957 347.555 352.733Z" fill="#E8178A"/>
<mask id="mask4_1780_593" style="mask-type:luminance" maskUnits="userSpaceOnUse" x="446" y="367" width="16" height="15">
<path d="M462 367H446V382H462V367Z" fill="white"/>
</mask>
<g mask="url(#mask4_1780_593)">
<path d="M446.5 382V367" stroke="#E8178A"/>
<path d="M446 374.5H462" stroke="#E8178A"/>
<path d="M461.5 382V367" stroke="#E8178A"/>
</g>
<path d="M451.378 359H449.73V351.07L447.18 352.007V350.564L451.275 349.047H451.378V359ZM460.104 348.999V350.387H459.994C459.452 350.387 458.98 350.462 458.579 350.612C458.183 350.758 457.848 350.963 457.575 351.228C457.297 351.492 457.08 351.809 456.925 352.178C456.775 352.547 456.681 352.943 456.645 353.367C456.754 353.244 456.882 353.126 457.028 353.012C457.173 352.893 457.335 352.788 457.513 352.697C457.682 352.611 457.868 352.542 458.074 352.492C458.279 352.438 458.495 352.41 458.723 352.41C459.206 352.41 459.625 352.501 459.981 352.684C460.341 352.866 460.637 353.112 460.869 353.422C461.106 353.732 461.28 354.087 461.389 354.488C461.503 354.889 461.56 355.306 461.56 355.739C461.56 356.213 461.487 356.658 461.341 357.072C461.2 357.482 460.992 357.84 460.719 358.146C460.441 358.455 460.102 358.699 459.701 358.877C459.304 359.05 458.851 359.137 458.34 359.137C457.816 359.137 457.349 359.036 456.939 358.836C456.529 358.635 456.182 358.364 455.9 358.022C455.599 357.667 455.371 357.25 455.216 356.771C455.061 356.288 454.984 355.78 454.984 355.247V354.57C454.984 353.768 455.086 353.005 455.291 352.28C455.501 351.551 455.847 350.924 456.33 350.4C456.741 349.949 457.246 349.603 457.848 349.361C458.45 349.12 459.138 348.999 459.912 348.999H460.104ZM458.32 353.736C458.124 353.736 457.937 353.766 457.759 353.825C457.581 353.884 457.417 353.966 457.267 354.071C457.13 354.176 457.007 354.297 456.898 354.434C456.788 354.57 456.697 354.723 456.624 354.892V355.397C456.624 355.794 456.668 356.143 456.754 356.443C456.845 356.744 456.968 356.995 457.123 357.195C457.278 357.396 457.458 357.549 457.663 357.653C457.868 357.758 458.087 357.811 458.32 357.811C458.575 357.811 458.803 357.76 459.003 357.66C459.204 357.555 459.375 357.414 459.516 357.236C459.657 357.054 459.764 356.84 459.837 356.594C459.91 356.343 459.947 356.072 459.947 355.78C459.947 355.502 459.91 355.24 459.837 354.994C459.769 354.743 459.666 354.525 459.53 354.338C459.393 354.151 459.222 354.005 459.017 353.9C458.816 353.791 458.584 353.736 458.32 353.736Z" fill="#E8178A"/>
<mask id="mask5_1780_593" style="mask-type:luminance" maskUnits="userSpaceOnUse" x="143" y="367" width="96" height="15">
<path d="M239 367H143V382H239V367Z" fill="white"/>
</mask>
<g mask="url(#mask5_1780_593)">
<path d="M143.5 382V367" stroke="#E8178A"/>
<path d="M143 374.5H239" stroke="#E8178A"/>
<path d="M238.5 382V367" stroke="#E8178A"/>
</g>
<path d="M178.924 357.71H175.8L175.123 360H173.414L176.655 350.047H178.111L181.296 360H179.594L178.924 357.71ZM176.217 356.302H178.521L177.379 352.364L176.217 356.302ZM187.247 360L187.151 358.968C186.901 359.337 186.595 359.626 186.235 359.836C185.875 360.041 185.472 360.144 185.025 360.144C184.643 360.144 184.292 360.084 183.973 359.966C183.658 359.843 183.387 359.654 183.159 359.398C182.936 359.143 182.763 358.817 182.64 358.421C182.517 358.02 182.455 357.541 182.455 356.985V352.604H184.089V356.999C184.089 357.341 184.114 357.628 184.164 357.86C184.214 358.088 184.294 358.271 184.403 358.407C184.513 358.549 184.652 358.649 184.82 358.708C184.989 358.767 185.187 358.797 185.415 358.797C185.652 358.797 185.864 358.772 186.051 358.722C186.238 358.667 186.402 358.594 186.543 358.503C186.661 358.421 186.766 358.325 186.857 358.216C186.949 358.102 187.026 357.977 187.09 357.84V352.604H188.73V360H187.247ZM193.95 350.799V352.604H196.732V353.827H193.95V357.361C193.95 357.635 193.982 357.865 194.045 358.052C194.114 358.234 194.207 358.378 194.326 358.482C194.444 358.592 194.586 358.669 194.75 358.715C194.914 358.76 195.094 358.783 195.29 358.783C195.431 358.783 195.577 358.776 195.727 358.763C195.878 358.749 196.023 358.731 196.165 358.708C196.301 358.69 196.429 358.669 196.547 358.646C196.67 358.619 196.773 358.596 196.855 358.578L197.033 359.706C196.914 359.779 196.771 359.843 196.602 359.897C196.438 359.948 196.26 359.991 196.069 360.027C195.878 360.064 195.677 360.091 195.467 360.109C195.262 360.132 195.057 360.144 194.852 360.144C194.478 360.144 194.134 360.093 193.82 359.993C193.51 359.888 193.243 359.727 193.02 359.508C192.797 359.294 192.621 359.018 192.494 358.681C192.371 358.343 192.309 357.938 192.309 357.464V353.827H190.518V352.604H192.309V350.799H193.95ZM198.636 356.233C198.636 355.696 198.713 355.199 198.868 354.743C199.023 354.283 199.249 353.884 199.545 353.547C199.837 353.21 200.195 352.945 200.618 352.754C201.042 352.562 201.525 352.467 202.068 352.467C202.61 352.467 203.093 352.562 203.517 352.754C203.945 352.945 204.307 353.21 204.604 353.547C204.895 353.884 205.119 354.283 205.274 354.743C205.429 355.199 205.506 355.696 205.506 356.233V356.377C205.506 356.919 205.429 357.418 205.274 357.874C205.119 358.33 204.895 358.726 204.604 359.063C204.312 359.401 203.952 359.665 203.524 359.856C203.1 360.048 202.619 360.144 202.081 360.144C201.539 360.144 201.054 360.048 200.625 359.856C200.197 359.665 199.837 359.401 199.545 359.063C199.249 358.726 199.023 358.33 198.868 357.874C198.713 357.418 198.636 356.919 198.636 356.377V356.233ZM200.27 356.377C200.27 356.71 200.304 357.024 200.372 357.32C200.445 357.617 200.557 357.876 200.707 358.1C200.853 358.323 201.04 358.501 201.268 358.633C201.496 358.76 201.767 358.824 202.081 358.824C202.387 358.824 202.653 358.76 202.881 358.633C203.109 358.501 203.296 358.323 203.442 358.1C203.587 357.876 203.695 357.617 203.763 357.32C203.836 357.024 203.872 356.71 203.872 356.377V356.233C203.872 355.91 203.836 355.6 203.763 355.304C203.69 355.007 203.583 354.748 203.442 354.524C203.291 354.301 203.102 354.123 202.874 353.991C202.651 353.859 202.382 353.793 202.068 353.793C201.758 353.793 201.489 353.859 201.261 353.991C201.038 354.123 200.853 354.301 200.707 354.524C200.557 354.748 200.445 355.007 200.372 355.304C200.304 355.6 200.27 355.91 200.27 356.233V356.377Z" fill="#E8178A"/>
<path d="M1230 330H518C509.163 330 502 337.163 502 346V420C502 428.837 509.163 436 518 436H1230C1238.84 436 1246 428.837 1246 420V346C1246 337.163 1238.84 330 1230 330Z" fill="#2A2A2A"/>
<path d="M686 330H534V436H686V330Z" fill="white" fill-opacity="0.1"/>
<path d="M862 330H710V436H862V330Z" fill="white" fill-opacity="0.1"/>
<path d="M1038 330H886V436H1038V330Z" fill="white" fill-opacity="0.1"/>
<path d="M1214 330H1062V436H1214V330Z" fill="white" fill-opacity="0.1"/>
<mask id="mask6_1780_593" style="mask-type:luminance" maskUnits="userSpaceOnUse" x="862" y="367" width="24" height="15">
<path d="M886 367H862V382H886V367Z" fill="white"/>
</mask>
<g mask="url(#mask6_1780_593)">
<path d="M862.5 382V367" stroke="#E8178A"/>
<path d="M862 374.5H886" stroke="#E8178A"/>
<path d="M885.5 382V367" stroke="#E8178A"/>
</g>
<path d="M873.158 360H866.48V358.865L869.72 355.338C869.989 355.042 870.214 354.777 870.397 354.545C870.579 354.308 870.727 354.091 870.841 353.896C870.95 353.7 871.028 353.517 871.073 353.349C871.124 353.175 871.149 353.002 871.149 352.829C871.149 352.597 871.114 352.385 871.046 352.193C870.978 352.002 870.877 351.838 870.745 351.701C870.613 351.564 870.454 351.457 870.267 351.38C870.084 351.302 869.879 351.264 869.652 351.264C869.36 351.264 869.107 351.305 868.893 351.387C868.679 351.469 868.501 351.585 868.36 351.735C868.214 351.895 868.104 352.089 868.031 352.316C867.959 352.54 867.922 352.795 867.922 353.082H866.281C866.281 352.649 866.361 352.241 866.521 351.858C866.68 351.471 866.908 351.134 867.204 350.847C867.496 350.56 867.851 350.332 868.271 350.163C868.695 349.994 869.166 349.91 869.686 349.91C870.173 349.91 870.609 349.981 870.991 350.122C871.379 350.263 871.705 350.459 871.969 350.71C872.229 350.961 872.427 351.261 872.564 351.612C872.7 351.959 872.769 352.341 872.769 352.761C872.769 353.075 872.716 353.381 872.612 353.677C872.511 353.968 872.372 354.258 872.195 354.545C872.012 354.832 871.796 355.121 871.545 355.413C871.299 355.705 871.03 356.006 870.738 356.315L868.524 358.681H873.158V360ZM880.463 356.452H881.714V357.778H880.463V360H878.829V357.778H874.522L874.481 356.773L878.781 350.047H880.463V356.452ZM876.149 356.452H878.829V352.234L878.638 352.59L876.149 356.452Z" fill="#E8178A"/>
<mask id="mask7_1780_593" style="mask-type:luminance" maskUnits="userSpaceOnUse" x="1214" y="367" width="32" height="15">
<path d="M1246 367H1214V382H1246V367Z" fill="white"/>
</mask>
<g mask="url(#mask7_1780_593)">
<path d="M1214.5 382V367" stroke="#E8178A"/>
<path d="M1214 374.5H1246" stroke="#E8178A"/>
<path d="M1245.5 382V367" stroke="#E8178A"/>
</g>
<path d="M1224.92 353.285H1225.9C1226.19 353.285 1226.44 353.246 1226.66 353.169C1226.88 353.087 1227.06 352.973 1227.2 352.827C1227.33 352.7 1227.43 352.542 1227.5 352.355C1227.57 352.164 1227.61 351.959 1227.61 351.74C1227.61 351.503 1227.58 351.291 1227.51 351.104C1227.44 350.918 1227.35 350.758 1227.22 350.626C1227.09 350.503 1226.93 350.407 1226.74 350.339C1226.54 350.271 1226.32 350.236 1226.07 350.236C1225.85 350.236 1225.64 350.271 1225.45 350.339C1225.26 350.403 1225.1 350.496 1224.97 350.619C1224.82 350.742 1224.71 350.89 1224.63 351.063C1224.55 351.237 1224.51 351.43 1224.51 351.645H1222.88C1222.88 351.248 1222.96 350.883 1223.12 350.551C1223.28 350.218 1223.5 349.929 1223.78 349.683C1224.07 349.441 1224.4 349.252 1224.78 349.115C1225.17 348.979 1225.59 348.91 1226.05 348.91C1226.52 348.91 1226.95 348.972 1227.34 349.095C1227.74 349.213 1228.08 349.391 1228.36 349.628C1228.64 349.869 1228.86 350.166 1229.01 350.517C1229.17 350.868 1229.24 351.275 1229.24 351.74C1229.24 351.945 1229.21 352.15 1229.15 352.355C1229.09 352.561 1229 352.759 1228.88 352.95C1228.75 353.137 1228.6 353.312 1228.41 353.477C1228.22 353.641 1228.01 353.78 1227.75 353.894C1228.05 353.994 1228.3 354.126 1228.51 354.29C1228.72 354.45 1228.89 354.63 1229.02 354.83C1229.15 355.035 1229.25 355.256 1229.31 355.493C1229.37 355.726 1229.4 355.967 1229.4 356.218C1229.4 356.683 1229.31 357.097 1229.14 357.462C1228.97 357.822 1228.73 358.125 1228.44 358.371C1228.14 358.622 1227.78 358.813 1227.37 358.945C1226.97 359.073 1226.53 359.137 1226.05 359.137C1225.62 359.137 1225.21 359.077 1224.82 358.959C1224.42 358.84 1224.07 358.663 1223.77 358.426C1223.47 358.189 1223.23 357.897 1223.04 357.551C1222.87 357.2 1222.78 356.792 1222.78 356.327H1224.41C1224.41 356.546 1224.45 356.749 1224.53 356.936C1224.61 357.118 1224.73 357.273 1224.88 357.4C1225.02 357.533 1225.2 357.635 1225.4 357.708C1225.6 357.781 1225.83 357.817 1226.07 357.817C1226.34 357.817 1226.57 357.783 1226.78 357.715C1227 357.642 1227.18 357.535 1227.32 357.394C1227.47 357.261 1227.57 357.097 1227.65 356.901C1227.72 356.701 1227.76 356.473 1227.76 356.218C1227.76 355.931 1227.72 355.685 1227.63 355.479C1227.54 355.274 1227.42 355.104 1227.26 354.967C1227.09 354.835 1226.89 354.737 1226.66 354.673C1226.43 354.604 1226.18 354.57 1225.9 354.57H1224.92V353.285ZM1237.79 359H1231.11V357.865L1234.35 354.338C1234.62 354.042 1234.85 353.777 1235.03 353.545C1235.21 353.308 1235.36 353.091 1235.48 352.896C1235.59 352.7 1235.66 352.517 1235.71 352.349C1235.76 352.175 1235.78 352.002 1235.78 351.829C1235.78 351.597 1235.75 351.385 1235.68 351.193C1235.61 351.002 1235.51 350.838 1235.38 350.701C1235.25 350.564 1235.09 350.457 1234.9 350.38C1234.72 350.302 1234.51 350.264 1234.29 350.264C1233.99 350.264 1233.74 350.305 1233.53 350.387C1233.31 350.469 1233.14 350.585 1232.99 350.735C1232.85 350.895 1232.74 351.089 1232.67 351.316C1232.59 351.54 1232.56 351.795 1232.56 352.082H1230.92C1230.92 351.649 1231 351.241 1231.16 350.858C1231.32 350.471 1231.54 350.134 1231.84 349.847C1232.13 349.56 1232.49 349.332 1232.91 349.163C1233.33 348.994 1233.8 348.91 1234.32 348.91C1234.81 348.91 1235.24 348.981 1235.63 349.122C1236.01 349.263 1236.34 349.459 1236.6 349.71C1236.86 349.961 1237.06 350.261 1237.2 350.612C1237.34 350.959 1237.4 351.341 1237.4 351.761C1237.4 352.075 1237.35 352.381 1237.25 352.677C1237.15 352.968 1237.01 353.258 1236.83 353.545C1236.65 353.832 1236.43 354.121 1236.18 354.413C1235.93 354.705 1235.67 355.006 1235.37 355.315L1233.16 357.681H1237.79V359Z" fill="#E8178A"/>
<mask id="mask8_1780_593" style="mask-type:luminance" maskUnits="userSpaceOnUse" x="534" y="367" width="152" height="15">
<path d="M686 367H534V382H686V367Z" fill="white"/>
</mask>
<g mask="url(#mask8_1780_593)">
<path d="M534.5 382V367" stroke="#E8178A"/>
<path d="M534 374.5H686" stroke="#E8178A"/>
<path d="M685.5 382V367" stroke="#E8178A"/>
</g>
<path d="M597.155 357.71H594.031L593.354 360H591.645L594.885 350.047H596.341L599.526 360H597.825L597.155 357.71ZM594.448 356.302H596.75L595.609 352.364L594.448 356.302ZM605.478 360L605.382 358.968C605.131 359.337 604.826 359.626 604.466 359.836C604.106 360.041 603.702 360.144 603.255 360.144C602.872 360.144 602.522 360.084 602.203 359.966C601.889 359.843 601.618 359.654 601.39 359.398C601.166 359.143 600.993 358.817 600.87 358.421C600.747 358.02 600.685 357.541 600.685 356.985V352.604H602.318V356.999C602.318 357.341 602.345 357.628 602.395 357.86C602.445 358.088 602.524 358.271 602.633 358.407C602.742 358.549 602.882 358.649 603.051 358.708C603.22 358.767 603.418 358.797 603.646 358.797C603.883 358.797 604.095 358.772 604.281 358.722C604.468 358.667 604.631 358.594 604.773 358.503C604.891 358.421 604.997 358.325 605.088 358.216C605.179 358.102 605.257 357.977 605.32 357.84V352.604H606.961V360H605.478ZM612.18 350.799V352.604H614.963V353.827H612.18V357.361C612.18 357.635 612.212 357.865 612.276 358.052C612.344 358.234 612.438 358.378 612.556 358.482C612.675 358.592 612.815 358.669 612.979 358.715C613.143 358.76 613.324 358.783 613.52 358.783C613.662 358.783 613.807 358.776 613.958 358.763C614.108 358.749 614.254 358.731 614.395 358.708C614.532 358.69 614.66 358.669 614.778 358.646C614.901 358.619 615.004 358.596 615.086 358.578L615.263 359.706C615.145 359.779 615.001 359.843 614.833 359.897C614.669 359.948 614.49 359.991 614.299 360.027C614.107 360.064 613.908 360.091 613.698 360.109C613.493 360.132 613.288 360.144 613.083 360.144C612.709 360.144 612.365 360.093 612.051 359.993C611.741 359.888 611.473 359.727 611.25 359.508C611.026 359.294 610.852 359.018 610.724 358.681C610.601 358.343 610.539 357.938 610.539 357.464V353.827H608.749V352.604H610.539V350.799H612.18ZM616.867 356.233C616.867 355.696 616.944 355.199 617.099 354.743C617.254 354.283 617.48 353.884 617.776 353.547C618.067 353.21 618.425 352.945 618.849 352.754C619.273 352.562 619.755 352.467 620.297 352.467C620.84 352.467 621.324 352.562 621.747 352.754C622.176 352.945 622.537 353.21 622.833 353.547C623.125 353.884 623.349 354.283 623.504 354.743C623.659 355.199 623.737 355.696 623.737 356.233V356.377C623.737 356.919 623.659 357.418 623.504 357.874C623.349 358.33 623.125 358.726 622.833 359.063C622.542 359.401 622.183 359.665 621.754 359.856C621.33 360.048 620.85 360.144 620.312 360.144C619.77 360.144 619.284 360.048 618.856 359.856C618.427 359.665 618.067 359.401 617.776 359.063C617.48 358.726 617.254 358.33 617.099 357.874C616.944 357.418 616.867 356.919 616.867 356.377V356.233ZM618.5 356.377C618.5 356.71 618.535 357.024 618.603 357.32C618.676 357.617 618.787 357.876 618.938 358.1C619.083 358.323 619.27 358.501 619.497 358.633C619.725 358.76 619.997 358.824 620.312 358.824C620.617 358.824 620.884 358.76 621.112 358.633C621.34 358.501 621.526 358.323 621.672 358.1C621.818 357.876 621.925 357.617 621.994 357.32C622.066 357.024 622.103 356.71 622.103 356.377V356.233C622.103 355.91 622.066 355.6 621.994 355.304C621.921 355.007 621.814 354.748 621.672 354.524C621.522 354.301 621.332 354.123 621.104 353.991C620.881 353.859 620.612 353.793 620.297 353.793C619.987 353.793 619.719 353.859 619.492 353.991C619.268 354.123 619.083 354.301 618.938 354.524C618.787 354.748 618.676 355.007 618.603 355.304C618.535 355.6 618.5 355.91 618.5 356.233V356.377Z" fill="#E8178A"/>
<mask id="mask9_1780_593" style="mask-type:luminance" maskUnits="userSpaceOnUse" x="23" y="34" width="1440" height="110">
<path d="M1447 34H39C30.1634 34 23 41.1634 23 50V128C23 136.837 30.1634 144 39 144H1447C1455.84 144 1463 136.837 1463 128V50C1463 41.1634 1455.84 34 1447 34Z" fill="white"/>
</mask>
<g mask="url(#mask9_1780_593)">
<path d="M1447 34H39C30.1634 34 23 41.1634 23 50V128C23 136.837 30.1634 144 39 144H1447C1455.84 144 1463 136.837 1463 128V50C1463 41.1634 1455.84 34 1447 34Z" fill="#2A2A2A"/>
<path d="M1463 34H23V144H1463V34Z" fill="#2A2A2A"/>
<path opacity="0.1" d="M293 34H23V144H293V34Z" fill="white"/>
<path d="M388 34H323V144H388V34Z" fill="white" fill-opacity="0.1"/>
<path d="M483 34H418V144H483V34Z" fill="white" fill-opacity="0.1"/>
<path d="M578 34H513V144H578V34Z" fill="white" fill-opacity="0.1"/>
<path d="M673 34H608V144H673V34Z" fill="white" fill-opacity="0.1"/>
<path d="M768 34H703V144H768V34Z" fill="white" fill-opacity="0.1"/>
<path d="M863 34H798V144H863V34Z" fill="white" fill-opacity="0.1"/>
<path d="M958 34H893V144H958V34Z" fill="white" fill-opacity="0.1"/>
<path d="M1053 34H988V144H1053V34Z" fill="white" fill-opacity="0.1"/>
<path d="M1148 34H1083V144H1148V34Z" fill="white" fill-opacity="0.1"/>
<path d="M1243 34H1178V144H1243V34Z" fill="white" fill-opacity="0.1"/>
<path d="M1338 34H1273V144H1338V34Z" fill="white" fill-opacity="0.1"/>
<path d="M1433 34H1368V144H1433V34Z" fill="white" fill-opacity="0.1"/>
<mask id="mask10_1780_593" style="mask-type:luminance" maskUnits="userSpaceOnUse" x="23" y="71" width="271" height="15">
<path d="M294 71H23V86H294V71Z" fill="white"/>
</mask>
<g mask="url(#mask10_1780_593)">
<path d="M23.5 86V71" stroke="#E8178A"/>
<path d="M23 78.5H294" stroke="#E8178A"/>
<path d="M293.5 86V71" stroke="#E8178A"/>
</g>
<path d="M107.826 64H101.147V62.8652L104.387 59.3379C104.656 59.0417 104.882 58.7773 105.064 58.5449C105.246 58.3079 105.394 58.0915 105.508 57.8955C105.618 57.6995 105.695 57.5173 105.741 57.3486C105.791 57.1755 105.816 57.0023 105.816 56.8291C105.816 56.5967 105.782 56.3848 105.713 56.1934C105.645 56.002 105.545 55.8379 105.413 55.7012C105.281 55.5645 105.121 55.4574 104.934 55.3799C104.752 55.3024 104.547 55.2637 104.319 55.2637C104.027 55.2637 103.774 55.3047 103.56 55.3867C103.346 55.4688 103.168 55.585 103.027 55.7354C102.881 55.8949 102.772 56.0885 102.699 56.3164C102.626 56.5397 102.589 56.7949 102.589 57.082H100.949C100.949 56.6491 101.029 56.2412 101.188 55.8584C101.348 55.471 101.575 55.1338 101.872 54.8467C102.163 54.5596 102.519 54.3317 102.938 54.1631C103.362 53.9945 103.834 53.9102 104.353 53.9102C104.841 53.9102 105.276 53.9808 105.659 54.1221C106.046 54.2633 106.372 54.4593 106.636 54.71C106.896 54.9606 107.094 55.2614 107.231 55.6123C107.368 55.9587 107.436 56.3415 107.436 56.7607C107.436 57.0752 107.384 57.3805 107.279 57.6768C107.179 57.9684 107.04 58.2578 106.862 58.5449C106.68 58.832 106.463 59.1214 106.212 59.4131C105.966 59.7048 105.697 60.0055 105.406 60.3154L103.191 62.6807H107.826V64ZM116.176 54.9629L112.197 64H110.475L114.453 55.4141H109.292V54.0469H116.176V54.9629ZM124.41 60.2061C124.41 60.8441 124.335 61.4092 124.184 61.9014C124.039 62.389 123.827 62.7969 123.549 63.125C123.275 63.4622 122.938 63.7174 122.537 63.8906C122.14 64.0592 121.689 64.1436 121.183 64.1436C120.682 64.1436 120.231 64.0592 119.83 63.8906C119.429 63.7174 119.089 63.4622 118.811 63.125C118.529 62.7969 118.312 62.389 118.162 61.9014C118.016 61.4092 117.943 60.8441 117.943 60.2061V57.8477C117.943 57.2096 118.016 56.6468 118.162 56.1592C118.312 55.667 118.527 55.2523 118.805 54.915C119.083 54.5824 119.42 54.3317 119.816 54.1631C120.217 53.9899 120.668 53.9033 121.17 53.9033C121.676 53.9033 122.127 53.9899 122.523 54.1631C122.924 54.3317 123.266 54.5824 123.549 54.915C123.822 55.2523 124.034 55.667 124.184 56.1592C124.335 56.6468 124.41 57.2096 124.41 57.8477V60.2061ZM119.584 59.625L122.749 57.2256C122.731 56.8701 122.681 56.5625 122.598 56.3027C122.521 56.043 122.409 55.8311 122.264 55.667C122.136 55.5212 121.979 55.4118 121.792 55.3389C121.61 55.266 121.402 55.2295 121.17 55.2295C120.919 55.2295 120.698 55.2728 120.507 55.3594C120.315 55.446 120.156 55.5736 120.028 55.7422C119.878 55.9336 119.766 56.182 119.693 56.4873C119.62 56.7881 119.584 57.1436 119.584 57.5537V58.8936C119.584 59.0667 119.584 59.1989 119.584 59.29C119.584 59.3812 119.584 59.4928 119.584 59.625ZM122.763 60.4795V59.2217C122.763 59.1077 122.763 58.9893 122.763 58.8662C122.763 58.7432 122.763 58.6156 122.763 58.4834L119.598 60.8691C119.62 61.1836 119.668 61.4616 119.741 61.7031C119.819 61.9447 119.921 62.1452 120.049 62.3047C120.176 62.4779 120.334 62.6077 120.52 62.6943C120.712 62.7809 120.933 62.8242 121.183 62.8242C121.43 62.8242 121.646 62.7832 121.833 62.7012C122.02 62.6146 122.179 62.4893 122.311 62.3252C122.462 62.1338 122.573 61.8831 122.646 61.5732C122.724 61.2633 122.763 60.8988 122.763 60.4795ZM140.748 60.2881H135.245V58.9619H140.748V60.2881ZM155.931 61.9971C155.931 61.8695 155.901 61.7555 155.842 61.6553C155.788 61.555 155.694 61.4593 155.562 61.3682C155.421 61.2861 155.236 61.2087 155.008 61.1357C154.78 61.0628 154.496 60.9945 154.154 60.9307C153.725 60.8441 153.333 60.737 152.978 60.6094C152.627 60.4818 152.324 60.3268 152.069 60.1445C151.818 59.9714 151.622 59.7663 151.481 59.5293C151.34 59.2923 151.269 59.0166 151.269 58.7021C151.269 58.4014 151.34 58.1165 151.481 57.8477C151.627 57.5742 151.834 57.335 152.103 57.1299C152.367 56.9248 152.686 56.763 153.06 56.6445C153.438 56.526 153.857 56.4668 154.318 56.4668C154.81 56.4668 155.252 56.5283 155.644 56.6514C156.036 56.7699 156.369 56.9339 156.642 57.1436C156.911 57.3532 157.118 57.6016 157.264 57.8887C157.41 58.1758 157.483 58.4857 157.483 58.8184H155.849C155.849 58.6816 155.819 58.5518 155.76 58.4287C155.705 58.3011 155.623 58.1872 155.514 58.0869C155.386 57.9684 155.222 57.875 155.022 57.8066C154.821 57.7337 154.587 57.6973 154.318 57.6973C154.072 57.6973 153.855 57.7246 153.668 57.7793C153.486 57.8294 153.336 57.9001 153.217 57.9912C153.099 58.0732 153.01 58.1712 152.951 58.2852C152.891 58.3945 152.862 58.5107 152.862 58.6338C152.862 58.7614 152.887 58.8776 152.937 58.9824C152.987 59.0827 153.076 59.1715 153.204 59.249C153.322 59.3311 153.486 59.4062 153.696 59.4746C153.91 59.543 154.179 59.6045 154.502 59.6592C154.954 59.7412 155.366 59.8415 155.74 59.96C156.113 60.0785 156.432 60.2243 156.697 60.3975C156.961 60.5798 157.166 60.7939 157.312 61.04C157.458 61.2861 157.531 61.5778 157.531 61.915C157.531 62.2432 157.453 62.5439 157.298 62.8174C157.148 63.0908 156.934 63.3255 156.656 63.5215C156.373 63.7174 156.036 63.8701 155.644 63.9795C155.252 64.0889 154.817 64.1436 154.338 64.1436C153.805 64.1436 153.331 64.0729 152.916 63.9316C152.506 63.7904 152.162 63.6035 151.884 63.3711C151.602 63.1432 151.387 62.8812 151.242 62.585C151.096 62.2887 151.023 61.988 151.023 61.6826H152.609C152.622 61.9105 152.682 62.1042 152.787 62.2637C152.896 62.4186 153.033 62.5439 153.197 62.6396C153.356 62.7399 153.538 62.8128 153.744 62.8584C153.949 62.8994 154.156 62.9199 154.366 62.9199C154.648 62.9199 154.894 62.8903 155.104 62.8311C155.318 62.7718 155.489 62.6921 155.617 62.5918C155.721 62.5098 155.799 62.4209 155.849 62.3252C155.904 62.2249 155.931 62.1156 155.931 61.9971ZM159.742 56.6035H163.666V62.6465H165.84V64H159.742V62.6465H162.019V57.9639H159.742V56.6035ZM161.868 54.6895C161.868 54.5573 161.891 54.4365 161.937 54.3271C161.982 54.2132 162.048 54.1152 162.135 54.0332C162.217 53.9557 162.315 53.8965 162.429 53.8555C162.547 53.8099 162.679 53.7871 162.825 53.7871C163.071 53.7871 163.27 53.8509 163.42 53.9785C163.575 54.1016 163.664 54.2611 163.687 54.457C163.718 54.6576 163.684 54.833 163.584 54.9834C163.484 55.1292 163.338 55.2272 163.147 55.2773C163.051 55.3639 162.937 55.4209 162.805 55.4482C162.673 55.4756 162.527 55.4642 162.367 55.4141C162.203 55.3639 162.078 55.2751 161.991 55.1475C161.909 55.0153 161.868 54.8626 161.868 54.6895ZM167.416 60.2471C167.416 59.6865 167.482 59.1761 167.614 58.7158C167.751 58.251 167.947 57.8522 168.202 57.5195C168.452 57.1868 168.758 56.9294 169.118 56.7471C169.482 56.5602 169.893 56.4668 170.348 56.4668C170.758 56.4668 171.116 56.5397 171.422 56.6855C171.731 56.8268 172.005 57.0296 172.242 57.2939V53.5H173.876V64H172.392L172.317 63.2275C172.08 63.5192 171.798 63.7448 171.469 63.9043C171.141 64.0592 170.763 64.1367 170.335 64.1367C169.883 64.1367 169.478 64.0433 169.118 63.8564C168.758 63.665 168.452 63.4007 168.202 63.0635C167.951 62.7308 167.757 62.3366 167.621 61.8809C167.484 61.4206 167.416 60.9238 167.416 60.3906V60.2471ZM169.049 60.3906C169.049 60.7188 169.081 61.0286 169.145 61.3203C169.209 61.612 169.309 61.8649 169.446 62.0791C169.583 62.3024 169.758 62.4779 169.972 62.6055C170.187 62.7285 170.444 62.79 170.745 62.79C171.114 62.79 171.419 62.7103 171.661 62.5508C171.902 62.3867 172.096 62.1657 172.242 61.8877V58.709C172.096 58.4355 171.902 58.2191 171.661 58.0596C171.424 57.8955 171.123 57.8135 170.758 57.8135C170.453 57.8135 170.191 57.8773 169.972 58.0049C169.758 58.1325 169.585 58.3079 169.453 58.5312C169.312 58.7546 169.209 59.0143 169.145 59.3105C169.081 59.6022 169.049 59.9144 169.049 60.2471V60.3906ZM179.355 64.1367C178.808 64.1367 178.307 64.0456 177.851 63.8633C177.4 63.681 177.012 63.4281 176.689 63.1045C176.365 62.7855 176.115 62.4095 175.937 61.9766C175.764 61.5391 175.677 61.0674 175.677 60.5615V60.2812C175.677 59.7025 175.768 59.1784 175.951 58.709C176.133 58.2396 176.383 57.8385 176.702 57.5059C177.021 57.1732 177.391 56.918 177.81 56.7402C178.234 56.5579 178.685 56.4668 179.163 56.4668C179.697 56.4668 180.168 56.5579 180.578 56.7402C180.989 56.918 181.333 57.1663 181.611 57.4854C181.889 57.8089 182.098 58.194 182.24 58.6406C182.381 59.0872 182.451 59.5749 182.451 60.1035V60.8076H177.325V60.8418C177.375 61.1654 177.452 61.4365 177.557 61.6553C177.662 61.874 177.805 62.07 177.988 62.2432C178.17 62.4255 178.384 62.5667 178.63 62.667C178.881 62.7673 179.154 62.8174 179.451 62.8174C179.856 62.8174 180.234 62.7399 180.585 62.585C180.936 62.4255 181.226 62.1999 181.453 61.9082L182.328 62.7559C182.082 63.1113 181.704 63.4303 181.194 63.7129C180.688 63.9954 180.075 64.1367 179.355 64.1367ZM179.157 57.793C178.924 57.793 178.708 57.8363 178.507 57.9229C178.311 58.0049 178.136 58.1234 177.981 58.2783C177.826 58.4378 177.696 58.6292 177.591 58.8525C177.486 59.0758 177.409 59.3288 177.359 59.6113H180.838V59.502C180.838 59.2878 180.799 59.0758 180.722 58.8662C180.645 58.652 180.535 58.4652 180.394 58.3057C180.257 58.1507 180.084 58.0277 179.874 57.9365C179.669 57.8408 179.43 57.793 179.157 57.793ZM192.439 64V56.6035H193.916L194.018 57.6562C194.118 57.515 194.228 57.3851 194.346 57.2666C194.469 57.1436 194.599 57.0342 194.736 56.9385C194.955 56.7881 195.194 56.6719 195.454 56.5898C195.713 56.5078 195.987 56.4668 196.274 56.4668C196.652 56.4668 196.999 56.5215 197.313 56.6309C197.628 56.7402 197.896 56.9134 198.12 57.1504C198.343 57.3874 198.516 57.6904 198.639 58.0596C198.762 58.4242 198.824 58.8662 198.824 59.3857V64H197.19V59.4131C197.19 59.1077 197.156 58.8525 197.088 58.6475C197.019 58.4424 196.919 58.2783 196.787 58.1553C196.655 58.0322 196.495 57.9456 196.308 57.8955C196.121 57.8408 195.907 57.8135 195.666 57.8135C195.465 57.8135 195.278 57.8408 195.105 57.8955C194.932 57.9456 194.775 58.0186 194.633 58.1143C194.524 58.1872 194.421 58.276 194.326 58.3809C194.23 58.4857 194.146 58.5996 194.073 58.7227V64H192.439ZM205.431 64C205.381 63.9089 205.34 63.7995 205.308 63.6719C205.281 63.5397 205.255 63.403 205.233 63.2617C205.119 63.3802 204.989 63.4941 204.843 63.6035C204.702 63.7083 204.542 63.7995 204.364 63.877C204.187 63.959 203.995 64.0228 203.79 64.0684C203.585 64.1139 203.364 64.1367 203.127 64.1367C202.744 64.1367 202.393 64.082 202.074 63.9727C201.76 63.8587 201.491 63.7038 201.268 63.5078C201.04 63.3164 200.862 63.0863 200.735 62.8174C200.612 62.5439 200.55 62.25 200.55 61.9355C200.55 61.5299 200.63 61.1722 200.789 60.8623C200.953 60.5479 201.19 60.2881 201.5 60.083C201.787 59.8916 202.141 59.7458 202.56 59.6455C202.984 59.5452 203.462 59.4951 203.995 59.4951H205.185V58.9961C205.185 58.8047 205.151 58.6315 205.082 58.4766C205.018 58.3216 204.925 58.1872 204.802 58.0732C204.67 57.9593 204.508 57.8727 204.317 57.8135C204.13 57.7497 203.913 57.7178 203.667 57.7178C203.444 57.7178 203.248 57.7451 203.079 57.7998C202.915 57.8545 202.779 57.9297 202.669 58.0254C202.56 58.112 202.478 58.2191 202.423 58.3467C202.373 58.4697 202.348 58.6019 202.348 58.7432H200.707C200.712 58.4469 200.782 58.1621 200.919 57.8887C201.056 57.6152 201.256 57.3737 201.521 57.1641C201.776 56.9499 202.09 56.7812 202.464 56.6582C202.842 56.5306 203.273 56.4668 203.756 56.4668C204.189 56.4668 204.592 56.5215 204.966 56.6309C205.344 56.7357 205.67 56.8929 205.944 57.1025C206.217 57.3122 206.431 57.5788 206.586 57.9023C206.741 58.2214 206.819 58.5905 206.819 59.0098V62.2979C206.819 62.6305 206.841 62.9313 206.887 63.2002C206.937 63.4645 207.008 63.6924 207.099 63.8838V64H205.431ZM203.442 62.8242C203.656 62.8242 203.854 62.7969 204.036 62.7422C204.223 62.6875 204.392 62.6169 204.542 62.5303C204.693 62.4437 204.823 62.3457 204.932 62.2363C205.041 62.127 205.126 62.013 205.185 61.8945V60.5273H204.132C203.777 60.5273 203.469 60.5615 203.209 60.6299C202.949 60.6937 202.742 60.7871 202.587 60.9102C202.45 61.015 202.348 61.1403 202.28 61.2861C202.216 61.432 202.184 61.596 202.184 61.7783C202.184 61.9287 202.211 62.07 202.266 62.2021C202.321 62.3298 202.4 62.4391 202.505 62.5303C202.61 62.6214 202.74 62.6943 202.895 62.749C203.05 62.7992 203.232 62.8242 203.442 62.8242ZM211.395 64L208.483 56.6035H210.179L212.011 61.9697L212.12 62.4619L212.229 61.9697L214.041 56.6035H215.736L212.838 64H211.395Z" fill="#E8178A"/>
<mask id="mask11_1780_593" style="mask-type:luminance" maskUnits="userSpaceOnUse" x="293" y="71" width="30" height="15">
<path d="M323 71H293V86H323V71Z" fill="white"/>
</mask>
<g mask="url(#mask11_1780_593)">
<path d="M293.5 86V71" stroke="#E8178A"/>
<path d="M293 78.5H323" stroke="#E8178A"/>
<path d="M322.5 86V71" stroke="#E8178A"/>
</g>
<path d="M302.951 58.2852H303.928C304.22 58.2852 304.475 58.2464 304.694 58.1689C304.913 58.0869 305.093 57.973 305.234 57.8271C305.366 57.6995 305.466 57.5423 305.535 57.3555C305.608 57.1641 305.644 56.959 305.644 56.7402C305.644 56.5033 305.61 56.2913 305.542 56.1045C305.478 55.9176 305.382 55.7581 305.255 55.626C305.127 55.5029 304.965 55.4072 304.769 55.3389C304.578 55.2705 304.357 55.2363 304.106 55.2363C303.883 55.2363 303.675 55.2705 303.484 55.3389C303.297 55.4027 303.135 55.4961 302.999 55.6191C302.857 55.7422 302.746 55.8903 302.664 56.0635C302.586 56.2367 302.548 56.4303 302.548 56.6445H300.914C300.914 56.248 300.994 55.8835 301.153 55.5508C301.313 55.2181 301.534 54.9287 301.816 54.6826C302.099 54.4411 302.431 54.252 302.814 54.1152C303.202 53.9785 303.625 53.9102 304.086 53.9102C304.555 53.9102 304.986 53.9717 305.378 54.0947C305.774 54.2132 306.111 54.391 306.389 54.6279C306.672 54.8695 306.891 55.1657 307.046 55.5166C307.201 55.8675 307.278 56.2754 307.278 56.7402C307.278 56.9453 307.246 57.1504 307.182 57.3555C307.123 57.5605 307.032 57.7588 306.909 57.9502C306.786 58.137 306.631 58.3125 306.444 58.4766C306.257 58.6406 306.038 58.7796 305.788 58.8936C306.084 58.9938 306.335 59.126 306.54 59.29C306.749 59.4495 306.92 59.6296 307.052 59.8301C307.185 60.0352 307.28 60.2562 307.34 60.4932C307.399 60.7256 307.428 60.9671 307.428 61.2178C307.428 61.6826 307.342 62.0973 307.169 62.4619C307 62.8219 306.768 63.125 306.471 63.3711C306.171 63.6217 305.815 63.8132 305.405 63.9453C304.999 64.0729 304.56 64.1367 304.086 64.1367C303.657 64.1367 303.245 64.0775 302.848 63.959C302.452 63.8405 302.103 63.6628 301.802 63.4258C301.502 63.1888 301.26 62.8971 301.078 62.5508C300.9 62.1999 300.811 61.792 300.811 61.3271H302.445C302.445 61.5459 302.484 61.7487 302.561 61.9355C302.643 62.1178 302.759 62.2728 302.91 62.4004C303.056 62.5326 303.229 62.6351 303.429 62.708C303.634 62.7809 303.86 62.8174 304.106 62.8174C304.37 62.8174 304.607 62.7832 304.817 62.7148C305.031 62.6419 305.211 62.5348 305.357 62.3936C305.498 62.2614 305.605 62.0973 305.678 61.9014C305.756 61.7008 305.795 61.473 305.795 61.2178C305.795 60.9307 305.751 60.6846 305.665 60.4795C305.578 60.2744 305.453 60.1035 305.289 59.9668C305.125 59.8346 304.926 59.7367 304.694 59.6729C304.466 59.6045 304.211 59.5703 303.928 59.5703H302.951V58.2852ZM315.826 64H309.148V62.8652L312.388 59.3379C312.657 59.0417 312.882 58.7773 313.065 58.5449C313.247 58.3079 313.395 58.0915 313.509 57.8955C313.618 57.6995 313.696 57.5173 313.742 57.3486C313.792 57.1755 313.817 57.0023 313.817 56.8291C313.817 56.5967 313.783 56.3848 313.714 56.1934C313.646 56.002 313.546 55.8379 313.413 55.7012C313.281 55.5645 313.122 55.4574 312.935 55.3799C312.753 55.3024 312.548 55.2637 312.32 55.2637C312.028 55.2637 311.775 55.3047 311.561 55.3867C311.347 55.4688 311.169 55.585 311.028 55.7354C310.882 55.8949 310.772 56.0885 310.7 56.3164C310.627 56.5397 310.59 56.7949 310.59 57.082H308.95C308.95 56.6491 309.029 56.2412 309.189 55.8584C309.348 55.471 309.576 55.1338 309.872 54.8467C310.164 54.5596 310.52 54.3317 310.939 54.1631C311.363 53.9945 311.834 53.9102 312.354 53.9102C312.841 53.9102 313.277 53.9808 313.659 54.1221C314.047 54.2633 314.373 54.4593 314.637 54.71C314.897 54.9606 315.095 55.2614 315.232 55.6123C315.368 55.9587 315.437 56.3415 315.437 56.7607C315.437 57.0752 315.384 57.3805 315.28 57.6768C315.179 57.9684 315.04 58.2578 314.863 58.5449C314.68 58.832 314.464 59.1214 314.213 59.4131C313.967 59.7048 313.698 60.0055 313.407 60.3154L311.192 62.6807H315.826V64Z" fill="#E8178A"/>
<mask id="mask12_1780_593" style="mask-type:luminance" maskUnits="userSpaceOnUse" x="418" y="71" width="65" height="15">
<path d="M483 71H418V86H483V71Z" fill="white"/>
</mask>
<g mask="url(#mask12_1780_593)">
<path d="M418.5 86V71" stroke="#E8178A"/>
<path d="M418 78.5H483" stroke="#E8178A"/>
<path d="M482.5 86V71" stroke="#E8178A"/>
</g>
<path d="M439.244 61.71H436.12L435.443 64H433.734L436.975 54.0469H438.431L441.616 64H439.914L439.244 61.71ZM436.537 60.3018H438.841L437.699 56.3643L436.537 60.3018ZM447.567 64L447.471 62.9678C447.221 63.3369 446.915 63.6263 446.555 63.8359C446.195 64.041 445.792 64.1436 445.345 64.1436C444.963 64.1436 444.612 64.0843 444.293 63.9658C443.978 63.8428 443.707 63.6536 443.479 63.3984C443.256 63.1432 443.083 62.8174 442.96 62.4209C442.837 62.0199 442.775 61.5413 442.775 60.9854V56.6035H444.409V60.999C444.409 61.3408 444.434 61.6279 444.484 61.8604C444.534 62.0882 444.614 62.2705 444.723 62.4072C444.833 62.5485 444.972 62.6488 445.14 62.708C445.309 62.7673 445.507 62.7969 445.735 62.7969C445.972 62.7969 446.184 62.7718 446.371 62.7217C446.558 62.667 446.722 62.5941 446.863 62.5029C446.981 62.4209 447.086 62.3252 447.177 62.2158C447.269 62.1019 447.346 61.9766 447.41 61.8398V56.6035H449.05V64H447.567ZM454.27 54.7988V56.6035H457.052V57.8271H454.27V61.3613C454.27 61.6348 454.302 61.8649 454.366 62.0518C454.434 62.234 454.527 62.3776 454.646 62.4824C454.764 62.5918 454.906 62.6693 455.07 62.7148C455.234 62.7604 455.414 62.7832 455.61 62.7832C455.751 62.7832 455.897 62.7764 456.047 62.7627C456.198 62.749 456.343 62.7308 456.485 62.708C456.621 62.6898 456.749 62.6693 456.867 62.6465C456.991 62.6191 457.093 62.5964 457.175 62.5781L457.353 63.7061C457.234 63.779 457.091 63.8428 456.922 63.8975C456.758 63.9476 456.58 63.9909 456.389 64.0273C456.198 64.0638 455.997 64.0911 455.787 64.1094C455.582 64.1322 455.377 64.1436 455.172 64.1436C454.798 64.1436 454.454 64.0934 454.14 63.9932C453.83 63.8883 453.563 63.7266 453.34 63.5078C453.117 63.2936 452.941 63.0179 452.814 62.6807C452.691 62.3434 452.629 61.9378 452.629 61.4639V57.8271H450.838V56.6035H452.629V54.7988H454.27ZM458.956 60.2334C458.956 59.6956 459.033 59.1989 459.188 58.7432C459.343 58.2829 459.569 57.8841 459.865 57.5469C460.157 57.2096 460.515 56.9453 460.938 56.7539C461.362 56.5625 461.845 56.4668 462.388 56.4668C462.93 56.4668 463.413 56.5625 463.837 56.7539C464.265 56.9453 464.628 57.2096 464.924 57.5469C465.215 57.8841 465.439 58.2829 465.594 58.7432C465.749 59.1989 465.826 59.6956 465.826 60.2334V60.377C465.826 60.9193 465.749 61.4183 465.594 61.874C465.439 62.3298 465.215 62.7262 464.924 63.0635C464.632 63.4007 464.272 63.665 463.844 63.8564C463.42 64.0479 462.939 64.1436 462.401 64.1436C461.859 64.1436 461.374 64.0479 460.945 63.8564C460.517 63.665 460.157 63.4007 459.865 63.0635C459.569 62.7262 459.343 62.3298 459.188 61.874C459.033 61.4183 458.956 60.9193 458.956 60.377V60.2334ZM460.59 60.377C460.59 60.7096 460.624 61.0241 460.692 61.3203C460.765 61.6165 460.877 61.8763 461.027 62.0996C461.173 62.3229 461.36 62.5007 461.588 62.6328C461.816 62.7604 462.087 62.8242 462.401 62.8242C462.707 62.8242 462.973 62.7604 463.201 62.6328C463.429 62.5007 463.616 62.3229 463.762 62.0996C463.907 61.8763 464.015 61.6165 464.083 61.3203C464.156 61.0241 464.192 60.7096 464.192 60.377V60.2334C464.192 59.9098 464.156 59.5999 464.083 59.3037C464.01 59.0075 463.903 58.7477 463.762 58.5244C463.611 58.3011 463.422 58.1234 463.194 57.9912C462.971 57.859 462.702 57.793 462.388 57.793C462.078 57.793 461.809 57.859 461.581 57.9912C461.358 58.1234 461.173 58.3011 461.027 58.5244C460.877 58.7477 460.765 59.0075 460.692 59.3037C460.624 59.5999 460.59 59.9098 460.59 60.2334V60.377Z" fill="#E8178A"/>
<mask id="mask13_1780_593" style="mask-type:luminance" maskUnits="userSpaceOnUse" x="578" y="71" width="30" height="15">
<path d="M608 71H578V86H608V71Z" fill="white"/>
</mask>
<g mask="url(#mask13_1780_593)">
<path d="M578.5 86V71" stroke="#E8178A"/>
<path d="M578 78.5H608" stroke="#E8178A"/>
<path d="M607.5 86V71" stroke="#E8178A"/>
</g>
<path d="M586.951 57.2852H587.928C588.22 57.2852 588.475 57.2464 588.694 57.1689C588.913 57.0869 589.093 56.973 589.234 56.8271C589.366 56.6995 589.466 56.5423 589.535 56.3555C589.608 56.1641 589.644 55.959 589.644 55.7402C589.644 55.5033 589.61 55.2913 589.542 55.1045C589.478 54.9176 589.382 54.7581 589.255 54.626C589.127 54.5029 588.965 54.4072 588.769 54.3389C588.578 54.2705 588.357 54.2363 588.106 54.2363C587.883 54.2363 587.675 54.2705 587.484 54.3389C587.297 54.4027 587.135 54.4961 586.999 54.6191C586.857 54.7422 586.746 54.8903 586.664 55.0635C586.586 55.2367 586.548 55.4303 586.548 55.6445H584.914C584.914 55.248 584.994 54.8835 585.153 54.5508C585.313 54.2181 585.534 53.9287 585.816 53.6826C586.099 53.4411 586.431 53.252 586.814 53.1152C587.202 52.9785 587.625 52.9102 588.086 52.9102C588.555 52.9102 588.986 52.9717 589.378 53.0947C589.774 53.2132 590.111 53.391 590.389 53.6279C590.672 53.8695 590.891 54.1657 591.046 54.5166C591.201 54.8675 591.278 55.2754 591.278 55.7402C591.278 55.9453 591.246 56.1504 591.182 56.3555C591.123 56.5605 591.032 56.7588 590.909 56.9502C590.786 57.137 590.631 57.3125 590.444 57.4766C590.257 57.6406 590.038 57.7796 589.788 57.8936C590.084 57.9938 590.335 58.126 590.54 58.29C590.749 58.4495 590.92 58.6296 591.052 58.8301C591.185 59.0352 591.28 59.2562 591.34 59.4932C591.399 59.7256 591.428 59.9671 591.428 60.2178C591.428 60.6826 591.342 61.0973 591.169 61.4619C591 61.8219 590.768 62.125 590.471 62.3711C590.171 62.6217 589.815 62.8132 589.405 62.9453C588.999 63.0729 588.56 63.1367 588.086 63.1367C587.657 63.1367 587.245 63.0775 586.848 62.959C586.452 62.8405 586.103 62.6628 585.802 62.4258C585.502 62.1888 585.26 61.8971 585.078 61.5508C584.9 61.1999 584.811 60.792 584.811 60.3271H586.445C586.445 60.5459 586.484 60.7487 586.561 60.9355C586.643 61.1178 586.759 61.2728 586.91 61.4004C587.056 61.5326 587.229 61.6351 587.429 61.708C587.634 61.7809 587.86 61.8174 588.106 61.8174C588.37 61.8174 588.607 61.7832 588.817 61.7148C589.031 61.6419 589.211 61.5348 589.357 61.3936C589.498 61.2614 589.605 61.0973 589.678 60.9014C589.756 60.7008 589.795 60.473 589.795 60.2178C589.795 59.9307 589.751 59.6846 589.665 59.4795C589.578 59.2744 589.453 59.1035 589.289 58.9668C589.125 58.8346 588.926 58.7367 588.694 58.6729C588.466 58.6045 588.211 58.5703 587.928 58.5703H586.951V57.2852ZM599.826 63H593.148V61.8652L596.388 58.3379C596.657 58.0417 596.882 57.7773 597.065 57.5449C597.247 57.3079 597.395 57.0915 597.509 56.8955C597.618 56.6995 597.696 56.5173 597.742 56.3486C597.792 56.1755 597.817 56.0023 597.817 55.8291C597.817 55.5967 597.783 55.3848 597.714 55.1934C597.646 55.002 597.546 54.8379 597.413 54.7012C597.281 54.5645 597.122 54.4574 596.935 54.3799C596.753 54.3024 596.548 54.2637 596.32 54.2637C596.028 54.2637 595.775 54.3047 595.561 54.3867C595.347 54.4688 595.169 54.585 595.028 54.7354C594.882 54.8949 594.772 55.0885 594.7 55.3164C594.627 55.5397 594.59 55.7949 594.59 56.082H592.95C592.95 55.6491 593.029 55.2412 593.189 54.8584C593.348 54.471 593.576 54.1338 593.872 53.8467C594.164 53.5596 594.52 53.3317 594.939 53.1631C595.363 52.9945 595.834 52.9102 596.354 52.9102C596.841 52.9102 597.277 52.9808 597.659 53.1221C598.047 53.2633 598.373 53.4593 598.637 53.71C598.897 53.9606 599.095 54.2614 599.232 54.6123C599.368 54.9587 599.437 55.3415 599.437 55.7607C599.437 56.0752 599.384 56.3805 599.28 56.6768C599.179 56.9684 599.04 57.2578 598.863 57.5449C598.68 57.832 598.464 58.1214 598.213 58.4131C597.967 58.7048 597.698 59.0055 597.407 59.3154L595.192 61.6807H599.826V63Z" fill="#E8178A"/>
</g>
</svg>
