<?xml version="1.0" encoding="UTF-8" standalone="no"?><svg width="183" height="32" viewBox="0 0 183 32" fill="none" xmlns="http://www.w3.org/2000/svg">
<rect x="12.5791" y="17.5448" width="18.0966" height="3.67816" fill="#FF6200"/>
<rect x="2.94238" y="17.5448" width="4.48736" height="3.67816" fill="#FF6200"/>
<path fill-rule="evenodd" clip-rule="evenodd" d="M20.2665 24.1287V21.8851H23.9447V24.1287C23.9447 28.4759 20.4206 32 16.0734 32C11.7262 32 8.20215 28.4759 8.20215 24.1287L8.20215 14.0138H11.8803L11.8803 24.1287C11.8803 26.4445 13.7576 28.3218 16.0734 28.3218C18.3892 28.3218 20.2665 26.4445 20.2665 24.1287ZM11.8803 13.3517L11.8803 9.67356H8.20215L8.20215 13.3517L11.8803 13.3517ZM23.9447 21.223H20.2665V17.5448H23.9447V21.223ZM11.8803 9.01149V7.87126C11.8803 5.55548 13.7576 3.67816 16.0734 3.67816C18.3892 3.67816 20.2665 5.55548 20.2665 7.87126V16.8828H23.9447L23.9447 7.87126C23.9447 3.52408 20.4206 0 16.0734 0C11.7262 0 8.20215 3.52408 8.20215 7.87126L8.20215 9.01149L11.8803 9.01149Z" fill="#FF6200"/>
<path fill-rule="evenodd" clip-rule="evenodd" d="M20.2667 13.3149H23.1724C23.4349 13.3149 23.6929 13.3345 23.9448 13.3724V9.67005C23.6903 9.64798 23.4327 9.63672 23.1724 9.63672H20.2667V13.3149ZM19.6046 9.63672H8.82759C3.95224 9.63672 0 13.589 0 18.4643V22.2896H3.67816V18.4643C3.67816 15.6204 5.98364 13.3149 8.82759 13.3149H19.6046V9.63672ZM28.3218 18.4643C28.3218 16.1182 26.7528 14.1385 24.6069 13.5173V9.75268C28.8 10.4379 32 14.0774 32 18.4643V22.2896H28.3218V18.4643Z" fill="#FF6200"/>
<path d="M43.9298 23.6252C40.6758 23.6252 38.4856 21.4349 38.4856 18.1601C38.4856 14.906 40.6758 12.6949 43.9298 12.6949C47.1839 12.6949 49.3741 14.906 49.3741 18.1601C49.3741 21.4349 47.1839 23.6252 43.9298 23.6252ZM43.9298 21.7061C45.828 21.7061 47.0796 20.2251 47.0796 18.1601C47.0796 16.095 45.828 14.614 43.9298 14.614C42.0316 14.614 40.8009 16.095 40.8009 18.1601C40.8009 20.2251 42.0316 21.7061 43.9298 21.7061ZM56.3808 12.6949C59.3011 12.6949 61.4288 14.7391 61.4288 18.1601C61.4288 21.4558 59.3011 23.6252 56.3808 23.6252C54.733 23.6252 53.5857 22.9577 52.9182 21.9981V27.6718H50.6654V12.8201H52.6262L52.8974 14.4054C53.6066 13.4667 54.7121 12.6949 56.3808 12.6949ZM56.0054 21.727C57.8827 21.727 59.1343 20.246 59.1343 18.1601C59.1343 16.0533 57.8827 14.614 56.0054 14.614C54.128 14.614 52.8974 16.0533 52.8974 18.1183C52.8974 20.246 54.128 21.727 56.0054 21.727ZM67.7825 23.6252C64.4242 23.6252 62.3174 21.4558 62.3174 18.1809C62.3174 14.8852 64.4242 12.6949 67.5739 12.6949C70.6611 12.6949 72.7262 14.6557 72.7887 17.7846C72.7887 18.0558 72.7679 18.3478 72.7262 18.6398H64.6745V18.7858C64.7371 20.6006 65.8844 21.7895 67.6574 21.7895C69.0341 21.7895 70.0353 21.1012 70.3482 19.9122H72.601C72.2255 22.019 70.4317 23.6252 67.7825 23.6252ZM64.758 16.9919H70.4525C70.2648 15.4066 69.1592 14.5097 67.5948 14.5097C66.1555 14.5097 64.9248 15.4692 64.758 16.9919ZM76.6882 23.5626L72.5372 12.8201H74.936L77.9188 20.9343L80.8183 12.8201H83.2171L78.3777 25.1687C77.7102 26.9 77.2513 27.6718 75.6869 27.6718H73.2672V25.6902H74.8525C75.7286 25.6902 75.9372 25.4816 76.271 24.6055L76.6882 23.5626ZM88.4163 23.6252C85.0579 23.6252 82.9512 21.4558 82.9512 18.1809C82.9512 14.8852 85.0579 12.6949 88.2077 12.6949C91.2948 12.6949 93.3599 14.6557 93.4225 17.7846C93.4225 18.0558 93.4016 18.3478 93.3599 18.6398H85.3083V18.7858C85.3708 20.6006 86.5181 21.7895 88.2911 21.7895C89.6678 21.7895 90.6691 21.1012 90.9819 19.9122H93.2347C92.8593 22.019 91.0654 23.6252 88.4163 23.6252ZM85.3917 16.9919H91.0862C90.8985 15.4066 89.793 14.5097 88.2285 14.5097C86.7893 14.5097 85.5586 15.4692 85.3917 16.9919ZM107.01 12.6949C109.221 12.6949 111.015 13.9674 111.015 17.3465V23.5H108.762V17.4926C108.762 15.6152 107.99 14.6349 106.53 14.6349C104.986 14.6349 104.006 15.803 104.006 17.722V23.5H101.732V17.4926C101.732 15.6152 100.961 14.6349 99.4795 14.6349C97.9359 14.6349 96.9764 15.8864 96.9764 17.7846V23.5H94.7236V12.8201H96.6844L96.9347 14.2177C97.5396 13.425 98.4574 12.7158 100.064 12.6949C101.461 12.6949 102.713 13.2581 103.359 14.6349C104.048 13.4667 105.257 12.6949 107.01 12.6949ZM113.684 11.3182C112.912 11.3182 112.307 10.755 112.307 9.9624C112.307 9.16975 112.912 8.60655 113.684 8.60655C114.456 8.60655 115.061 9.16975 115.061 9.9624C115.061 10.755 114.456 11.3182 113.684 11.3182ZM112.537 23.5V12.8201H114.79V23.5H112.537ZM131.057 21.5392H131.516V23.5H130.327C128.866 23.5 128.366 22.8534 128.366 21.7895C127.657 22.8742 126.572 23.6252 124.841 23.6252C122.504 23.6252 120.877 22.4779 120.877 20.4963C120.877 18.3061 122.463 17.0754 125.446 17.0754H128.136V16.4287C128.136 15.2398 127.281 14.5097 125.8 14.5097C124.465 14.5097 123.568 15.1355 123.401 16.0741H121.19C121.42 13.9882 123.214 12.6949 125.904 12.6949C128.741 12.6949 130.368 14.0508 130.368 16.5748V20.8509C130.368 21.3932 130.598 21.5392 131.057 21.5392ZM128.136 19.1196V18.7441H125.341C123.944 18.7441 123.172 19.2656 123.172 20.3503C123.172 21.2472 123.923 21.873 125.154 21.873C127.031 21.873 128.116 20.7674 128.136 19.1196ZM133.474 11.3182C132.702 11.3182 132.097 10.755 132.097 9.9624C132.097 9.16975 132.702 8.60655 133.474 8.60655C134.246 8.60655 134.851 9.16975 134.851 9.9624C134.851 10.755 134.246 11.3182 133.474 11.3182ZM130.011 27.6718V25.6902H131.221C132.014 25.6902 132.348 25.3356 132.348 24.5221V12.8201H134.601V24.689C134.601 26.608 133.683 27.6718 131.68 27.6718H130.011ZM146.048 21.5392H146.507V23.5H145.318C143.858 23.5 143.357 22.8534 143.357 21.7895C142.648 22.8742 141.563 23.6252 139.832 23.6252C137.496 23.6252 135.869 22.4779 135.869 20.4963C135.869 18.3061 137.454 17.0754 140.437 17.0754H143.128V16.4287C143.128 15.2398 142.272 14.5097 140.791 14.5097C139.456 14.5097 138.559 15.1355 138.393 16.0741H136.181C136.411 13.9882 138.205 12.6949 140.896 12.6949C143.732 12.6949 145.359 14.0508 145.359 16.5748V20.8509C145.359 21.3932 145.589 21.5392 146.048 21.5392ZM143.128 19.1196V18.7441H140.332C138.935 18.7441 138.163 19.2656 138.163 20.3503C138.163 21.2472 138.914 21.873 140.145 21.873C142.022 21.873 143.107 20.7674 143.128 19.1196ZM155.37 14.4888L155.62 12.8201H157.581V23.062C157.581 25.9614 155.954 27.797 152.116 27.797C149.279 27.797 147.297 26.4829 147.089 24.0841H149.383C149.654 25.273 150.697 25.9614 152.282 25.9614C154.243 25.9614 155.349 25.0227 155.349 22.9785V21.7895C154.64 22.8534 153.534 23.5417 151.865 23.5417C148.966 23.5417 146.817 21.5184 146.817 18.1183C146.817 14.8434 148.966 12.6949 151.865 12.6949C153.534 12.6949 154.681 13.425 155.37 14.4888ZM152.241 21.6435C154.118 21.6435 155.349 20.2043 155.349 18.1601C155.349 16.0533 154.118 14.5931 152.241 14.5931C150.363 14.5931 149.133 16.0533 149.133 18.1183C149.133 20.2043 150.363 21.6435 152.241 21.6435ZM164.977 12.6949C167.898 12.6949 170.025 14.7183 170.025 18.1601C170.025 21.4349 167.898 23.6252 164.977 23.6252C163.309 23.6252 162.161 22.9159 161.494 21.9564L161.223 23.5H159.262V8.89858H161.515V14.4054C162.224 13.4459 163.33 12.6949 164.977 12.6949ZM164.602 21.727C166.479 21.727 167.731 20.2668 167.731 18.1601C167.731 16.0741 166.479 14.614 164.602 14.614C162.725 14.614 161.494 16.0741 161.494 18.1392C161.494 20.246 162.725 21.727 164.602 21.727ZM176.379 23.6252C173.021 23.6252 170.914 21.4558 170.914 18.1809C170.914 14.8852 173.021 12.6949 176.171 12.6949C179.258 12.6949 181.323 14.6557 181.385 17.7846C181.385 18.0558 181.365 18.3478 181.323 18.6398H173.271V18.7858C173.334 20.6006 174.481 21.7895 176.254 21.7895C177.631 21.7895 178.632 21.1012 178.945 19.9122H181.198C180.822 22.019 179.028 23.6252 176.379 23.6252ZM173.355 16.9919H179.049C178.861 15.4066 177.756 14.5097 176.191 14.5097C174.752 14.5097 173.521 15.4692 173.355 16.9919Z" fill="white"/>
</svg>
