<svg width="24" height="24" viewBox="0 0 24 24" fill="none" xmlns="http://www.w3.org/2000/svg">
<path fill-rule="evenodd" clip-rule="evenodd" d="M13.586 1.41739C12.6039 0.860872 11.3935 0.860872 10.4114 1.41739L3.58506 5.28548C2.60416 5.8413 2 6.86784 2 7.97867V15.7756C2 16.8864 2.60416 17.913 3.58506 18.4688L10.4114 22.3369C11.3935 22.8934 12.6039 22.8934 13.586 22.3369L20.4123 18.4688C21.3933 17.913 21.9975 16.8864 21.9975 15.7756V7.97867C21.9975 6.86784 21.3933 5.84131 20.4123 5.28548L13.586 1.41739ZM6.78674 8.99417C6.67344 8.93003 6.53186 9.01026 6.53186 9.13848V10.6552C6.53186 10.7753 6.59783 10.8862 6.70451 10.9453L9.02268 12.23C9.09378 12.2695 9.13774 12.3434 9.13774 12.4235V14.1507C9.13774 14.2145 9.06763 14.2546 9.01097 14.2232L6.65864 12.9196C6.602 12.8882 6.53186 12.9283 6.53186 12.9921V14.6565C6.53186 14.7756 6.59668 14.8856 6.70191 14.9452L10.6957 17.2044C10.809 17.2684 10.9505 17.1883 10.9505 17.06V11.542C10.9505 11.4229 10.8857 11.3129 10.7805 11.2534L6.78674 8.99417ZM17.4653 9.13848C17.4653 9.01026 17.3237 8.93003 17.2104 8.99417L13.2167 11.2534C13.1114 11.3129 13.0466 11.4229 13.0466 11.542V17.06C13.0466 17.1883 13.1882 17.2684 13.3014 17.2044L17.2953 14.9452C17.4005 14.8856 17.4653 14.7756 17.4653 14.6565V12.9921C17.4653 12.9283 17.3952 12.8882 17.3385 12.9196L14.9862 14.2232C14.9295 14.2546 14.8594 14.2145 14.8594 14.1507V12.4235C14.8594 12.3434 14.9034 12.2695 14.9745 12.23L17.2927 10.9453C17.3993 10.8862 17.4653 10.7753 17.4653 10.6552V9.13848ZM12.3349 5.95492C12.1264 5.83851 11.8707 5.83851 11.6622 5.95491L8.37563 7.78967C8.26155 7.85336 8.26104 8.01442 8.37473 8.07877L10.0175 9.00895C10.0867 9.04814 10.1719 9.04869 10.2416 9.01033L11.8878 8.10544C11.9566 8.06763 12.0406 8.06763 12.1094 8.10544L13.7556 9.01033C13.8253 9.04869 13.9105 9.04814 13.9797 9.00895L15.6224 8.07877C15.7361 8.01442 15.7356 7.85336 15.6215 7.78967L12.3349 5.95492Z" fill="white"/>
</svg>
